<svg width="138" height="135" viewBox="0 0 138 135" fill="none" xmlns="http://www.w3.org/2000/svg">
<path d="M2.38896 4.77384C2.07499 4.77113 1.76463 4.70648 1.47568 4.58358C1.18673 4.46069 0.924887 4.28197 0.70511 4.05767C0.486068 3.83809 0.312409 3.57749 0.194108 3.29076C0.0758071 3.00403 0.0151575 2.69679 0.0156277 2.3866C0.0169213 1.75667 0.264375 1.15221 0.70511 0.70226C1.16189 0.275251 1.76375 0.0377197 2.38896 0.0377197C3.01417 0.0377197 3.61603 0.275251 4.07281 0.70226C4.51118 1.15376 4.75822 1.75722 4.76229 2.3866C4.76036 3.01249 4.51275 3.61259 4.07281 4.05767C3.85303 4.28197 3.59119 4.46069 3.30224 4.58358C3.01329 4.70648 2.70293 4.77113 2.38896 4.77384Z" fill="#5F2DED"/>
<path d="M121.121 2.38728C121.121 1.75766 121.371 1.15383 121.816 0.708624C122.261 0.263416 122.865 0.0132984 123.494 0.0132984C123.808 0.00977219 124.119 0.0686723 124.409 0.186562C124.699 0.304452 124.963 0.478969 125.185 0.699943C125.407 0.920916 125.583 1.18392 125.703 1.47362C125.822 1.76332 125.883 2.07391 125.881 2.38728C125.881 3.02042 125.63 3.62763 125.182 4.07532C124.734 4.52302 124.127 4.77453 123.494 4.77453C122.864 4.77102 122.26 4.51796 121.815 4.07065C121.371 3.62333 121.121 3.01813 121.121 2.38728ZM109.016 2.38728C109.014 2.07504 109.074 1.76554 109.193 1.47672C109.312 1.1879 109.486 0.925494 109.707 0.704698C109.928 0.483902 110.19 0.309103 110.479 0.190422C110.768 0.0717413 111.077 0.0115392 111.389 0.0132984C111.701 0.0115392 112.011 0.0717413 112.299 0.190422C112.588 0.309103 112.851 0.483902 113.071 0.704698C113.292 0.925494 113.467 1.1879 113.585 1.47672C113.704 1.76554 113.764 2.07504 113.762 2.38728C113.762 3.01813 113.513 3.62333 113.068 4.07065C112.623 4.51796 112.02 4.77102 111.389 4.77453C110.758 4.77102 110.155 4.51796 109.71 4.07065C109.265 3.62333 109.016 3.01813 109.016 2.38728ZM96.8973 2.38728C96.8955 2.07391 96.9562 1.76332 97.0756 1.47362C97.1951 1.18392 97.371 0.920916 97.5932 0.699943C97.8153 0.478969 98.0792 0.304452 98.3695 0.186562C98.6598 0.0686723 98.9706 0.00977219 99.2839 0.0132984C99.6 0.00623085 99.9143 0.0624126 100.208 0.178548C100.503 0.294684 100.77 0.468434 100.996 0.689586C101.223 0.910739 101.402 1.17484 101.525 1.46638C101.647 1.75791 101.71 2.07101 101.71 2.38728C101.71 3.01813 101.461 3.62333 101.016 4.07065C100.571 4.51796 99.9676 4.77102 99.3369 4.77453C99.0191 4.7816 98.703 4.72507 98.4073 4.60827C98.1116 4.49146 97.8423 4.31674 97.615 4.09436C97.3877 3.87197 97.2072 3.60641 97.0839 3.31327C96.9607 3.02012 96.8972 2.7053 96.8973 2.38728ZM84.792 2.38728C84.7885 1.76346 85.032 1.16358 85.4692 0.718753C85.9065 0.273922 86.502 0.0202977 87.1256 0.0132984C87.4389 0.00977219 87.7497 0.0686723 88.04 0.186562C88.3302 0.304452 88.5942 0.478969 88.8163 0.699943C89.0385 0.920916 89.2144 1.18392 89.3339 1.47362C89.4534 1.76332 89.5139 2.07391 89.5122 2.38728C89.5087 3.01935 89.2561 3.62453 88.8093 4.07147C88.3625 4.51841 87.7575 4.77105 87.1256 4.77453C86.5019 4.76066 85.9084 4.50304 85.4722 4.05684C85.036 3.61063 84.7919 3.01134 84.792 2.38728ZM72.6868 2.38728C72.685 2.07615 72.7448 1.76775 72.8626 1.4798C72.9804 1.19185 73.154 0.930039 73.3733 0.709419C73.5927 0.488799 73.8534 0.313723 74.1406 0.194257C74.4278 0.0747912 74.7358 0.0132934 75.0469 0.0132984C75.3608 0.00978997 75.6722 0.0686022 75.9632 0.186334C76.2542 0.304066 76.519 0.478379 76.7422 0.699174C76.9654 0.919969 77.1426 1.18286 77.2635 1.47263C77.3845 1.7624 77.4467 2.07328 77.4467 2.38728C77.4432 3.02164 77.1888 3.62881 76.7391 4.07613C76.2895 4.52345 75.6811 4.77454 75.0469 4.77453C74.4185 4.76754 73.8183 4.51295 73.3764 4.06601C72.9346 3.61907 72.6867 3.01585 72.6868 2.38728ZM60.5683 2.38728C60.5665 2.07504 60.6267 1.76554 60.7453 1.47672C60.864 1.1879 61.0387 0.925494 61.2595 0.704698C61.4802 0.483902 61.7425 0.309103 62.0313 0.190422C62.32 0.0717413 62.6294 0.0115392 62.9416 0.0132984C63.2543 0.00974412 63.5644 0.068719 63.854 0.186764C64.1435 0.30481 64.4066 0.479545 64.6277 0.700702C64.8488 0.921858 65.0235 1.18498 65.1415 1.47461C65.2595 1.76424 65.3184 2.07454 65.3149 2.38728C65.3166 2.70015 65.2566 3.01028 65.1381 3.29984C65.0196 3.5894 64.845 3.85267 64.6245 4.07452C64.4039 4.29637 64.1417 4.47243 63.8529 4.59256C63.5641 4.71269 63.2544 4.77453 62.9416 4.77453C62.3179 4.76066 61.7244 4.50304 61.2882 4.05684C60.8521 3.61063 60.6079 3.01134 60.608 2.38728H60.5683ZM48.4497 2.38728C48.4479 2.07391 48.5086 1.76332 48.628 1.47362C48.7475 1.18392 48.9234 0.920916 49.1456 0.699943C49.3677 0.478969 49.6317 0.304452 49.922 0.186562C50.2122 0.0686723 50.5231 0.00977219 50.8363 0.0132984C51.1485 0.0115392 51.4579 0.0717413 51.7466 0.190422C52.0354 0.309103 52.2977 0.483902 52.5184 0.704698C52.7392 0.925494 52.9139 1.1879 53.0326 1.47672C53.1512 1.76554 53.2114 2.07504 53.2097 2.38728C53.2114 2.69953 53.1512 3.00903 53.0326 3.29784C52.9139 3.58666 52.7392 3.84907 52.5184 4.06986C52.2977 4.29066 52.0354 4.46546 51.7466 4.58414C51.4579 4.70282 51.1485 4.76302 50.8363 4.76126C50.5235 4.76301 50.2135 4.7029 49.924 4.58438C49.6345 4.46586 49.3713 4.29127 49.1496 4.07065C48.9278 3.85003 48.7517 3.58773 48.6316 3.29884C48.5115 3.00995 48.4497 2.70016 48.4497 2.38728ZM36.3445 2.38728C36.3445 2.07441 36.4063 1.76462 36.5264 1.47573C36.6465 1.18683 36.8225 0.924533 37.0443 0.703914C37.2661 0.483295 37.5293 0.308705 37.8187 0.190184C38.1082 0.0716633 38.4183 0.0115505 38.7311 0.0132984C39.3605 0.0132984 39.9642 0.263416 40.4092 0.708624C40.8543 1.15383 41.1044 1.75766 41.1044 2.38728C41.1044 3.01813 40.8548 3.62333 40.41 4.07065C39.9653 4.51796 39.3617 4.77102 38.7311 4.77453C38.0992 4.77105 37.4941 4.51841 37.0473 4.07147C36.6005 3.62453 36.348 3.01935 36.3445 2.38728ZM24.2392 2.38728C24.2357 2.07393 24.2946 1.763 24.4124 1.47264C24.5303 1.18228 24.7047 0.918301 24.9257 0.696093C25.1466 0.473884 25.4095 0.297897 25.6991 0.178391C25.9887 0.0588859 26.2992 -0.00174229 26.6125 3.81035e-05C27.2444 0.00352062 27.8494 0.256147 28.2962 0.70309C28.7431 1.15003 28.9956 1.75522 28.9991 2.38728C28.9956 3.01935 28.7431 3.62453 28.2962 4.07147C27.8494 4.51841 27.2444 4.77105 26.6125 4.77453C25.9818 4.77102 25.3782 4.51796 24.9335 4.07065C24.4888 3.62333 24.2392 3.01813 24.2392 2.38728ZM12.1339 2.38728C12.1304 2.07454 12.1894 1.76424 12.3074 1.47461C12.4254 1.18498 12.6001 0.921858 12.8212 0.700702C13.0423 0.479545 13.3053 0.30481 13.5948 0.186764C13.8844 0.068719 14.1946 0.00974412 14.5073 0.0132984C14.8172 0.0150351 15.1238 0.0778169 15.4094 0.198062C15.6951 0.318306 15.9543 0.493658 16.1722 0.714104C16.3901 0.934549 16.5625 1.19577 16.6795 1.48286C16.7965 1.76994 16.8558 2.07727 16.8541 2.38728C16.8541 3.01813 16.6044 3.62333 16.1597 4.07065C15.715 4.51796 15.1114 4.77102 14.4807 4.77453C14.1697 4.7728 13.862 4.70958 13.5755 4.58851C13.289 4.46743 13.0292 4.29089 12.8111 4.06904C12.593 3.84718 12.4209 3.58439 12.3047 3.29578C12.1884 3.00716 12.1304 2.69841 12.1339 2.38728Z" fill="#5F2DED"/>
<path d="M135.613 4.76058C135.3 4.76581 134.99 4.70738 134.7 4.58882C134.411 4.47026 134.149 4.29406 133.929 4.07093C133.487 3.62076 133.236 3.01754 133.227 2.3866C133.236 1.75565 133.487 1.15243 133.929 0.70226C134.386 0.275251 134.988 0.0377197 135.613 0.0377197C136.238 0.0377197 136.84 0.275251 137.297 0.70226C137.739 1.15243 137.991 1.75565 138 2.3866C137.991 3.01754 137.739 3.62076 137.297 4.07093C137.078 4.29406 136.815 4.47026 136.526 4.58882C136.236 4.70738 135.926 4.76581 135.613 4.76058Z" fill="#5F2DED"/>
<path d="M2.38896 17.8647C1.75762 17.8585 1.15359 17.6063 0.705107 17.1618C0.266373 16.7159 0.0189671 16.1163 0.015625 15.4907C0.0162707 14.8567 0.263565 14.2479 0.705107 13.7931C1.16477 13.3719 1.76554 13.1382 2.38896 13.1382C3.01237 13.1382 3.61315 13.3719 4.07281 13.7931C4.51435 14.2479 4.76165 14.8567 4.76229 15.4907C4.75895 16.1163 4.51154 16.7159 4.07281 17.1618C3.62277 17.604 3.01973 17.8557 2.38896 17.8647Z" fill="#5F2DED"/>
<path d="M121.122 15.4907C121.122 14.8598 121.371 14.2546 121.816 13.8073C122.261 13.36 122.864 13.1069 123.495 13.1034C123.809 13.1017 124.12 13.1622 124.41 13.2816C124.701 13.4009 124.964 13.5767 125.186 13.7987C125.408 14.0207 125.584 14.2846 125.703 14.575C125.823 14.8655 125.883 15.1767 125.881 15.4907C125.878 16.1215 125.625 16.7253 125.178 17.1702C124.731 17.615 124.126 17.8647 123.495 17.8647C122.866 17.8612 122.265 17.6099 121.821 17.1655C121.376 16.721 121.125 16.1192 121.122 15.4907ZM109.016 15.4907C109.015 15.1778 109.075 14.8677 109.193 14.5781C109.312 14.2886 109.486 14.0253 109.707 13.8034C109.927 13.5816 110.189 13.4055 110.478 13.2854C110.767 13.1653 111.077 13.1034 111.39 13.1034C111.702 13.1034 112.012 13.1653 112.301 13.2854C112.59 13.4055 112.852 13.5816 113.072 13.8034C113.293 14.0253 113.468 14.2886 113.586 14.5781C113.705 14.8677 113.765 15.1778 113.763 15.4907C113.763 15.8024 113.702 16.1111 113.582 16.3992C113.463 16.6872 113.288 16.9489 113.068 17.1693C112.847 17.3898 112.586 17.5646 112.298 17.684C112.01 17.8033 111.701 17.8647 111.39 17.8647C110.76 17.8647 110.156 17.6145 109.711 17.1693C109.266 16.7241 109.016 16.1203 109.016 15.4907ZM96.8977 15.4907C96.896 15.1767 96.9565 14.8655 97.0758 14.575C97.1951 14.2846 97.3709 14.0207 97.5928 13.7987C97.8148 13.5767 98.0786 13.4009 98.369 13.2816C98.6593 13.1622 98.9704 13.1017 99.2843 13.1034C99.915 13.1069 100.519 13.36 100.963 13.8073C101.408 14.2546 101.658 14.8598 101.658 15.4907C101.654 16.1192 101.403 16.721 100.959 17.1655C100.514 17.6099 99.9127 17.8612 99.2843 17.8647C98.6537 17.8647 98.0486 17.615 97.6014 17.1702C97.1542 16.7253 96.9012 16.1215 96.8977 15.4907ZM84.7925 15.4907C84.7907 15.1767 84.8513 14.8655 84.9706 14.575C85.0899 14.2846 85.2656 14.0207 85.4876 13.7987C85.7095 13.5767 85.9733 13.4009 86.2637 13.2816C86.554 13.1622 86.8652 13.1017 87.1791 13.1034C87.8097 13.1069 88.4134 13.36 88.8581 13.8073C89.3028 14.2546 89.5524 14.8598 89.5524 15.4907C89.5489 16.1215 89.2959 16.7253 88.8487 17.1702C88.4015 17.615 87.7965 17.8647 87.1658 17.8647C86.5364 17.8647 85.9327 17.6145 85.4876 17.1693C85.0425 16.7241 84.7925 16.1203 84.7925 15.4907ZM72.6872 15.4907C72.6854 15.1789 72.7451 14.8699 72.8628 14.5812C72.9805 14.2925 73.1538 14.0298 73.373 13.8081C73.5921 13.5864 73.8528 13.4101 74.14 13.2892C74.4273 13.1683 74.7356 13.1052 75.0473 13.1034C75.3612 13.1017 75.6723 13.1622 75.9626 13.2816C76.253 13.4009 76.5168 13.5767 76.7388 13.7987C76.9607 14.0207 77.1365 14.2846 77.2558 14.575C77.3751 14.8655 77.4356 15.1767 77.4339 15.4907C77.4304 16.1215 77.1774 16.7253 76.7302 17.1702C76.283 17.615 75.678 17.8647 75.0473 17.8647C74.4202 17.8612 73.8199 17.6095 73.3776 17.1647C72.9354 16.7198 72.6872 16.118 72.6872 15.4907ZM60.5687 15.4907C60.5669 15.1778 60.627 14.8677 60.7455 14.5781C60.864 14.2886 61.0385 14.0253 61.2591 13.8034C61.4797 13.5816 61.7419 13.4055 62.0307 13.2854C62.3195 13.1653 62.6292 13.1034 62.942 13.1034C63.2553 13.1017 63.5658 13.1623 63.8554 13.2818C64.145 13.4013 64.408 13.5773 64.6289 13.7995C64.8498 14.0217 65.0243 14.2857 65.1421 14.576C65.26 14.8664 65.3188 15.1773 65.3153 15.4907C65.3153 16.1203 65.0653 16.7241 64.6202 17.1693C64.1751 17.6145 63.5715 17.8647 62.942 17.8647C62.3195 17.8542 61.726 17.5995 61.2895 17.1554C60.853 16.7113 60.6084 16.1135 60.6085 15.4907H60.5687ZM48.4501 15.4907C48.4501 15.1772 48.5119 14.8668 48.6318 14.5771C48.7518 14.2875 48.9276 14.0243 49.1492 13.8026C49.3708 13.581 49.6339 13.4051 49.9234 13.2852C50.213 13.1652 50.5233 13.1034 50.8368 13.1034C51.1495 13.1034 51.4592 13.1653 51.748 13.2854C52.0369 13.4055 52.2991 13.5816 52.5196 13.8034C52.7402 14.0253 52.9147 14.2886 53.0332 14.5781C53.1517 14.8677 53.2118 15.1778 53.2101 15.4907C53.2101 16.1203 52.96 16.7241 52.5149 17.1693C52.0699 17.6145 51.4662 17.8647 50.8368 17.8647C50.2061 17.8647 49.601 17.615 49.1538 17.1702C48.7066 16.7253 48.4536 16.1215 48.4501 15.4907ZM36.3449 15.4907C36.3432 15.1778 36.4032 14.8677 36.5217 14.5781C36.6402 14.2886 36.8148 14.0253 37.0353 13.8034C37.2559 13.5816 37.5181 13.4055 37.8069 13.2854C38.0957 13.1653 38.4054 13.1034 38.7182 13.1034C39.0316 13.1034 39.342 13.1652 39.6315 13.2852C39.9211 13.4051 40.1842 13.581 40.4058 13.8026C40.6274 14.0243 40.8032 14.2875 40.9231 14.5771C41.0431 14.8668 41.1048 15.1772 41.1048 15.4907C41.1013 16.1215 40.8483 16.7253 40.4011 17.1702C39.9539 17.615 39.3489 17.8647 38.7182 17.8647C38.0888 17.8647 37.4851 17.6145 37.04 17.1693C36.5949 16.7241 36.3449 16.1203 36.3449 15.4907ZM24.2396 15.4907C24.2379 15.1778 24.298 14.8677 24.4165 14.5781C24.5349 14.2886 24.7095 14.0253 24.9301 13.8034C25.1506 13.5816 25.4128 13.4055 25.7016 13.2854C25.9904 13.1653 26.3001 13.1034 26.6129 13.1034C26.9263 13.1034 27.2367 13.1652 27.5263 13.2852C27.8158 13.4051 28.0789 13.581 28.3005 13.8026C28.5221 14.0243 28.6979 14.2875 28.8179 14.5771C28.9378 14.8668 28.9995 15.1772 28.9995 15.4907C28.996 16.1215 28.743 16.7253 28.2959 17.1702C27.8487 17.615 27.2436 17.8647 26.6129 17.8647C25.9835 17.8647 25.3798 17.6145 24.9347 17.1693C24.4897 16.7241 24.2396 16.1203 24.2396 15.4907ZM12.1211 15.4907C12.1211 15.1772 12.1828 14.8668 12.3028 14.5771C12.4227 14.2875 12.5985 14.0243 12.8201 13.8026C13.0417 13.581 13.3048 13.4051 13.5944 13.2852C13.8839 13.1652 14.1943 13.1034 14.5077 13.1034C15.1384 13.1069 15.742 13.36 16.1867 13.8073C16.6314 14.2546 16.881 14.8598 16.881 15.4907C16.881 16.1203 16.631 16.7241 16.1859 17.1693C15.7408 17.6145 15.1371 17.8647 14.5077 17.8647C13.877 17.8647 13.272 17.615 12.8248 17.1702C12.3776 16.7253 12.1246 16.1215 12.1211 15.4907Z" fill="#5F2DED"/>
<path d="M135.613 17.8647C134.982 17.8584 134.378 17.6063 133.929 17.1617C133.487 16.7172 133.235 16.1179 133.227 15.4907C133.239 14.8643 133.49 14.2665 133.929 13.8196C134.389 13.3983 134.99 13.1647 135.613 13.1647C136.237 13.1647 136.837 13.3983 137.297 13.8196C137.742 14.2731 137.994 14.8816 138 15.5172C137.991 16.1444 137.739 16.7437 137.297 17.1883C136.844 17.6231 136.241 17.8655 135.613 17.8647Z" fill="#5F2DED"/>
<path d="M2.40179 30.5436C2.08703 30.5491 1.77438 30.4908 1.48272 30.3723C1.19106 30.2538 0.926417 30.0775 0.704667 29.854C0.257867 29.407 0.00535813 28.8017 0.00195312 28.1696C0.00740862 27.5418 0.25987 26.9415 0.704667 26.4986C1.16291 26.0744 1.76422 25.8389 2.38852 25.8389C3.01282 25.8389 3.61413 26.0744 4.07237 26.4986C4.51073 26.9501 4.75778 27.5535 4.76185 28.1829C4.7612 28.8169 4.51391 29.4257 4.07237 29.8805C3.62473 30.3133 3.0243 30.5516 2.40179 30.5436Z" fill="#5F2DED"/>
<path d="M121.122 28.1695C121.116 27.8545 121.174 27.5415 121.291 27.2488C121.408 26.9562 121.582 26.6898 121.802 26.4651C122.023 26.2404 122.287 26.062 122.577 25.9402C122.868 25.8184 123.18 25.7557 123.495 25.7558C123.808 25.754 124.118 25.8141 124.407 25.9327C124.697 26.0512 124.96 26.2258 125.182 26.4464C125.403 26.667 125.579 26.9293 125.7 27.2182C125.82 27.5071 125.882 27.8169 125.881 28.1298C125.882 28.4426 125.82 28.7524 125.7 29.0413C125.579 29.3302 125.403 29.5925 125.182 29.8131C124.96 30.0337 124.697 30.2083 124.407 30.3269C124.118 30.4454 123.808 30.5055 123.495 30.5037C122.872 30.5038 122.275 30.2592 121.831 29.8225C121.387 29.3859 121.132 28.7922 121.122 28.1695ZM109.003 28.1695C109 27.8538 109.059 27.5405 109.177 27.2478C109.295 26.9551 109.471 26.6888 109.693 26.4643C109.915 26.2398 110.179 26.0616 110.47 25.94C110.761 25.8184 111.074 25.7558 111.39 25.7558C111.701 25.7558 112.01 25.8172 112.298 25.9365C112.586 26.0558 112.847 26.2307 113.068 26.4511C113.288 26.6715 113.463 26.9333 113.582 27.2213C113.702 27.5093 113.763 27.818 113.763 28.1298C113.763 28.7606 113.513 29.3658 113.069 29.8131C112.624 30.2604 112.02 30.5135 111.39 30.517C110.765 30.5137 110.165 30.2666 109.72 29.8282C109.274 29.3897 109.017 28.7947 109.003 28.1695ZM96.8978 28.1695C96.8978 27.8567 96.9596 27.5469 97.0797 27.258C97.1998 26.9691 97.3758 26.7068 97.5976 26.4862C97.8194 26.2656 98.0826 26.091 98.3721 25.9725C98.6616 25.8539 98.9716 25.7938 99.2844 25.7956C99.6005 25.7885 99.9148 25.8447 100.209 25.9608C100.503 26.077 100.771 26.2507 100.997 26.4719C101.223 26.693 101.403 26.9571 101.525 27.2486C101.648 27.5402 101.711 27.8533 101.711 28.1695C101.712 28.4818 101.652 28.7913 101.534 29.0801C101.415 29.3689 101.24 29.6313 101.02 29.8521C100.799 30.0729 100.536 30.2477 100.248 30.3664C99.959 30.4851 99.6496 30.5453 99.3374 30.5435C99.0197 30.5543 98.7031 30.5007 98.4067 30.386C98.1102 30.2714 97.84 30.098 97.6121 29.8763C97.3843 29.6546 97.2036 29.3891 97.0808 29.0958C96.9581 28.8025 96.8958 28.4875 96.8978 28.1695ZM84.7925 28.1695C84.7872 27.8578 84.8434 27.548 84.9579 27.258C85.0723 26.9679 85.2427 26.7033 85.4594 26.4791C85.6761 26.255 85.9348 26.0757 86.2208 25.9516C86.5068 25.8275 86.8144 25.761 87.1261 25.7558C87.7567 25.7558 88.3617 26.0055 88.8089 26.4503C89.2561 26.8951 89.5091 27.4989 89.5126 28.1298C89.5126 28.4426 89.4508 28.7524 89.3307 29.0413C89.2106 29.3302 89.0346 29.5925 88.8128 29.8131C88.591 30.0337 88.3278 30.2083 88.0384 30.3269C87.7489 30.4454 87.4388 30.5055 87.1261 30.5037C86.5093 30.4969 85.9197 30.2487 85.4836 29.8125C85.0475 29.3762 84.7994 28.7865 84.7925 28.1695ZM72.674 28.1695C72.6687 27.8545 72.7262 27.5415 72.8431 27.2488C72.96 26.9562 73.134 26.6898 73.3549 26.4651C73.5758 26.2404 73.8392 26.062 74.1298 25.9402C74.4204 25.8184 74.7323 25.7557 75.0473 25.7558C75.3601 25.754 75.6701 25.8141 75.9596 25.9327C76.2491 26.0512 76.5123 26.2258 76.7341 26.4464C76.9559 26.667 77.1319 26.9293 77.252 27.2182C77.3721 27.5071 77.4339 27.8169 77.4339 28.1298C77.4357 28.4431 77.375 28.7537 77.2556 29.0434C77.1361 29.3331 76.9602 29.5961 76.738 29.8171C76.5159 30.0381 76.252 30.2126 75.9617 30.3305C75.6714 30.4484 75.3606 30.5073 75.0473 30.5037C74.4237 30.5073 73.824 30.2638 73.3793 29.8264C72.9346 29.389 72.681 28.7933 72.674 28.1695ZM60.5687 28.1695C60.5616 27.854 60.6179 27.5402 60.7341 27.2467C60.8504 26.9533 61.0243 26.6862 61.2455 26.4611C61.4668 26.2361 61.731 26.0577 62.0224 25.9365C62.3138 25.8154 62.6265 25.7539 62.9421 25.7558C63.2542 25.754 63.5636 25.8142 63.8523 25.9329C64.1411 26.0516 64.4034 26.2264 64.6242 26.4472C64.8449 26.668 65.0196 26.9304 65.1383 27.2192C65.2569 27.508 65.3171 27.8175 65.3153 28.1298C65.3171 28.442 65.2569 28.7515 65.1383 29.0403C65.0196 29.3291 64.8449 29.5915 64.6242 29.8123C64.4034 30.0331 64.1411 30.2079 63.8523 30.3266C63.5636 30.4453 63.2542 30.5055 62.9421 30.5037C62.3253 30.4969 61.7357 30.2487 61.2996 29.8125C60.8635 29.3762 60.6154 28.7865 60.6085 28.1695H60.5687ZM48.4502 28.1695C48.4537 27.5387 48.7067 26.9349 49.1539 26.4901C49.6011 26.0452 50.2061 25.7956 50.8368 25.7956C51.4662 25.7956 52.0699 26.0457 52.515 26.4909C52.9601 26.9361 53.2101 27.5399 53.2101 28.1695C53.2119 28.4824 53.1517 28.7925 53.0333 29.0821C52.9148 29.3717 52.7402 29.6349 52.5197 29.8568C52.2991 30.0786 52.0369 30.2547 51.7481 30.3748C51.4593 30.495 51.1496 30.5568 50.8368 30.5568C50.2049 30.5533 49.5999 30.3007 49.1531 29.8537C48.7062 29.4068 48.4537 28.8016 48.4502 28.1695ZM36.3449 28.1695C36.3397 27.8545 36.3971 27.5415 36.514 27.2488C36.6309 26.9562 36.8049 26.6898 37.0259 26.4651C37.2468 26.2404 37.5102 26.062 37.8008 25.9402C38.0913 25.8184 38.4032 25.7557 38.7182 25.7558C39.3489 25.7558 39.954 26.0055 40.4012 26.4503C40.8484 26.8951 41.1013 27.4989 41.1048 28.1298C41.1014 28.7595 40.8507 29.3628 40.4067 29.8093C39.9627 30.2559 39.3611 30.5101 38.7315 30.517C38.1054 30.5171 37.5043 30.2711 37.0579 29.8319C36.6114 29.3928 36.3554 28.7958 36.3449 28.1695ZM24.2397 28.1695C24.2326 27.854 24.2888 27.5402 24.4051 27.2467C24.5213 26.9533 24.6952 26.6862 24.9165 26.4611C25.1378 26.2361 25.4019 26.0577 25.6933 25.9365C25.9847 25.8154 26.2974 25.7539 26.613 25.7558C27.2436 25.7558 27.8487 26.0055 28.2959 26.4503C28.7431 26.8951 28.9961 27.4989 28.9996 28.1298C28.9961 28.7618 28.7435 29.367 28.2967 29.814C27.8499 30.2609 27.2449 30.5135 26.613 30.517C25.9881 30.517 25.3884 30.2706 24.9441 29.8311C24.4998 29.3916 24.2467 28.7946 24.2397 28.1695ZM12.1211 28.1695C12.1246 27.5387 12.3776 26.9349 12.8248 26.4901C13.272 26.0452 13.8771 25.7956 14.5077 25.7956C15.1326 25.8026 15.7294 26.0557 16.1688 26.5002C16.6082 26.9447 16.8546 27.5445 16.8545 28.1695C16.8545 28.8004 16.6049 29.4056 16.1602 29.8529C15.7155 30.3002 15.1119 30.5533 14.4812 30.5568C14.1695 30.5551 13.8613 30.4919 13.574 30.371C13.2867 30.2501 13.026 30.0738 12.8069 29.8521C12.5877 29.6304 12.4144 29.3677 12.2967 29.0791C12.179 28.7904 12.1194 28.4813 12.1211 28.1695Z" fill="#5F2DED"/>
<path d="M135.613 30.557C134.985 30.5502 134.382 30.3035 133.929 29.8673C133.489 29.4108 133.238 28.8041 133.227 28.1697C133.236 27.5388 133.487 26.9355 133.929 26.4854C134.389 26.0641 134.99 25.8304 135.613 25.8304C136.237 25.8304 136.837 26.0641 137.297 26.4854C137.735 26.9369 137.982 27.5403 137.986 28.1697C137.988 28.8002 137.74 29.4057 137.297 29.854C136.847 30.2962 136.244 30.548 135.613 30.557Z" fill="#5F2DED"/>
<path d="M2.40179 43.6469C1.77352 43.657 1.1656 43.4242 0.704667 42.9971C0.262614 42.5469 0.0109478 41.9437 0.00195312 41.3127C0.00818849 40.6812 0.260268 40.077 0.704667 39.6284C1.16145 39.2014 1.76331 38.9639 2.38852 38.9639C3.01373 38.9639 3.61558 39.2014 4.07237 39.6284C4.51553 40.0768 4.76341 40.6823 4.76185 41.3127C4.76341 41.9432 4.51553 42.5487 4.07237 42.9971C3.62107 43.4226 3.02192 43.6557 2.40179 43.6469Z" fill="#5F2DED"/>
<path d="M121.122 41.2729C121.122 40.642 121.372 40.0368 121.816 39.5895C122.261 39.1422 122.865 38.8891 123.495 38.8856C123.809 38.8838 124.12 38.9444 124.411 39.0637C124.701 39.1831 124.965 39.3589 125.187 39.5809C125.409 39.8029 125.584 40.0668 125.704 40.3572C125.823 40.6476 125.884 40.9589 125.882 41.2729C125.878 41.9037 125.625 42.5075 125.178 42.9523C124.731 43.3972 124.126 43.6468 123.495 43.6468C122.867 43.6434 122.265 43.3921 121.821 42.9477C121.377 42.5032 121.125 41.9014 121.122 41.2729ZM109.017 41.2729C109.013 40.9595 109.072 40.6486 109.19 40.3582C109.308 40.0679 109.482 39.8039 109.703 39.5817C109.924 39.3595 110.187 39.1835 110.477 39.064C110.766 38.9445 111.077 38.8838 111.39 38.8856C111.703 38.8856 112.013 38.9474 112.301 39.0676C112.59 39.1877 112.852 39.3638 113.073 39.5856C113.293 39.8075 113.468 40.0707 113.586 40.3603C113.705 40.6499 113.765 40.96 113.763 41.2729C113.763 41.5846 113.702 41.8933 113.583 42.1813C113.463 42.4694 113.289 42.7311 113.068 42.9515C112.848 43.172 112.586 43.3468 112.298 43.4661C112.01 43.5854 111.702 43.6468 111.39 43.6468C110.761 43.6468 110.157 43.3967 109.712 42.9515C109.267 42.5063 109.017 41.9025 109.017 41.2729ZM96.8981 41.2729C96.8964 40.9589 96.9569 40.6476 97.0762 40.3572C97.1955 40.0668 97.3713 39.8029 97.5932 39.5809C97.8152 39.3589 98.079 39.1831 98.3694 39.0637C98.6597 38.9444 98.9708 38.8838 99.2847 38.8856C99.602 38.8785 99.9174 38.9351 100.212 39.0521C100.507 39.169 100.776 39.344 101.002 39.5665C101.228 39.7891 101.408 40.0548 101.529 40.3478C101.651 40.6409 101.713 40.9555 101.711 41.2729C101.708 41.9014 101.456 42.5032 101.012 42.9477C100.568 43.3921 99.9661 43.6434 99.3377 43.6468C99.021 43.6539 98.7061 43.5978 98.4112 43.4818C98.1164 43.3658 97.8476 43.1923 97.6205 42.9713C97.3934 42.7503 97.2126 42.4863 97.0886 42.1947C96.9646 41.9031 96.8998 41.5897 96.8981 41.2729ZM84.7929 41.2729C84.7893 40.6478 85.0323 40.0465 85.4692 39.5996C85.9061 39.1526 86.5016 38.8961 87.1264 38.8856C87.7594 38.8856 88.3664 39.1371 88.814 39.5848C89.2616 40.0325 89.513 40.6397 89.513 41.2729C89.5095 41.9037 89.2565 42.5075 88.8093 42.9523C88.3621 43.3972 87.7571 43.6468 87.1264 43.6468C86.5039 43.6364 85.9104 43.3817 85.4739 42.9376C85.0374 42.4935 84.7928 41.8956 84.7929 41.2729ZM72.6744 41.2729C72.6744 40.642 72.924 40.0368 73.3687 39.5895C73.8134 39.1422 74.417 38.8891 75.0477 38.8856C75.3622 38.8839 75.674 38.9443 75.9651 39.0635C76.2561 39.1827 76.5208 39.3583 76.7438 39.5801C76.9668 39.802 77.1438 40.0657 77.2646 40.3562C77.3854 40.6467 77.4475 40.9582 77.4475 41.2729C77.4405 41.9049 77.1846 42.5087 76.7353 42.9531C76.286 43.3976 75.6796 43.6469 75.0477 43.6468C74.4193 43.6434 73.8176 43.3921 73.3733 42.9477C72.929 42.5032 72.6778 41.9014 72.6744 41.2729ZM60.6089 41.2729C60.6053 40.9595 60.6642 40.6486 60.7821 40.3582C60.8999 40.0679 61.0744 39.8039 61.2953 39.5817C61.5162 39.3595 61.7792 39.1835 62.0688 39.064C62.3584 38.9445 62.6689 38.8838 62.9822 38.8856C63.2955 38.8838 63.606 38.9445 63.8956 39.064C64.1852 39.1835 64.4481 39.3595 64.669 39.5817C64.89 39.8039 65.0645 40.0679 65.1823 40.3582C65.3002 40.6486 65.359 40.9595 65.3555 41.2729C65.3555 41.9025 65.1055 42.5063 64.6604 42.9515C64.2153 43.3967 63.6116 43.6468 62.9822 43.6468C62.6705 43.6468 62.3619 43.5854 62.074 43.4661C61.786 43.3468 61.5244 43.172 61.304 42.9515C61.0836 42.7311 60.9088 42.4694 60.7895 42.1813C60.6703 41.8933 60.6089 41.5846 60.6089 41.2729ZM48.4903 41.2729C48.4903 40.9594 48.5521 40.6489 48.672 40.3593C48.7919 40.0697 48.9677 39.8065 49.1894 39.5848C49.411 39.3631 49.674 39.1873 49.9636 39.0673C50.2532 38.9474 50.5635 38.8856 50.8769 38.8856C51.1897 38.8856 51.4994 38.9474 51.7882 39.0676C52.077 39.1877 52.3392 39.3638 52.5598 39.5856C52.7804 39.8075 52.9549 40.0707 53.0734 40.3603C53.1919 40.6499 53.252 40.96 53.2503 41.2729C53.2503 41.9025 53.0002 42.5063 52.5551 42.9515C52.11 43.3967 51.5064 43.6468 50.8769 43.6468C50.5613 43.6521 50.2477 43.5947 49.9545 43.4779C49.6612 43.3611 49.3939 43.1873 49.1683 42.9665C48.9426 42.7457 48.763 42.4823 48.6398 42.1916C48.5166 41.9009 48.4523 41.5886 48.4505 41.2729H48.4903ZM36.3851 41.2729C36.3833 40.96 36.4434 40.6499 36.5619 40.3603C36.6804 40.0707 36.8549 39.8075 37.0755 39.5856C37.2961 39.3638 37.5583 39.1877 37.8471 39.0676C38.1359 38.9474 38.4456 38.8856 38.7584 38.8856C39.0718 38.8856 39.3821 38.9474 39.6717 39.0673C39.9613 39.1873 40.2243 39.3631 40.446 39.5848C40.6676 39.8065 40.8434 40.0697 40.9633 40.3593C41.0832 40.6489 41.145 40.9594 41.145 41.2729C41.1415 41.9037 40.8885 42.5075 40.4413 42.9523C39.9941 43.3972 39.389 43.6468 38.7584 43.6468C38.4434 43.6521 38.1305 43.5946 37.8379 43.4777C37.5454 43.3607 37.279 43.1867 37.0544 42.9657C36.8298 42.7448 36.6514 42.4813 36.5297 42.1906C36.4079 41.9 36.3453 41.588 36.3453 41.2729H36.3851ZM24.2798 41.2729C24.2781 40.96 24.3381 40.6499 24.4566 40.3603C24.5751 40.0707 24.7497 39.8075 24.9702 39.5856C25.1908 39.3638 25.453 39.1877 25.7418 39.0676C26.0306 38.9474 26.3404 38.8856 26.6531 38.8856C26.9666 38.8856 27.2769 38.9474 27.5664 39.0673C27.856 39.1873 28.1191 39.3631 28.3407 39.5848C28.5623 39.8065 28.7381 40.0697 28.858 40.3593C28.978 40.6489 29.0397 40.9594 29.0397 41.2729C29.0362 41.9037 28.7832 42.5075 28.336 42.9523C27.8888 43.3972 27.2838 43.6468 26.6531 43.6468C26.3381 43.6521 26.0252 43.5946 25.7327 43.4777C25.4401 43.3607 25.1738 43.1867 24.9491 42.9657C24.7245 42.7448 24.5462 42.4813 24.4244 42.1906C24.3027 41.9 24.24 41.588 24.24 41.2729H24.2798ZM12.1745 41.2729C12.171 40.9595 12.2299 40.6486 12.3478 40.3582C12.4656 40.0679 12.6401 39.8039 12.861 39.5817C13.0819 39.3595 13.3449 39.1835 13.6345 39.064C13.9241 38.9445 14.2346 38.8838 14.5479 38.8856C15.1681 38.9029 15.7568 39.1625 16.188 39.6087C16.6192 40.0549 16.8586 40.6523 16.8549 41.2729C16.8549 41.9025 16.6048 42.5063 16.1597 42.9515C15.7147 43.3967 15.111 43.6468 14.4816 43.6468C13.8567 43.6399 13.2599 43.3867 12.8205 42.9422C12.3811 42.4977 12.1347 41.8979 12.1348 41.2729H12.1745Z" fill="#5F2DED"/>
<path d="M135.613 43.6469C134.989 43.6563 134.385 43.4234 133.929 42.9971C133.49 42.5454 133.238 41.9431 133.227 41.3127C133.233 40.6812 133.485 40.077 133.929 39.6284C134.386 39.2014 134.988 38.9639 135.613 38.9639C136.238 38.9639 136.84 39.2014 137.297 39.6284C137.739 40.0786 137.991 40.6818 138 41.3127C137.998 41.9451 137.745 42.5509 137.297 42.9971C136.842 43.4258 136.238 43.6591 135.613 43.6469Z" fill="#5F2DED"/>
<path d="M2.38896 55.5301C2.07663 55.5323 1.76695 55.4725 1.4779 55.3541C1.18885 55.2357 0.926194 55.0611 0.705107 54.8404C0.266742 54.3889 0.0196989 53.7855 0.015625 53.1561C0.017555 52.5302 0.265172 51.9301 0.705107 51.485C1.1604 51.0551 1.76282 50.8156 2.38896 50.8156C3.0151 50.8156 3.61752 51.0551 4.07281 51.485C4.51274 51.9301 4.76036 52.5302 4.76229 53.1561C4.761 53.786 4.51354 54.3905 4.07281 54.8404C3.85307 55.0629 3.59067 55.2387 3.30131 55.3572C3.01195 55.4758 2.70161 55.5345 2.38896 55.5301Z" fill="#5F2DED"/>
<path d="M121.122 53.1561C121.122 52.5265 121.372 51.9227 121.817 51.4775C122.262 51.0323 122.866 50.7821 123.495 50.7821C123.808 50.7804 124.118 50.8405 124.408 50.959C124.697 51.0776 124.96 51.2521 125.182 51.4728C125.404 51.6934 125.58 51.9557 125.7 52.2446C125.82 52.5335 125.882 52.8433 125.882 53.1561C125.884 53.4695 125.823 53.7801 125.704 54.0698C125.584 54.3595 125.408 54.6225 125.186 54.8435C124.964 55.0644 124.7 55.239 124.41 55.3569C124.12 55.4747 123.809 55.5336 123.495 55.5301C122.866 55.5301 122.262 55.28 121.817 54.8348C121.372 54.3896 121.122 53.7858 121.122 53.1561ZM109.017 53.1561C109.015 52.8433 109.075 52.5331 109.194 52.2436C109.312 51.954 109.487 51.6907 109.707 51.4689C109.928 51.247 110.19 51.071 110.479 50.9509C110.768 50.8307 111.077 50.7689 111.39 50.7689C112.021 50.7724 112.624 51.0255 113.069 51.4728C113.514 51.9201 113.763 52.5253 113.763 53.1561C113.765 53.4684 113.705 53.7779 113.586 54.0667C113.468 54.3555 113.293 54.6179 113.072 54.8387C112.852 55.0595 112.589 55.2343 112.3 55.353C112.012 55.4717 111.702 55.5319 111.39 55.5301C111.078 55.5319 110.769 55.4717 110.48 55.353C110.191 55.2343 109.929 55.0595 109.708 54.8387C109.487 54.6179 109.313 54.3555 109.194 54.0667C109.075 53.7779 109.015 53.4684 109.017 53.1561ZM96.8983 53.1561C96.8983 52.8426 96.96 52.5322 97.08 52.2426C97.1999 51.9529 97.3757 51.6898 97.5973 51.4681C97.8189 51.2464 98.082 51.0706 98.3716 50.9506C98.6611 50.8306 98.9715 50.7689 99.2849 50.7689C99.6016 50.7636 99.9162 50.8215 100.21 50.9391C100.505 51.0567 100.772 51.2317 100.998 51.4539C101.224 51.6761 101.403 51.941 101.526 52.2333C101.648 52.5255 101.711 52.8393 101.711 53.1561C101.711 53.7858 101.461 54.3896 101.016 54.8348C100.571 55.28 99.9673 55.5301 99.3379 55.5301C99.0202 55.5408 98.7037 55.4873 98.4072 55.3726C98.1107 55.2579 97.8405 55.0846 97.6127 54.8629C97.3848 54.6411 97.2041 54.3757 97.0813 54.0824C96.9586 53.7891 96.8963 53.4741 96.8983 53.1561ZM84.793 53.1561C84.7929 52.5321 85.037 51.9328 85.4732 51.4866C85.9094 51.0404 86.5029 50.7828 87.1266 50.7689C87.7585 50.7724 88.3635 51.025 88.8103 51.4719C89.2571 51.9189 89.5097 52.5241 89.5131 53.1561C89.5097 53.7882 89.2571 54.3934 88.8103 54.8403C88.3635 55.2873 87.7585 55.5399 87.1266 55.5434C86.5017 55.5329 85.9063 55.2764 85.4694 54.8294C85.0325 54.3825 84.7894 53.7812 84.793 53.1561ZM72.6745 53.1561C72.678 52.5241 72.9305 51.9189 73.3773 51.4719C73.8242 51.025 74.4292 50.7724 75.0611 50.7689C75.6917 50.7724 76.2954 51.0255 76.7401 51.4728C77.1848 51.9201 77.4344 52.5253 77.4344 53.1561C77.4362 53.469 77.376 53.7791 77.2575 54.0687C77.1391 54.3582 76.9646 54.6215 76.744 54.8434C76.5234 55.0652 76.2612 55.2413 75.9724 55.3614C75.6836 55.4815 75.3739 55.5434 75.0611 55.5434C74.4292 55.5399 73.8242 55.2873 73.3773 54.8403C72.9305 54.3934 72.678 53.7882 72.6745 53.1561ZM60.609 53.1561C60.6125 52.5241 60.8651 51.9189 61.3119 51.4719C61.7587 51.025 62.3637 50.7724 62.9956 50.7689C63.6275 50.7724 64.2325 51.025 64.6793 51.4719C65.1261 51.9189 65.3787 52.5241 65.3822 53.1561C65.3787 53.7882 65.1261 54.3934 64.6793 54.8403C64.2325 55.2873 63.6275 55.5399 62.9956 55.5434C62.3637 55.5399 61.7587 55.2873 61.3119 54.8403C60.8651 54.3934 60.6125 53.7882 60.609 53.1561ZM48.5037 53.1561C48.5072 52.5253 48.7602 51.9215 49.2074 51.4767C49.6546 51.0318 50.2597 50.7821 50.8903 50.7821C51.2025 50.7804 51.5119 50.8406 51.8006 50.9593C52.0894 51.078 52.3517 51.2528 52.5725 51.4736C52.7932 51.6943 52.9679 51.9568 53.0866 52.2456C53.2052 52.5344 53.2654 52.8439 53.2636 53.1561C53.2654 53.4684 53.2052 53.7779 53.0866 54.0667C52.9679 54.3555 52.7932 54.6179 52.5725 54.8387C52.3517 55.0595 52.0894 55.2343 51.8006 55.353C51.5119 55.4717 51.2025 55.5319 50.8903 55.5301C50.5736 55.5372 50.2586 55.4811 49.9638 55.3651C49.669 55.2491 49.4002 55.0756 49.1731 54.8546C48.946 54.6336 48.7652 54.3696 48.6412 54.078C48.5171 53.7864 48.4524 53.473 48.4507 53.1561H48.5037ZM36.3985 53.1561C36.3985 52.5253 36.6481 51.9201 37.0928 51.4728C37.5375 51.0255 38.1411 50.7724 38.7718 50.7689C39.4037 50.7724 40.0087 51.025 40.4555 51.4719C40.9023 51.9189 41.1549 52.5241 41.1584 53.1561C41.1601 53.4684 41.0999 53.7779 40.9813 54.0667C40.8627 54.3555 40.6879 54.6179 40.4672 54.8387C40.2464 55.0595 39.9841 55.2343 39.6954 55.353C39.4066 55.4717 39.0972 55.5319 38.7851 55.5301C38.4674 55.5408 38.1508 55.4873 37.8544 55.3726C37.5579 55.2579 37.2876 55.0846 37.0598 54.8629C36.832 54.6411 36.6512 54.3757 36.5285 54.0824C36.4057 53.7891 36.3435 53.4741 36.3455 53.1561H36.3985ZM24.2932 53.1561C24.2932 52.5265 24.5433 51.9227 24.9883 51.4775C25.4334 51.0323 26.0371 50.7821 26.6665 50.7821C27.2972 50.7821 27.9023 51.0318 28.3494 51.4767C28.7966 51.9215 29.0496 52.5253 29.0531 53.1561C29.0549 53.4695 28.9943 53.7801 28.8748 54.0698C28.7553 54.3595 28.5794 54.6225 28.3573 54.8435C28.1351 55.0644 27.8712 55.239 27.5809 55.3569C27.2907 55.4747 26.9798 55.5336 26.6665 55.5301C26.3499 55.539 26.0348 55.4841 25.7399 55.3686C25.445 55.2531 25.1763 55.0795 24.9499 54.858C24.7235 54.6364 24.544 54.3716 24.4221 54.0792C24.3001 53.7869 24.2383 53.4729 24.2402 53.1561H24.2932ZM12.188 53.1561C12.1862 52.8444 12.2459 52.5353 12.3635 52.2466C12.4812 51.9579 12.6545 51.6953 12.8737 51.4736C13.0928 51.2519 13.3535 51.0756 13.6408 50.9547C13.9281 50.8337 14.2364 50.7706 14.548 50.7689C15.1671 50.7895 15.7539 51.0501 16.1844 51.4956C16.6149 51.9411 16.8554 52.5365 16.855 53.1561C16.8568 53.4695 16.7962 53.7801 16.6767 54.0698C16.5572 54.3595 16.3813 54.6225 16.1592 54.8435C15.937 55.0644 15.6731 55.239 15.3828 55.3569C15.0926 55.4747 14.7817 55.5336 14.4685 55.5301C14.1592 55.5284 13.8532 55.4655 13.5683 55.3451C13.2834 55.2247 13.025 55.0491 12.8082 54.8285C12.5913 54.6079 12.4202 54.3466 12.3046 54.0596C12.1891 53.7725 12.1314 53.4655 12.1349 53.1561H12.188Z" fill="#5F2DED"/>
<path d="M135.613 55.53C135.301 55.5323 134.991 55.4724 134.702 55.3541C134.413 55.2357 134.15 55.0611 133.929 54.8404C133.487 54.3902 133.236 53.787 133.227 53.156C133.232 52.5283 133.484 51.9279 133.929 51.485C134.386 51.058 134.988 50.8204 135.613 50.8204C136.238 50.8204 136.84 51.058 137.297 51.485C137.735 51.9365 137.982 52.5399 137.986 53.1693C137.982 53.7987 137.735 54.4021 137.297 54.8536C137.076 55.0738 136.813 55.2471 136.524 55.3633C136.235 55.4795 135.925 55.5362 135.613 55.53Z" fill="#5F2DED"/>
<path d="M2.38919 68.6335C2.0756 68.6362 1.76472 68.5754 1.47531 68.4545C1.18589 68.3337 0.92396 68.1555 0.705344 67.9306C0.482043 67.712 0.30462 67.451 0.183498 67.1629C0.0623758 66.8748 0 66.5654 0 66.2529C0 65.9403 0.0623758 65.6309 0.183498 65.3429C0.30462 65.0548 0.482043 64.7938 0.705344 64.5752C1.03908 64.2428 1.46368 64.0166 1.92566 63.9251C2.38763 63.8336 2.86632 63.8809 3.3015 64.0609C3.73669 64.241 4.10887 64.5459 4.37121 64.9371C4.63355 65.3283 4.77434 65.7884 4.7758 66.2595C4.76752 66.8867 4.51545 67.486 4.07305 67.9306C3.62699 68.3787 3.0214 68.6315 2.38919 68.6335Z" fill="#5F2DED"/>
<path d="M121.122 66.2594C121.122 65.6286 121.371 65.0234 121.816 64.576C122.261 64.1287 122.864 63.8757 123.495 63.8722C123.809 63.8704 124.12 63.9309 124.41 64.0503C124.701 64.1696 124.964 64.3454 125.186 64.5674C125.408 64.7895 125.584 65.0533 125.703 65.3438C125.823 65.6342 125.883 65.9454 125.881 66.2594C125.878 66.8902 125.625 67.494 125.178 67.9389C124.731 68.3837 124.126 68.6334 123.495 68.6334C122.867 68.6299 122.265 68.3787 121.821 67.9342C121.376 67.4898 121.125 66.888 121.122 66.2594ZM109.016 66.2594C109.013 65.946 109.072 65.6351 109.19 65.3448C109.307 65.0544 109.482 64.7904 109.703 64.5682C109.924 64.346 110.187 64.17 110.476 64.0505C110.766 63.931 111.076 63.8704 111.39 63.8722C111.702 63.8722 112.012 63.934 112.301 64.0541C112.59 64.1743 112.852 64.3503 113.073 64.5722C113.293 64.794 113.468 65.0573 113.586 65.3468C113.705 65.6364 113.765 65.9465 113.763 66.2594C113.763 66.5712 113.702 66.8799 113.582 67.1679C113.463 67.4559 113.288 67.7176 113.068 67.9381C112.847 68.1585 112.586 68.3334 112.298 68.4527C112.01 68.572 111.701 68.6334 111.39 68.6334C111.077 68.6351 110.768 68.5749 110.479 68.4563C110.191 68.3376 109.928 68.1628 109.708 67.942C109.487 67.7212 109.312 67.4588 109.193 67.17C109.075 66.8811 109.015 66.5717 109.016 66.2594ZM96.8978 66.2594C96.896 65.9454 96.9565 65.6342 97.0759 65.3438C97.1952 65.0533 97.3709 64.7895 97.5929 64.5674C97.8148 64.3454 98.0787 64.1696 98.369 64.0503C98.6593 63.9309 98.9705 63.8704 99.2844 63.8722C99.6011 63.8669 99.9157 63.9247 100.21 64.0423C100.504 64.1599 100.772 64.3349 100.998 64.5571C101.224 64.7793 101.403 65.0443 101.525 65.3366C101.648 65.6288 101.711 65.9425 101.711 66.2594C101.707 66.888 101.456 67.4898 101.012 67.9342C100.567 68.3787 99.9658 68.6299 99.3374 68.6334C99.0207 68.6404 98.7057 68.5843 98.4109 68.4684C98.116 68.3524 97.8472 68.1788 97.6202 67.9579C97.3931 67.7369 97.2123 67.4729 97.0882 67.1813C96.9642 66.8897 96.8995 66.5763 96.8978 66.2594ZM84.7925 66.2594C84.7889 65.6343 85.032 65.0331 85.4689 64.5861C85.9058 64.1392 86.5012 63.8826 87.1261 63.8722C87.759 63.8722 88.3661 64.1237 88.8136 64.5714C89.2612 65.0191 89.5126 65.6263 89.5126 66.2594C89.5091 66.8902 89.2561 67.494 88.8089 67.9389C88.3617 68.3837 87.7567 68.6334 87.1261 68.6334C86.5035 68.623 85.91 68.3682 85.4735 67.9242C85.037 67.4801 84.7924 66.8822 84.7925 66.2594ZM72.674 66.2594C72.674 65.6286 72.9236 65.0234 73.3683 64.576C73.813 64.1287 74.4167 63.8757 75.0473 63.8722C75.3619 63.8704 75.6736 63.9309 75.9647 64.0501C76.2558 64.1692 76.5204 64.3448 76.7434 64.5667C76.9665 64.7885 77.1435 65.0523 77.2642 65.3428C77.385 65.6333 77.4472 65.9448 77.4472 66.2594C77.4402 66.8915 77.1842 67.4952 76.7349 67.9397C76.2856 68.3842 75.6792 68.6334 75.0473 68.6334C74.419 68.6299 73.8173 68.3787 73.3729 67.9342C72.9286 67.4898 72.6775 66.888 72.674 66.2594ZM60.5687 66.2594C60.567 65.9465 60.6271 65.6364 60.7455 65.3468C60.864 65.0573 61.0386 64.794 61.2591 64.5722C61.4797 64.3503 61.7419 64.1743 62.0308 64.0541C62.3196 63.934 62.6293 63.8722 62.9421 63.8722C63.2548 63.8722 63.5645 63.934 63.8534 64.0541C64.1422 64.1743 64.4044 64.3503 64.6249 64.5722C64.8455 64.794 65.02 65.0573 65.1385 65.3468C65.257 65.6364 65.3171 65.9465 65.3153 66.2594C65.3153 66.889 65.0653 67.4929 64.6202 67.9381C64.1752 68.3833 63.5715 68.6334 62.9421 68.6334C62.3195 68.623 61.726 68.3682 61.2895 67.9242C60.853 67.4801 60.6084 66.8822 60.6085 66.2594H60.5687ZM48.4502 66.2594C48.4502 65.6263 48.7016 65.0191 49.1492 64.5714C49.5968 64.1237 50.2038 63.8722 50.8368 63.8722C51.1496 63.8722 51.4593 63.934 51.7481 64.0541C52.0369 64.1743 52.2991 64.3503 52.5197 64.5722C52.7402 64.794 52.9148 65.0573 53.0333 65.3468C53.1517 65.6364 53.2119 65.9465 53.2101 66.2594C53.2101 66.889 52.9601 67.4929 52.515 67.9381C52.0699 68.3833 51.4662 68.6334 50.8368 68.6334C50.2061 68.6334 49.6011 68.3837 49.1539 67.9389C48.7067 67.494 48.4537 66.8902 48.4502 66.2594ZM36.3449 66.2594C36.3432 65.9454 36.4037 65.6342 36.523 65.3438C36.6423 65.0533 36.8181 64.7895 37.04 64.5674C37.262 64.3454 37.5258 64.1696 37.8161 64.0503C38.1065 63.9309 38.4176 63.8704 38.7315 63.8722C39.3622 63.8757 39.9658 64.1287 40.4105 64.576C40.8552 65.0234 41.1049 65.6286 41.1048 66.2594C41.1013 66.8902 40.8484 67.494 40.4012 67.9389C39.954 68.3837 39.3489 68.6334 38.7182 68.6334C38.0888 68.6334 37.4851 68.3833 37.0401 67.9381C36.595 67.4929 36.3449 66.889 36.3449 66.2594ZM24.2397 66.2594C24.2361 65.946 24.295 65.6351 24.4129 65.3448C24.5308 65.0544 24.7052 64.7904 24.9261 64.5682C25.147 64.346 25.4099 64.17 25.6996 64.0505C25.9892 63.931 26.2997 63.8704 26.613 63.8722C27.2459 63.8722 27.853 64.1237 28.3005 64.5714C28.7481 65.0191 28.9996 65.6263 28.9996 66.2594C28.9961 66.8902 28.7431 67.494 28.2959 67.9389C27.8487 68.3837 27.2436 68.6334 26.613 68.6334C25.9835 68.6334 25.3799 68.3833 24.9348 67.9381C24.4897 67.4929 24.2397 66.889 24.2397 66.2594ZM12.1211 66.2594C12.1194 65.9454 12.1799 65.6342 12.2992 65.3438C12.4185 65.0533 12.5943 64.7895 12.8162 64.5674C13.0382 64.3454 13.302 64.1696 13.5924 64.0503C13.8827 63.9309 14.1938 63.8704 14.5077 63.8722C15.1349 63.8792 15.7337 64.1342 16.1735 64.5815C16.6132 65.0288 16.8581 65.6321 16.8545 66.2594C16.8545 66.889 16.6045 67.4929 16.1594 67.9381C15.7143 68.3833 15.1106 68.6334 14.4812 68.6334C13.8551 68.6264 13.2569 68.3737 12.8154 67.9296C12.3739 67.4855 12.1246 66.8857 12.1211 66.2594Z" fill="#5F2DED"/>
<path d="M135.614 68.6334C135.146 68.6294 134.689 68.4877 134.301 68.2259C133.913 67.9642 133.61 67.5939 133.43 67.1613C133.251 66.7287 133.203 66.2528 133.291 65.793C133.38 65.3331 133.603 64.9095 133.93 64.5751C134.387 64.1481 134.989 63.9105 135.614 63.9105C136.239 63.9105 136.841 64.1481 137.298 64.5751C137.626 64.9095 137.848 65.3331 137.937 65.793C138.026 66.2528 137.978 66.7287 137.798 67.1613C137.619 67.5939 137.316 67.9642 136.928 68.2259C136.539 68.4877 136.082 68.6294 135.614 68.6334Z" fill="#5F2DED"/>
<path d="M2.40247 81.3389C1.76493 81.3312 1.15576 81.0741 0.705344 80.6227C0.482043 80.4041 0.30462 80.1431 0.183498 79.855C0.0623758 79.5669 0 79.2576 0 78.945C0 78.6325 0.0623758 78.3231 0.183498 78.035C0.30462 77.7469 0.482043 77.4859 0.705344 77.2673C1.16213 76.8403 1.76399 76.6028 2.38919 76.6028C3.0144 76.6028 3.61626 76.8403 4.07304 77.2673C4.51378 77.7173 4.76123 78.3217 4.76253 78.9517C4.7606 79.5776 4.51298 80.1777 4.07304 80.6227C3.62841 81.0666 3.03047 81.323 2.40247 81.3389Z" fill="#5F2DED"/>
<path d="M121.122 78.9517C121.122 78.3209 121.372 77.7157 121.816 77.2684C122.261 76.8211 122.865 76.568 123.495 76.5645C123.809 76.5627 124.12 76.6233 124.411 76.7426C124.701 76.862 124.965 77.0378 125.187 77.2598C125.409 77.4818 125.585 77.7457 125.704 78.0361C125.823 78.3265 125.884 78.6377 125.882 78.9517C125.879 79.5838 125.626 80.189 125.179 80.6359C124.732 81.0829 124.127 81.3355 123.495 81.339C122.866 81.332 122.264 81.0779 121.82 80.6313C121.376 80.1847 121.126 79.5815 121.122 78.9517ZM109.017 78.9517C109.017 78.3209 109.266 77.7157 109.711 77.2684C110.156 76.8211 110.759 76.568 111.39 76.5645C111.703 76.5645 112.013 76.6263 112.301 76.7465C112.59 76.8666 112.852 77.0426 113.073 77.2645C113.294 77.4863 113.468 77.7496 113.587 78.0392C113.705 78.3287 113.765 78.6389 113.763 78.9517C113.763 79.2635 113.702 79.5722 113.583 79.8602C113.464 80.1482 113.289 80.41 113.068 80.6304C112.848 80.8508 112.586 81.0257 112.298 81.145C112.01 81.2643 111.702 81.3257 111.39 81.3257C111.078 81.3275 110.769 81.2673 110.48 81.1486C110.191 81.0299 109.929 80.8551 109.708 80.6343C109.487 80.4135 109.313 80.1511 109.194 79.8623C109.075 79.5735 109.015 79.264 109.017 78.9517ZM96.8983 78.9517C96.8965 78.6377 96.9571 78.3265 97.0764 78.0361C97.1957 77.7457 97.3714 77.4818 97.5934 77.2598C97.8154 77.0378 98.0792 76.862 98.3695 76.7426C98.6599 76.6233 98.971 76.5627 99.2849 76.5645C99.9156 76.568 100.519 76.8211 100.964 77.2684C101.409 77.7157 101.658 78.3209 101.658 78.9517C101.658 79.5814 101.408 80.1852 100.963 80.6304C100.518 81.0756 99.9143 81.3257 99.2849 81.3257C98.9721 81.3275 98.6621 81.2674 98.3726 81.1488C98.0831 81.0303 97.8199 80.8557 97.5981 80.6351C97.3763 80.4145 97.2003 80.1522 97.0802 79.8633C96.9601 79.5744 96.8983 79.2646 96.8983 78.9517ZM84.793 78.9517C84.7913 78.6389 84.8514 78.3287 84.9699 78.0392C85.0884 77.7496 85.2629 77.4863 85.4835 77.2645C85.704 77.0426 85.9662 76.8666 86.2551 76.7465C86.5439 76.6263 86.8536 76.5645 87.1664 76.5645C87.7993 76.5645 88.4063 76.816 88.8539 77.2637C89.3015 77.7114 89.5529 78.3186 89.5529 78.9517C89.5494 79.5838 89.2969 80.189 88.8501 80.6359C88.4033 81.0829 87.7982 81.3355 87.1664 81.339C86.5357 81.3355 85.9321 81.0824 85.4874 80.6351C85.0426 80.1878 84.793 79.5826 84.793 78.9517ZM72.6745 78.9517C72.6745 78.3209 72.9241 77.7157 73.3688 77.2684C73.8135 76.8211 74.4172 76.568 75.0478 76.5645C75.3611 76.5627 75.6716 76.6233 75.9612 76.7428C76.2509 76.8624 76.5138 77.0383 76.7347 77.2605C76.9556 77.4828 77.1301 77.7467 77.2479 78.0371C77.3658 78.3275 77.4247 78.6384 77.4211 78.9517C77.4247 79.2645 77.3657 79.5748 77.2477 79.8644C77.1297 80.154 76.955 80.4172 76.7339 80.6383C76.5128 80.8595 76.2498 81.0342 75.9602 81.1523C75.6707 81.2703 75.3605 81.3293 75.0478 81.3257C74.4184 81.3257 73.8147 81.0756 73.3696 80.6304C72.9245 80.1852 72.6745 79.5814 72.6745 78.9517ZM60.5692 78.9517C60.5657 78.6384 60.6246 78.3275 60.7425 78.0371C60.8603 77.7467 61.0348 77.4828 61.2557 77.2605C61.4766 77.0383 61.7396 76.8624 62.0292 76.7428C62.3188 76.6233 62.6293 76.5627 62.9426 76.5645C63.2559 76.5627 63.5664 76.6233 63.856 76.7428C64.1456 76.8624 64.4085 77.0383 64.6294 77.2605C64.8503 77.4828 65.0248 77.7467 65.1427 78.0371C65.2605 78.3275 65.3194 78.6384 65.3159 78.9517C65.3176 79.264 65.2575 79.5735 65.1388 79.8623C65.0202 80.1511 64.8454 80.4135 64.6247 80.6343C64.4039 80.8551 64.1416 81.0299 63.8529 81.1486C63.5641 81.2673 63.2547 81.3275 62.9426 81.3257C62.319 81.3187 61.7234 81.0651 61.2862 80.6203C60.8489 80.1754 60.6055 79.5756 60.609 78.9517H60.5692ZM48.4507 78.9517C48.4489 78.6384 48.5095 78.3278 48.629 78.0381C48.7485 77.7484 48.9244 77.4854 49.1466 77.2644C49.3687 77.0434 49.6326 76.8689 49.9229 76.751C50.2132 76.6331 50.524 76.5742 50.8373 76.5778C51.1495 76.576 51.4588 76.6362 51.7476 76.7549C52.0363 76.8736 52.2987 77.0484 52.5194 77.2692C52.7401 77.49 52.9149 77.7524 53.0335 78.0412C53.1522 78.33 53.2124 78.6395 53.2106 78.9517C53.2106 79.5814 52.9606 80.1852 52.5155 80.6304C52.0704 81.0756 51.4667 81.3257 50.8373 81.3257C50.2066 81.3257 49.6016 81.076 49.1544 80.6312C48.7072 80.1864 48.4542 79.5826 48.4507 78.9517ZM36.3455 78.9517C36.3455 78.3209 36.5951 77.7157 37.0398 77.2684C37.4845 76.8211 38.0881 76.568 38.7188 76.5645C39.3517 76.5645 39.9588 76.816 40.4063 77.2637C40.8539 77.7114 41.1054 78.3186 41.1054 78.9517C41.1054 79.5814 40.8553 80.1852 40.4102 80.6304C39.9651 81.0756 39.3615 81.3257 38.732 81.3257C38.4188 81.3292 38.1079 81.2704 37.8177 81.1525C37.5274 81.0346 37.2634 80.86 37.0413 80.6391C36.8191 80.4181 36.6432 80.1551 36.5237 79.8654C36.4043 79.5757 36.3437 79.2651 36.3455 78.9517ZM24.2402 78.9517C24.2367 78.6384 24.2956 78.3275 24.4134 78.0371C24.5313 77.7467 24.7057 77.4828 24.9266 77.2605C25.1475 77.0383 25.4105 76.8624 25.7001 76.7428C25.9897 76.6233 26.3002 76.5627 26.6135 76.5645C27.2464 76.5645 27.8535 76.816 28.3011 77.2637C28.7486 77.7114 29.0001 78.3186 29.0001 78.9517C28.9966 79.5826 28.7436 80.1864 28.2964 80.6312C27.8492 81.076 27.2442 81.3257 26.6135 81.3257C26.3013 81.3275 25.9919 81.2673 25.7032 81.1486C25.4145 81.0299 25.1521 80.8551 24.9314 80.6343C24.7106 80.4135 24.5359 80.1511 24.4173 79.8623C24.2986 79.5735 24.2384 79.264 24.2402 78.9517ZM12.1349 78.9517C12.1314 78.6384 12.1903 78.3275 12.3081 78.0371C12.426 77.7467 12.6005 77.4828 12.8214 77.2605C13.0423 77.0383 13.3052 76.8624 13.5948 76.7428C13.8845 76.6233 14.195 76.5627 14.5082 76.5645C14.821 76.5645 15.1307 76.6263 15.4195 76.7465C15.7084 76.8666 15.9706 77.0426 16.1911 77.2645C16.4117 77.4863 16.5862 77.7496 16.7047 78.0392C16.8232 78.3287 16.8833 78.6389 16.8815 78.9517C16.8833 79.264 16.8231 79.5735 16.7045 79.8623C16.5858 80.1511 16.4111 80.4135 16.1904 80.6343C15.9696 80.8551 15.7073 81.0299 15.4185 81.1486C15.1298 81.2673 14.8204 81.3275 14.5082 81.3257C14.1961 81.3275 13.8867 81.2673 13.5979 81.1486C13.3092 81.0299 13.0469 80.8551 12.8261 80.6343C12.6054 80.4135 12.4306 80.1511 12.312 79.8623C12.1933 79.5735 12.1332 79.264 12.1349 78.9517Z" fill="#5F2DED"/>
<path d="M135.614 81.339C134.982 81.3251 134.379 81.0687 133.93 80.6228C133.485 80.1799 133.233 79.5796 133.227 78.9518C133.203 78.6242 133.246 78.2951 133.355 77.9851C133.463 77.6751 133.635 77.3908 133.858 77.15C134.081 76.9092 134.352 76.7172 134.653 76.5858C134.954 76.4545 135.279 76.3867 135.607 76.3867C135.936 76.3867 136.261 76.4545 136.562 76.5858C136.863 76.7172 137.133 76.9092 137.357 77.15C137.58 77.3908 137.751 77.6751 137.86 77.9851C137.968 78.2951 138.012 78.6242 137.987 78.9518C137.985 79.5777 137.738 80.1778 137.298 80.6228C136.853 81.0746 136.248 81.3321 135.614 81.339Z" fill="#5F2DED"/>
<path d="M2.3896 94.4157C1.92136 94.4117 1.46463 94.27 1.07631 94.0083C0.687987 93.7465 0.385253 93.3763 0.205755 92.9437C0.0262569 92.5111 -0.0220597 92.0352 0.066847 91.5753C0.155754 91.1154 0.377951 90.6919 0.705751 90.3574C1.16253 89.9304 1.76439 89.6929 2.3896 89.6929C3.01481 89.6929 3.61667 89.9304 4.07345 90.3574C4.40767 90.6895 4.63557 91.1135 4.7281 91.5755C4.82062 92.0375 4.7736 92.5166 4.59303 92.9518C4.41246 93.387 4.10649 93.7586 3.7141 94.0193C3.32172 94.28 2.86065 94.418 2.3896 94.4157Z" fill="#5F2DED"/>
<path d="M121.122 92.0682C121.122 91.4374 121.372 90.8322 121.816 90.3849C122.261 89.9376 122.865 89.6845 123.495 89.681C124.128 89.681 124.735 89.9325 125.183 90.3802C125.63 90.8279 125.882 91.4351 125.882 92.0682C125.882 92.3811 125.82 92.6909 125.7 92.9798C125.58 93.2687 125.404 93.531 125.182 93.7516C124.96 93.9722 124.697 94.1468 124.408 94.2653C124.118 94.3839 123.808 94.444 123.495 94.4422C122.866 94.4422 122.262 94.1921 121.817 93.7469C121.372 93.3017 121.122 92.6979 121.122 92.0682ZM109.017 92.0682C109.015 91.7554 109.075 91.4452 109.194 91.1557C109.312 90.8661 109.487 90.6029 109.707 90.381C109.928 90.1592 110.19 89.9831 110.479 89.863C110.768 89.7428 111.077 89.681 111.39 89.681C112.021 89.6845 112.624 89.9376 113.069 90.3849C113.514 90.8322 113.763 91.4374 113.763 92.0682C113.765 92.3805 113.705 92.69 113.586 92.9788C113.468 93.2676 113.293 93.53 113.072 93.7508C112.851 93.9716 112.589 94.1464 112.3 94.2651C112.012 94.3838 111.702 94.444 111.39 94.4422C110.761 94.4422 110.157 94.1921 109.712 93.7469C109.267 93.3017 109.017 92.6979 109.017 92.0682ZM96.8982 92.0682C96.8982 91.7547 96.9599 91.4443 97.0799 91.1547C97.1998 90.865 97.3756 90.6019 97.5972 90.3802C97.8188 90.1585 98.0819 89.9827 98.3715 89.8627C98.661 89.7427 98.9714 89.681 99.2848 89.681C99.6015 89.6757 99.9161 89.7336 100.21 89.8512C100.504 89.9688 100.772 90.1438 100.998 90.366C101.224 90.5882 101.403 90.8531 101.526 91.1454C101.648 91.4377 101.711 91.7514 101.711 92.0682C101.711 92.6979 101.461 93.3017 101.016 93.7469C100.571 94.1921 99.9672 94.4422 99.3378 94.4422C99.0201 94.453 98.7035 94.3994 98.4071 94.2847C98.1106 94.17 97.8404 93.9967 97.6125 93.775C97.3847 93.5533 97.204 93.2878 97.0812 92.9945C96.9585 92.7012 96.8962 92.3862 96.8982 92.0682ZM84.7929 92.0682C84.7929 91.4374 85.0425 90.8322 85.4872 90.3849C85.9319 89.9376 86.5356 89.6845 87.1662 89.681C87.7981 89.6845 88.4031 89.9371 88.85 90.3841C89.2968 90.831 89.5493 91.4362 89.5528 92.0682C89.5493 92.6991 89.2963 93.3029 88.8491 93.7477C88.4019 94.1925 87.7969 94.4422 87.1662 94.4422C86.5368 94.4422 85.9331 94.1921 85.488 93.7469C85.043 93.3017 84.7929 92.6979 84.7929 92.0682ZM72.6744 92.0682C72.6744 91.4374 72.924 90.8322 73.3687 90.3849C73.8134 89.9376 74.4171 89.6845 75.0477 89.681C75.3611 89.681 75.6715 89.7427 75.961 89.8627C76.2506 89.9827 76.5136 90.1585 76.7353 90.3802C76.9569 90.6019 77.1327 90.865 77.2526 91.1547C77.3726 91.4443 77.4343 91.7547 77.4343 92.0682C77.4343 92.3811 77.3725 92.6909 77.2524 92.9798C77.1323 93.2687 76.9563 93.531 76.7345 93.7516C76.5127 93.9722 76.2495 94.1468 75.96 94.2653C75.6705 94.3839 75.3605 94.444 75.0477 94.4422C74.4183 94.4422 73.8146 94.1921 73.3695 93.7469C72.9244 93.3017 72.6744 92.6979 72.6744 92.0682ZM60.6089 92.0682C60.6089 91.4374 60.8585 90.8322 61.3032 90.3849C61.7479 89.9376 62.3516 89.6845 62.9822 89.681C63.295 89.681 63.6047 89.7428 63.8935 89.863C64.1823 89.9831 64.4446 90.1592 64.6651 90.381C64.8857 90.6029 65.0602 90.8661 65.1787 91.1557C65.2972 91.4452 65.3573 91.7554 65.3555 92.0682C65.3555 92.6979 65.1055 93.3017 64.6604 93.7469C64.2153 94.1921 63.6117 94.4422 62.9822 94.4422C62.6706 94.4422 62.362 94.3808 62.074 94.2615C61.7861 94.1422 61.5244 93.9673 61.304 93.7469C61.0837 93.5265 60.9088 93.2648 60.7896 92.9767C60.6703 92.6887 60.6089 92.38 60.6089 92.0682ZM48.4904 92.0682C48.4938 91.4362 48.7464 90.831 49.1932 90.3841C49.64 89.9371 50.2451 89.6845 50.877 89.681C51.5076 89.6845 52.1112 89.9376 52.556 90.3849C53.0007 90.8322 53.2503 91.4374 53.2503 92.0682C53.2503 92.6979 53.0002 93.3017 52.5551 93.7469C52.1101 94.1921 51.5064 94.4422 50.877 94.4422C50.5613 94.4475 50.2478 94.3901 49.9545 94.2733C49.6612 94.1565 49.394 93.9827 49.1683 93.7619C48.9426 93.5411 48.763 93.2777 48.6398 92.987C48.5166 92.6963 48.4523 92.384 48.4506 92.0682H48.4904ZM36.3851 92.0682C36.3851 91.4374 36.6347 90.8322 37.0794 90.3849C37.5241 89.9376 38.1278 89.6845 38.7584 89.681C39.3903 89.6845 39.9953 89.9371 40.4421 90.3841C40.889 90.831 41.1415 91.4362 41.145 92.0682C41.145 92.6979 40.895 93.3017 40.4499 93.7469C40.0048 94.1921 39.4011 94.4422 38.7717 94.4422C38.4556 94.4493 38.1413 94.3931 37.8472 94.277C37.5531 94.1608 37.2851 93.9871 37.0591 93.7659C36.8331 93.5448 36.6535 93.2807 36.5309 92.9891C36.4083 92.6976 36.3453 92.3845 36.3453 92.0682H36.3851ZM24.2799 92.0682C24.2781 91.7554 24.3382 91.4452 24.4567 91.1557C24.5752 90.8661 24.7497 90.6029 24.9703 90.381C25.1908 90.1592 25.453 89.9831 25.7418 89.863C26.0307 89.7428 26.3404 89.681 26.6532 89.681C27.2851 89.6845 27.8901 89.9371 28.3369 90.3841C28.7837 90.831 29.0363 91.4362 29.0397 92.0682C29.0398 92.3811 28.9779 92.6909 28.8578 92.9798C28.7377 93.2687 28.5617 93.531 28.3399 93.7516C28.1182 93.9722 27.8549 94.1468 27.5655 94.2653C27.276 94.3839 26.966 94.444 26.6532 94.4422C26.3377 94.4493 26.024 94.3931 25.7306 94.2768C25.4373 94.1605 25.1702 93.9865 24.9452 93.7652C24.7202 93.5439 24.5419 93.2796 24.4208 92.9882C24.2997 92.6967 24.2382 92.3839 24.2401 92.0682H24.2799ZM12.1746 92.0682C12.1728 91.7554 12.2329 91.4452 12.3514 91.1557C12.4699 90.8661 12.6444 90.6029 12.865 90.381C13.0855 90.1592 13.3478 89.9831 13.6366 89.863C13.9254 89.7428 14.2351 89.681 14.5479 89.681C15.167 89.7016 15.7538 89.9622 16.1843 90.4077C16.6148 90.8532 16.8553 91.4487 16.8549 92.0682C16.8549 92.6979 16.6049 93.3017 16.1598 93.7469C15.7147 94.1921 15.111 94.4422 14.4816 94.4422C14.1717 94.4405 13.8651 94.3777 13.5794 94.2575C13.2938 94.1372 13.0346 93.9619 12.8167 93.7414C12.5988 93.521 12.4264 93.2598 12.3094 92.9727C12.1924 92.6856 12.1331 92.3783 12.1348 92.0682H12.1746Z" fill="#5F2DED"/>
<path d="M135.613 94.4158C134.983 94.4145 134.379 94.167 133.929 93.7261C133.487 93.2759 133.236 92.6727 133.227 92.0418C133.233 91.4103 133.485 90.8061 133.929 90.3574C134.388 89.9333 134.989 89.6978 135.613 89.6978C136.237 89.6978 136.839 89.9333 137.297 90.3574C137.741 90.8061 137.993 91.4103 138 92.0418C137.991 92.6727 137.739 93.2759 137.297 93.7261C136.847 94.167 136.243 94.4145 135.613 94.4158Z" fill="#5F2DED"/>
<path d="M2.3896 108.354C1.92136 108.35 1.46463 108.209 1.07631 107.947C0.687987 107.685 0.385253 107.315 0.205755 106.882C0.0262569 106.45 -0.0220597 105.974 0.066847 105.514C0.155754 105.054 0.377951 104.631 0.705751 104.296C1.0377 103.962 1.46159 103.734 1.92347 103.641C2.38535 103.549 2.86433 103.596 3.2994 103.776C3.73448 103.957 4.10598 104.263 4.3666 104.656C4.62723 105.048 4.7652 105.509 4.76293 105.98C4.75959 106.606 4.51219 107.206 4.07345 107.652C3.85302 107.874 3.59075 108.051 3.30175 108.171C3.01275 108.292 2.70276 108.354 2.3896 108.354Z" fill="#5F2DED"/>
<path d="M121.122 105.981C121.122 105.35 121.372 104.744 121.816 104.297C122.261 103.85 122.865 103.597 123.495 103.593C123.809 103.592 124.12 103.652 124.411 103.771C124.701 103.891 124.965 104.067 125.187 104.289C125.409 104.511 125.585 104.774 125.704 105.065C125.823 105.355 125.884 105.667 125.882 105.981C125.882 106.293 125.82 106.603 125.7 106.892C125.58 107.181 125.404 107.443 125.182 107.664C124.96 107.885 124.697 108.059 124.408 108.178C124.118 108.296 123.808 108.356 123.495 108.355C122.866 108.355 122.262 108.104 121.817 107.659C121.372 107.214 121.122 106.61 121.122 105.981ZM109.017 105.981C109.015 105.668 109.075 105.358 109.194 105.068C109.312 104.778 109.487 104.515 109.707 104.293C109.928 104.071 110.19 103.895 110.479 103.775C110.768 103.655 111.077 103.593 111.39 103.593C111.703 103.593 112.013 103.655 112.301 103.775C112.59 103.895 112.852 104.071 113.073 104.293C113.294 104.515 113.468 104.778 113.587 105.068C113.705 105.358 113.765 105.668 113.763 105.981C113.763 106.292 113.702 106.601 113.583 106.889C113.464 107.177 113.289 107.439 113.068 107.659C112.848 107.88 112.586 108.055 112.298 108.174C112.01 108.293 111.702 108.355 111.39 108.355C110.761 108.355 110.157 108.104 109.712 107.659C109.267 107.214 109.017 106.61 109.017 105.981ZM96.8983 105.981C96.8965 105.667 96.9571 105.355 97.0764 105.065C97.1957 104.774 97.3714 104.511 97.5934 104.289C97.8154 104.067 98.0792 103.891 98.3695 103.771C98.6599 103.652 98.971 103.592 99.2849 103.593C99.9156 103.597 100.519 103.85 100.964 104.297C101.409 104.744 101.658 105.35 101.658 105.981C101.658 106.61 101.408 107.214 100.963 107.659C100.518 108.104 99.9143 108.355 99.2849 108.355C98.9721 108.356 98.6621 108.296 98.3726 108.178C98.0831 108.059 97.8199 107.885 97.5981 107.664C97.3763 107.443 97.2003 107.181 97.0802 106.892C96.9601 106.603 96.8983 106.293 96.8983 105.981ZM84.793 105.981C84.7913 105.668 84.8514 105.358 84.9699 105.068C85.0884 104.778 85.2629 104.515 85.4835 104.293C85.704 104.071 85.9662 103.895 86.2551 103.775C86.5439 103.655 86.8536 103.593 87.1664 103.593C87.7993 103.593 88.4063 103.845 88.8539 104.293C89.3015 104.74 89.5529 105.347 89.5529 105.981C89.553 106.297 89.4899 106.61 89.3674 106.901C89.2448 107.193 89.0652 107.457 88.8392 107.678C88.6131 107.899 88.3452 108.073 88.0511 108.189C87.757 108.305 87.4427 108.362 87.1266 108.355C86.5041 108.344 85.9106 108.089 85.474 107.645C85.0375 107.201 84.7929 106.603 84.793 105.981ZM72.6877 105.981C72.686 105.669 72.7457 105.36 72.8633 105.071C72.981 104.782 73.1544 104.52 73.3735 104.298C73.5927 104.076 73.8533 103.9 74.1406 103.779C74.4279 103.658 74.7362 103.595 75.0478 103.593C75.3624 103.592 75.6741 103.652 75.9652 103.771C76.2563 103.89 76.5209 104.066 76.744 104.288C76.967 104.51 77.144 104.773 77.2647 105.064C77.3855 105.354 77.4477 105.666 77.4477 105.981C77.4459 106.294 77.3825 106.604 77.2609 106.893C77.1394 107.182 76.9622 107.444 76.7393 107.665C76.5165 107.885 76.2524 108.06 75.9621 108.178C75.6719 108.296 75.3613 108.356 75.0478 108.355C74.7368 108.355 74.4288 108.293 74.1416 108.174C73.8544 108.054 73.5936 107.879 73.3743 107.658C73.155 107.438 72.9814 107.176 72.8636 106.888C72.7458 106.6 72.686 106.292 72.6877 105.981ZM60.5692 105.981C60.5675 105.668 60.6276 105.358 60.7461 105.068C60.8645 104.778 61.0391 104.515 61.2597 104.293C61.4802 104.071 61.7425 103.895 62.0313 103.775C62.3201 103.655 62.6298 103.593 62.9426 103.593C63.2559 103.592 63.5664 103.652 63.856 103.772C64.1456 103.891 64.4085 104.067 64.6294 104.289C64.8503 104.512 65.0248 104.776 65.1427 105.066C65.2605 105.356 65.3194 105.667 65.3159 105.981C65.3176 106.293 65.2575 106.602 65.1388 106.891C65.0202 107.18 64.8454 107.442 64.6247 107.663C64.4039 107.884 64.1416 108.059 63.8529 108.177C63.5641 108.296 63.2547 108.356 62.9426 108.355C62.319 108.348 61.7234 108.094 61.2862 107.649C60.8489 107.204 60.6055 106.604 60.609 105.981H60.5692ZM48.4507 105.981C48.4507 105.347 48.7022 104.74 49.1497 104.293C49.5973 103.845 50.2043 103.593 50.8373 103.593C51.1501 103.593 51.4598 103.655 51.7486 103.775C52.0374 103.895 52.2996 104.071 52.5202 104.293C52.7407 104.515 52.9153 104.778 53.0338 105.068C53.1523 105.358 53.2124 105.668 53.2106 105.981C53.2106 106.61 52.9606 107.214 52.5155 107.659C52.0704 108.104 51.4667 108.355 50.8373 108.355C50.2066 108.355 49.6016 108.105 49.1544 107.66C48.7072 107.215 48.4542 106.611 48.4507 105.981ZM36.3455 105.981C36.3455 105.35 36.5951 104.744 37.0398 104.297C37.4845 103.85 38.0881 103.597 38.7188 103.593C39.3517 103.593 39.9588 103.845 40.4063 104.293C40.8539 104.74 41.1054 105.347 41.1054 105.981C41.1054 106.61 40.8553 107.214 40.4102 107.659C39.9651 108.104 39.3615 108.355 38.732 108.355C38.1014 108.355 37.4963 108.105 37.0491 107.66C36.602 107.215 36.349 106.611 36.3455 105.981ZM24.2402 105.981C24.2367 105.667 24.2956 105.356 24.4134 105.066C24.5313 104.776 24.7057 104.512 24.9266 104.289C25.1475 104.067 25.4105 103.891 25.7001 103.772C25.9897 103.652 26.3002 103.592 26.6135 103.593C27.2464 103.593 27.8535 103.845 28.3011 104.293C28.7486 104.74 29.0001 105.347 29.0001 105.981C28.9966 106.611 28.7436 107.215 28.2964 107.66C27.8492 108.105 27.2442 108.355 26.6135 108.355C25.984 108.355 25.3804 108.104 24.9353 107.659C24.4902 107.214 24.2402 106.61 24.2402 105.981ZM12.1349 105.981C12.1314 105.667 12.1903 105.356 12.3081 105.066C12.426 104.776 12.6005 104.512 12.8214 104.289C13.0423 104.067 13.3052 103.891 13.5948 103.772C13.8845 103.652 14.195 103.592 14.5082 103.593C14.821 103.593 15.1307 103.655 15.4195 103.775C15.7084 103.895 15.9706 104.071 16.1911 104.293C16.4117 104.515 16.5862 104.778 16.7047 105.068C16.8232 105.358 16.8833 105.668 16.8815 105.981C16.8815 106.61 16.6315 107.214 16.1864 107.659C15.7413 108.104 15.1377 108.355 14.5082 108.355C14.1961 108.356 13.8867 108.296 13.5979 108.177C13.3092 108.059 13.0469 107.884 12.8261 107.663C12.6054 107.442 12.4306 107.18 12.312 106.891C12.1933 106.602 12.1332 106.293 12.1349 105.981Z" fill="#5F2DED"/>
<path d="M135.614 108.355C135.301 108.354 134.991 108.292 134.702 108.171C134.413 108.051 134.15 107.874 133.93 107.652C133.707 107.433 133.529 107.172 133.408 106.884C133.287 106.596 133.225 106.286 133.225 105.974C133.225 105.661 133.287 105.352 133.408 105.064C133.529 104.776 133.707 104.515 133.93 104.296C134.264 103.964 134.688 103.738 135.15 103.646C135.612 103.555 136.091 103.602 136.526 103.782C136.961 103.962 137.334 104.267 137.596 104.658C137.858 105.049 137.999 105.509 138 105.981C137.992 106.608 137.74 107.207 137.298 107.652C137.077 107.874 136.815 108.051 136.526 108.171C136.237 108.292 135.927 108.354 135.614 108.355Z" fill="#5F2DED"/>
<path d="M2.38894 121.458C1.918 121.456 1.45802 121.316 1.06691 121.053C0.675795 120.791 0.371042 120.418 0.191016 119.983C0.0109898 119.548 -0.0362544 119.069 0.0552235 118.607C0.146701 118.145 0.372811 117.72 0.705093 117.386C1.16476 116.965 1.76553 116.731 2.38894 116.731C3.01236 116.731 3.61313 116.965 4.07279 117.386C4.40508 117.72 4.63123 118.145 4.7227 118.607C4.81418 119.069 4.76694 119.548 4.58691 119.983C4.40689 120.418 4.10209 120.791 3.71098 121.053C3.31986 121.316 2.85989 121.456 2.38894 121.458Z" fill="#5F2DED"/>
<path d="M121.122 119.071C121.122 118.441 121.372 117.837 121.817 117.392C122.262 116.947 122.866 116.697 123.495 116.697C123.808 116.695 124.118 116.755 124.408 116.874C124.697 116.992 124.96 117.167 125.182 117.387C125.404 117.608 125.58 117.87 125.7 118.159C125.82 118.448 125.882 118.758 125.882 119.071C125.882 119.704 125.631 120.311 125.183 120.759C124.735 121.206 124.128 121.458 123.495 121.458C122.865 121.454 122.261 121.201 121.816 120.754C121.372 120.307 121.122 119.701 121.122 119.071ZM109.017 119.071C109.017 118.441 109.267 117.837 109.712 117.392C110.157 116.947 110.761 116.697 111.39 116.697C111.702 116.697 112.01 116.758 112.298 116.877C112.586 116.997 112.848 117.172 113.068 117.392C113.289 117.612 113.464 117.874 113.583 118.162C113.702 118.45 113.763 118.759 113.763 119.071C113.763 119.701 113.514 120.307 113.069 120.754C112.624 121.201 112.021 121.454 111.39 121.458C111.077 121.458 110.768 121.396 110.479 121.276C110.19 121.156 109.928 120.98 109.707 120.758C109.487 120.536 109.312 120.273 109.194 119.983C109.075 119.694 109.015 119.384 109.017 119.071ZM96.8983 119.071C96.8983 118.758 96.9601 118.448 97.0802 118.159C97.2003 117.87 97.3763 117.608 97.5981 117.387C97.8199 117.167 98.0831 116.992 98.3726 116.874C98.6621 116.755 98.9721 116.695 99.2849 116.697C99.601 116.69 99.9153 116.746 100.209 116.862C100.503 116.978 100.771 117.152 100.997 117.373C101.224 117.594 101.403 117.858 101.526 118.15C101.648 118.441 101.711 118.754 101.711 119.071C101.711 119.701 101.462 120.307 101.017 120.754C100.572 121.201 99.9686 121.454 99.3379 121.458C99.0201 121.465 98.704 121.408 98.4083 121.292C98.1126 121.175 97.8432 121 97.616 120.778C97.3887 120.555 97.2081 120.29 97.0849 119.997C96.9617 119.703 96.8982 119.389 96.8983 119.071ZM84.793 119.071C84.7929 118.448 85.0375 117.85 85.474 117.406C85.9106 116.962 86.5041 116.707 87.1266 116.697C87.7572 116.697 88.3623 116.946 88.8095 117.391C89.2566 117.836 89.5096 118.44 89.5131 119.071C89.5097 119.703 89.2571 120.308 88.8103 120.755C88.3635 121.202 87.7585 121.454 87.1266 121.458C86.5029 121.444 85.9094 121.186 85.4732 120.74C85.037 120.294 84.7929 119.695 84.793 119.071ZM72.6877 119.071C72.6877 118.443 72.936 117.841 73.3782 117.397C73.8204 116.952 74.4207 116.7 75.0478 116.697C75.3606 116.695 75.6706 116.755 75.9601 116.874C76.2496 116.992 76.5128 117.167 76.7346 117.387C76.9564 117.608 77.1324 117.87 77.2525 118.159C77.3726 118.448 77.4344 118.758 77.4344 119.071C77.4344 119.704 77.1829 120.311 76.7354 120.759C76.2878 121.206 75.6808 121.458 75.0478 121.458C74.7362 121.456 74.4279 121.393 74.1406 121.272C73.8533 121.151 73.5927 120.975 73.3735 120.753C73.1544 120.532 72.981 120.269 72.8633 119.98C72.7457 119.691 72.686 119.382 72.6877 119.071ZM60.5692 119.071C60.5692 118.441 60.8193 117.837 61.2644 117.392C61.7095 116.947 62.3131 116.697 62.9426 116.697C63.2547 116.695 63.5641 116.755 63.8529 116.874C64.1416 116.992 64.4039 117.167 64.6247 117.388C64.8454 117.609 65.0202 117.871 65.1388 118.16C65.2575 118.449 65.3176 118.758 65.3159 119.071C65.3176 119.384 65.2575 119.694 65.139 119.983C65.0206 120.273 64.846 120.536 64.6255 120.758C64.4049 120.98 64.1427 121.156 63.8539 121.276C63.5651 121.396 63.2554 121.458 62.9426 121.458C62.3188 121.444 61.7254 121.186 61.2892 120.74C60.853 120.294 60.6089 119.695 60.609 119.071H60.5692ZM48.4507 119.071C48.4542 118.44 48.7072 117.836 49.1544 117.391C49.6016 116.946 50.2066 116.697 50.8373 116.697C51.1501 116.697 51.4598 116.758 51.7486 116.879C52.0374 116.999 52.2996 117.175 52.5202 117.397C52.7407 117.619 52.9153 117.882 53.0338 118.171C53.1523 118.461 53.2124 118.771 53.2106 119.084C53.2106 119.714 52.9606 120.317 52.5155 120.763C52.0704 121.208 51.4667 121.458 50.8373 121.458C50.2054 121.454 49.6004 121.202 49.1536 120.755C48.7067 120.308 48.4542 119.703 48.4507 119.071ZM36.3455 119.071C36.3437 118.757 36.4042 118.445 36.5235 118.155C36.6429 117.865 36.8186 117.601 37.0405 117.379C37.2625 117.157 37.5263 116.981 37.8166 116.862C38.107 116.742 38.4181 116.682 38.732 116.683C39.3615 116.683 39.9651 116.934 40.4102 117.379C40.8553 117.824 41.1054 118.428 41.1054 119.057C41.1019 119.689 40.8493 120.295 40.4025 120.742C39.9557 121.189 39.3506 121.441 38.7188 121.445C38.0916 121.445 37.49 121.196 37.0453 120.754C36.6006 120.312 36.349 119.711 36.3455 119.084V119.071ZM24.2402 119.071C24.2367 118.757 24.2956 118.446 24.4134 118.156C24.5313 117.866 24.7057 117.602 24.9266 117.379C25.1475 117.157 25.4105 116.981 25.7001 116.862C25.9897 116.742 26.3002 116.682 26.6135 116.683C27.2442 116.683 27.8492 116.933 28.2964 117.378C28.7436 117.823 28.9966 118.427 29.0001 119.057C28.9966 119.689 28.744 120.295 28.2972 120.742C27.8504 121.189 27.2454 121.441 26.6135 121.445C25.9863 121.445 25.3847 121.196 24.94 120.754C24.4953 120.312 24.2437 119.711 24.2402 119.084V119.071ZM12.1349 119.071C12.1332 118.758 12.1933 118.449 12.312 118.16C12.4306 117.871 12.6054 117.609 12.8261 117.388C13.0469 117.167 13.3092 116.992 13.5979 116.874C13.8867 116.755 14.1961 116.695 14.5082 116.697C15.1331 116.704 15.73 116.957 16.1693 117.401C16.6087 117.846 16.8551 118.446 16.855 119.071C16.855 119.701 16.6054 120.307 16.1607 120.754C15.716 121.201 15.1124 121.454 14.4817 121.458C14.1707 121.456 13.863 121.393 13.5765 121.272C13.2899 121.151 13.0302 120.974 12.8121 120.752C12.594 120.531 12.4218 120.268 12.3056 119.979C12.1894 119.691 12.1314 119.382 12.1349 119.071Z" fill="#5F2DED"/>
<path d="M135.613 121.458C134.981 121.454 134.376 121.202 133.929 120.755C133.483 120.308 133.23 119.703 133.227 119.071C133.236 118.44 133.487 117.836 133.929 117.386C134.389 116.965 134.99 116.731 135.613 116.731C136.237 116.731 136.837 116.965 137.297 117.386C137.739 117.836 137.991 118.44 138 119.071C137.996 119.703 137.744 120.308 137.297 120.755C136.85 121.202 136.245 121.454 135.613 121.458Z" fill="#5F2DED"/>
<path d="M2.40199 134.137C1.92981 134.142 1.46688 134.006 1.07243 133.746C0.677992 133.486 0.369985 133.115 0.18776 132.679C0.00553558 132.243 -0.042619 131.763 0.0494995 131.3C0.141618 130.837 0.369816 130.411 0.704872 130.079C1.16311 129.654 1.76442 129.419 2.38872 129.419C3.01302 129.419 3.61433 129.654 4.07257 130.079C4.51251 130.524 4.76013 131.124 4.76206 131.75C4.76076 132.38 4.51331 132.984 4.07257 133.434C3.63059 133.88 3.0299 134.133 2.40199 134.137Z" fill="#5F2DED"/>
<path d="M121.122 131.763C121.122 131.132 121.371 130.527 121.816 130.079C122.261 129.632 122.864 129.379 123.495 129.375C124.128 129.375 124.735 129.627 125.182 130.075C125.63 130.522 125.881 131.13 125.881 131.763C125.883 132.076 125.823 132.387 125.703 132.676C125.584 132.966 125.408 133.229 125.186 133.45C124.963 133.671 124.7 133.846 124.409 133.963C124.119 134.081 123.808 134.14 123.495 134.137C122.865 134.137 122.262 133.887 121.817 133.441C121.372 132.996 121.122 132.392 121.122 131.763ZM109.003 131.763C109.006 131.131 109.259 130.525 109.706 130.079C110.153 129.632 110.758 129.379 111.39 129.375C112.02 129.379 112.624 129.632 113.069 130.079C113.513 130.527 113.763 131.132 113.763 131.763C113.763 132.394 113.513 132.999 113.069 133.446C112.624 133.893 112.02 134.146 111.39 134.15C110.759 134.143 110.156 133.889 109.71 133.443C109.264 132.997 109.01 132.394 109.003 131.763ZM96.8977 131.763C96.8977 131.449 96.9595 131.139 97.0794 130.849C97.1993 130.56 97.3752 130.296 97.5968 130.075C97.8184 129.853 98.0815 129.677 98.371 129.557C98.6606 129.437 98.9709 129.375 99.2843 129.375C99.9139 129.382 100.516 129.637 100.959 130.083C101.403 130.53 101.654 131.133 101.658 131.763C101.654 132.393 101.403 132.996 100.959 133.442C100.516 133.889 99.9139 134.143 99.2843 134.15C98.9709 134.15 98.6606 134.088 98.371 133.968C98.0815 133.848 97.8184 133.672 97.5968 133.451C97.3752 133.229 97.1993 132.966 97.0794 132.676C96.9595 132.387 96.8977 132.076 96.8977 131.763ZM84.7925 131.763C84.7925 131.13 85.0439 130.522 85.4915 130.075C85.9391 129.627 86.5461 129.375 87.1791 129.375C87.8097 129.379 88.4134 129.632 88.8581 130.079C89.3028 130.527 89.5524 131.132 89.5524 131.763C89.5524 132.076 89.4905 132.385 89.3704 132.674C89.2503 132.963 89.0743 133.225 88.8526 133.446C88.6308 133.667 88.3676 133.841 88.0781 133.96C87.7886 134.078 87.4786 134.138 87.1658 134.137C86.5364 134.137 85.9327 133.887 85.4876 133.441C85.0425 132.996 84.7925 132.392 84.7925 131.763ZM72.674 131.763C72.674 131.132 72.9235 130.527 73.3683 130.079C73.813 129.632 74.4166 129.379 75.0473 129.375C75.3607 129.375 75.671 129.437 75.9606 129.557C76.2501 129.677 76.5132 129.853 76.7348 130.075C76.9564 130.296 77.1322 130.56 77.2522 130.849C77.3721 131.139 77.4339 131.449 77.4339 131.763C77.4356 132.076 77.375 132.387 77.2555 132.676C77.1361 132.966 76.9601 133.229 76.738 133.45C76.5158 133.671 76.2519 133.846 75.9617 133.963C75.6714 134.081 75.3606 134.14 75.0473 134.137C74.4179 134.137 73.8142 133.887 73.3691 133.441C72.924 132.996 72.674 132.392 72.674 131.763ZM60.5687 131.763C60.5687 131.132 60.8183 130.527 61.263 130.079C61.7077 129.632 62.3114 129.379 62.942 129.375C63.2548 129.375 63.5645 129.437 63.8533 129.557C64.1421 129.678 64.4043 129.854 64.6249 130.075C64.8455 130.297 65.02 130.561 65.1385 130.85C65.257 131.14 65.3171 131.45 65.3153 131.763C65.3153 132.394 65.0657 132.999 64.621 133.446C64.1763 133.893 63.5727 134.146 62.942 134.15C62.3183 134.136 61.7248 133.878 61.2886 133.432C60.8525 132.986 60.6083 132.387 60.6085 131.763H60.5687ZM48.4501 131.763C48.4536 131.131 48.7062 130.525 49.153 130.079C49.5998 129.632 50.2049 129.379 50.8368 129.375C51.4674 129.379 52.071 129.632 52.5157 130.079C52.9604 130.527 53.2101 131.132 53.2101 131.763C53.2118 132.075 53.1516 132.384 53.033 132.673C52.9143 132.962 52.7396 133.225 52.5189 133.445C52.2981 133.666 52.0358 133.841 51.747 133.96C51.4583 134.078 51.1489 134.138 50.8368 134.137C50.2061 134.137 49.601 133.887 49.1538 133.442C48.7066 132.997 48.4536 132.394 48.4501 131.763ZM36.3449 131.763C36.3449 131.132 36.5945 130.527 37.0392 130.079C37.4839 129.632 38.0875 129.379 38.7182 129.375C39.3501 129.379 39.9551 129.632 40.4019 130.079C40.8488 130.525 41.1013 131.131 41.1048 131.763C41.1048 132.076 41.043 132.385 40.9229 132.674C40.8028 132.963 40.6268 133.225 40.405 133.446C40.1832 133.667 39.92 133.841 39.6305 133.96C39.341 134.078 39.031 134.138 38.7182 134.137C38.406 134.138 38.0967 134.078 37.8079 133.96C37.5192 133.841 37.2568 133.666 37.0361 133.445C36.8154 133.225 36.6406 132.962 36.522 132.673C36.4033 132.384 36.3432 132.075 36.3449 131.763ZM24.2396 131.763C24.2396 131.132 24.4892 130.527 24.9339 130.079C25.3786 129.632 25.9823 129.379 26.6129 129.375C27.2448 129.379 27.8498 129.632 28.2967 130.079C28.7435 130.525 28.9961 131.131 28.9995 131.763C28.996 132.394 28.743 132.997 28.2959 133.442C27.8487 133.887 27.2436 134.137 26.6129 134.137C26.3008 134.138 25.9914 134.078 25.7026 133.96C25.4139 133.841 25.1516 133.666 24.9308 133.445C24.7101 133.225 24.5353 132.962 24.4167 132.673C24.2981 132.384 24.2379 132.075 24.2396 131.763ZM12.1211 131.763C12.1211 131.13 12.3726 130.522 12.8201 130.075C13.2677 129.627 13.8747 129.375 14.5077 129.375C15.1384 129.379 15.742 129.632 16.1867 130.079C16.6314 130.527 16.881 131.132 16.881 131.763C16.881 132.394 16.6314 132.999 16.1867 133.446C15.742 133.893 15.1384 134.146 14.5077 134.15C13.8769 134.143 13.2738 133.889 12.8277 133.443C12.3816 132.997 12.128 132.394 12.1211 131.763Z" fill="#5F2DED"/>
<path d="M135.613 134.137C134.983 134.136 134.379 133.888 133.929 133.447C133.707 133.227 133.531 132.964 133.411 132.675C133.29 132.386 133.229 132.076 133.229 131.763C133.229 131.45 133.29 131.14 133.411 130.851C133.531 130.562 133.707 130.299 133.929 130.079C134.389 129.657 134.99 129.424 135.613 129.424C136.237 129.424 136.837 129.657 137.297 130.079C137.739 130.528 137.987 131.133 137.987 131.763C137.987 132.393 137.739 132.998 137.297 133.447C137.076 133.667 136.813 133.841 136.524 133.96C136.235 134.078 135.925 134.138 135.613 134.137Z" fill="#5F2DED"/>
</svg>
