<svg id="Layer_1" data-name="Layer 1" xmlns="http://www.w3.org/2000/svg" xmlns:xlink="http://www.w3.org/1999/xlink" viewBox="0 0 59.24 59.24"><defs><style>.cls-1,.cls-6,.cls-9{fill:#010101;}.cls-1,.cls-8{opacity:0.12;}.cls-2{fill:url(#linear-gradient);}.cls-3{fill:url(#linear-gradient-2);}.cls-4{fill:url(#linear-gradient-3);}.cls-5{fill:url(#linear-gradient-4);}.cls-6{opacity:0.11;}.cls-7{fill:#fff;}.cls-10{fill:#353a54;}.cls-11{fill:none;stroke:#fff;stroke-miterlimit:10;stroke-width:0.75px;}</style><linearGradient id="linear-gradient" x1="417.36" y1="449.12" x2="451.26" y2="449.12" gradientUnits="userSpaceOnUse"><stop offset="0" stop-color="#fed700"/><stop offset="1" stop-color="#3db54a"/></linearGradient><linearGradient id="linear-gradient-2" x1="45.76" y1="10.42" x2="49.07" y2="16.15" xlink:href="#linear-gradient"/><linearGradient id="linear-gradient-3" x1="48.45" y1="6.25" x2="50.58" y2="9.95" xlink:href="#linear-gradient"/><linearGradient id="linear-gradient-4" x1="50.3" y1="2.89" x2="52" y2="5.84" xlink:href="#linear-gradient"/></defs><title>Untitled-1</title><path class="cls-1" d="M442.91,450s-6.41-4.07-8.52-4.15-12.44,8-11.7,13.34,18.87-4.55,21.27-8.05l-.17,1.34s-4.76,3.67-4.84,3.79-7.37,5.07-7.37,5.07-4.95,2.18-5.38,2.26-3.67.9-3.83.86-3.16-3.36-3.16-3.36a33.62,33.62,0,0,1-.23-4.64c.2-.47,6.28-7.06,6.28-7.06s5.54-4.41,6-4.84,4.29-3.39,4.29-3.39,5.66,5.5,5.77,5.62S442.91,450,442.91,450Z" transform="translate(-404.04 -426.16)"/><path class="cls-2" d="M451.26,440.86l-.06.12a36.93,36.93,0,0,1-4.69,7.26l-.71.89h0c-.62.72-1.23,1.39-1.83,2l0,.05a43.1,43.1,0,0,1-6,5.34c-.3.24-.47.36-.47.36h0a35.2,35.2,0,0,1-13.66,6s-3.95,1.29-3.39-4.52,9-11.29,13.16-14.28a29.07,29.07,0,0,1,9.24,5.91c.59-.64,1.16-1.29,1.69-1.94-4.59-3.89-11.08-11.49-10.84-17.56a24.92,24.92,0,0,1-9.7,17.71c-9.44,7.26-7.5,13-2.74,17.59,3.47,3.35,15.66-3.6,23.57-13.33a11.3,11.3,0,0,1-.07,11.83,9.91,9.91,0,0,1-3.57,3.43s6.62-.8,8-10.65c.4-2.83-.73-5.05-2.53-7A30.24,30.24,0,0,0,451.26,440.86Z" transform="translate(-404.04 -426.16)"/><polygon class="cls-3" points="48.87 9.85 48.74 12.37 51.1 13.28 48.66 13.94 48.53 16.46 47.15 14.34 44.7 15 46.29 13.03 44.91 10.91 47.28 11.81 48.87 9.85"/><polygon class="cls-4" points="50.45 5.88 50.37 7.51 51.9 8.09 50.32 8.52 50.24 10.15 49.35 8.78 47.77 9.21 48.8 7.93 47.9 6.57 49.43 7.15 50.45 5.88"/><polygon class="cls-5" points="51.9 2.59 51.83 3.89 53.05 4.36 51.79 4.7 51.73 6 51.02 4.91 49.76 5.24 50.58 4.23 49.87 3.14 51.08 3.6 51.9 2.59"/><path class="cls-6" d="M444.89,452.47a3.85,3.85,0,0,1,.62,1.22s1.44-2.07,1.83-2.89l-.63-.74Z" transform="translate(-404.04 -426.16)"/><path class="cls-7" d="M418.94,460.44a.82.82,0,0,0,0-.11c0-.07-.06-.18-.09-.32a4,4,0,0,1-.11-.51,5.56,5.56,0,0,1-.09-.66,6.87,6.87,0,0,1,0-.8v-.22a1.55,1.55,0,0,0,0-.22c0-.15,0-.3,0-.45l0-.24,0-.23c0-.16.06-.32.09-.48s.17-.63.28-.95l.09-.23.09-.23c.06-.15.14-.3.21-.45a9.43,9.43,0,0,1,.47-.83l.06-.1.07-.09.13-.19c.08-.12.18-.23.26-.34l.14-.17.13-.15a3.58,3.58,0,0,1,.26-.28c.18-.18.33-.34.49-.47a4.6,4.6,0,0,1,.39-.33l.26-.2.1-.07-.08.08-.23.24-.35.38-.1.11-.11.12-.22.27c-.08.09-.15.2-.23.3l-.12.16-.12.16c-.07.12-.16.23-.23.36l-.12.18-.06.1-.06.09-.11.2-.05.1-.06.1-.1.21-.06.1-.05.11-.19.43-.09.23-.08.22c-.11.3-.2.61-.28.91s-.14.61-.18.91-.08.58-.1.86v.4c0,.13,0,.26,0,.38s0,.46,0,.66,0,.37.05.51S418.94,460.44,418.94,460.44Z" transform="translate(-404.04 -426.16)"/><g class="cls-8"><path class="cls-9" d="M449.24,457.08c.4-2.83-.73-5.05-2.53-7,0,0,.81,1,.75,8.12a10.46,10.46,0,0,1-6.21,9.55S447.87,466.93,449.24,457.08Z" transform="translate(-404.04 -426.16)"/><path class="cls-9" d="M449.24,457.08c.4-2.83-.73-5.05-2.53-7,0,0,.81,1,.75,8.12a10.46,10.46,0,0,1-6.21,9.55S447.87,466.93,449.24,457.08Z" transform="translate(-404.04 -426.16)"/><path class="cls-9" d="M434.06,439.45c1.11,4.16,10.54,8.61,10.54,8.61-4.59-3.89-10.86-7.18-10.61-13.25,0,0-.48,6.13-9.93,13.4-.18.13-.35.27-.52.41C428.8,446.63,434.06,439.45,434.06,439.45Z" transform="translate(-404.04 -426.16)"/><path class="cls-7" d="M434.06,439.45c1.11,4.16,10.54,8.61,10.54,8.61-4.59-3.89-11.2-13.42-11-19.49,0,0-.14,12.37-9.59,19.64-.18.13-.35.27-.52.41C428.8,446.63,434.06,439.45,434.06,439.45Z" transform="translate(-404.04 -426.16)"/></g><path class="cls-10" d="M420,475.53a.81.81,0,0,1-.43-.11l-2.35-1.34a.88.88,0,0,1,.87-1.52l2.34,1.34a.87.87,0,0,1,.33,1.19A.86.86,0,0,1,420,475.53Z" transform="translate(-404.04 -426.16)"/><path class="cls-10" d="M440.54,475.8a.87.87,0,0,1-.75-.42.88.88,0,0,1,.3-1.2l8.45-5.05v-2.32l-14.34,7.87a.89.89,0,0,1-.84,0L419,466.81v2.32l8.45,5.05a.87.87,0,0,1-.9,1.5l-8.88-5.31a.86.86,0,0,1-.42-.75v-4.29a.86.86,0,0,1,.43-.75.85.85,0,0,1,.86,0l15.21,8.35L449,464.57a.85.85,0,0,1,.86,0,.86.86,0,0,1,.43.75v4.29a.85.85,0,0,1-.43.75L441,475.68A.92.92,0,0,1,440.54,475.8Z" transform="translate(-404.04 -426.16)"/><path class="cls-10" d="M447.62,475.53a.86.86,0,0,1-.76-.44.87.87,0,0,1,.33-1.19l2.34-1.34a.88.88,0,0,1,1.19.32.89.89,0,0,1-.32,1.2l-2.35,1.34A.81.81,0,0,1,447.62,475.53Z" transform="translate(-404.04 -426.16)"/><path class="cls-10" d="M433.78,483.45a.81.81,0,0,1-.43-.11l-11.65-6.67a.88.88,0,1,1,.87-1.52l11.21,6.42L445,475.15a.88.88,0,1,1,.87,1.52l-11.65,6.67A.87.87,0,0,1,433.78,483.45Z" transform="translate(-404.04 -426.16)"/><rect class="cls-11" x="0.38" y="0.38" width="58.49" height="58.49"/></svg>