<svg id="svg6995" height="512" viewBox="0 0 16.933333 16.933334" width="512" xmlns="http://www.w3.org/2000/svg" xmlns:svg="http://www.w3.org/2000/svg"><g id="layer1" transform="translate(0 -280.067)"><path id="path3274" d="m14.022916 281.38956c0-.29316-.236008-.52917-.529166-.52917l-9.5249968-.00001c-.5863179 0-1.0583359.47202-1.0583349 1.05834l-.000001 12.17084c0 .58632.472018 1.05833 1.0583359 1.05833h9.5249968c.293158 0 .529166-.23601.529166-.52864z" fill="#5dd39e"/><path id="path3276" d="m14.022916 294.61872c0 .29316-.236008.52917-.529166.52917h-9.5249968c-.5863179 0-1.0583359-.47201-1.0583359-1.05833s.4720169-1.05834 1.0583359-1.05834h10.0541608z" fill="#dbe9ee"/><path id="path3278" d="m5.0270853 294.08955v2.11668l1.058333-1.05834 1.0583339 1.05833v-2.11667z" fill="#ffbc42"/><path id="path3526" d="m7.1437512 290.1208 1.3229158 1.32292 1.3229173-1.32292h1.8520827v-1.85209l1.322917-1.32291-1.322917-1.32292v-1.85208h-1.8520837l-1.3229163-1.32292-1.3229169 1.32292h-1.8520831v1.85208l-1.3229159 1.32292 1.3229159 1.32291v1.85209z" fill="#55c090"/><path id="path3528" d="m7.7674842 285.41203a1.8520961 1.8520961 0 0 0 -1.4174852 1.79834 1.8520961 1.8520961 0 0 0 1.8520842 1.85208 1.8520961 1.8520961 0 0 0 1.7983408-1.418 1.5874992 1.5874992 0 0 1 -1.0045907.35967 1.5874992 1.5874992 0 0 1 -1.5875001-1.5875 1.5874992 1.5874992 0 0 1 .359151-1.00459z" fill="#ffbc42"/><path id="path12971-2" d="m3.9687501 280.59581c-.7283207 0-1.3224013.59408-1.3224 1.3224v12.17186c0 .72832.5940793 1.3224 1.3224 1.3224.3531222 0 .3531222-.52968 0-.52968-.4443154 0-.7927166-.3484-.7927166-.79272 0-.44431.3484002-.79478.7927166-.79478h9.7890669v1.32395c0 .15115-.112395.26355-.26355.26355h-5.293217c-.3531222 0-.3531222.52968 0 .52968h5.293217c.43516 0 .792716-.35807.792716-.79323v-13.2302c0-.43516-.357556-.79323-.792716-.79323zm0 .52968h9.5255169c.151155 0 .26355.11239.26355.26355v11.37657h-9.7890669c-.2983765 0-.5710455.10417-.7927166.27233v-11.11973c-.0000008-.44432.3484012-.79272.7927166-.79272zm4.4942993 1.05833c-.068872.00042-.1348682.0277-.183968.076l-1.2459189 1.24643h-1.7420125c-.1461196.00059-.2641071.1195-.2635499.26562v1.74201l-1.2464354 1.24437c-.1036296.10339-.1036296.27127 0 .37466l1.2464354 1.24643v1.74201c.0005821.14532.1182368.26297.2635499.26355h1.7420125l1.2459189 1.24644c.103445.10398.2717258.10398.3751709 0l1.244368-1.24644h1.7440797c.145313-.00058.262969-.11823.26355-.26355v-1.74201l1.245919-1.24643c.103629-.10339.103629-.27127 0-.37466l-1.245919-1.24437v-1.74201c.000556-.14612-.11743-.26503-.26355-.26562h-1.7440797l-1.244368-1.24646c-.050878-.0501-.119831-.0775-.1912029-.076zm.00362.63872 1.1348139 1.13482c.04965.0499.117165.078.187586.078h1.5880167v1.58802c.000012.0704.0281.13793.07803.18758l1.134814 1.1343-1.134814 1.13688c-.04943.0491-.07747.11582-.07803.18552v1.58802h-1.5880207c-.07042.00001-.137931.0281-.187585.078l-1.1348146 1.13481-1.1363648-1.13481c-.049147-.0494-.1158144-.0775-.1855179-.078h-1.5880167v-1.58802c-.0005556-.0697-.028601-.13637-.078031-.18552l-1.1348143-1.13685 1.1348144-1.1343c.049935-.0496.078018-.11716.078031-.18758v-1.58802h1.5880173c.069703-.00056.1363707-.0286.1855184-.078zm1.0547159 1.7384c-.145923.002-.262906.12124-.261486.26717v.42994l-.408244-.1328c-.03322-.0113-.06835-.0159-.103352-.0134-.2944802.0179-.3432313.43143-.06098.51728l.40876.13281-.252181.34778c-.2205798.28837.224643.61037.429431.31058l.251665-.34778.252181.34778c.203271.30745.6572117-.022.4278797-.31058l-.2521797-.34726.4082427-.13333c.300575-.0913.219967-.53705-.09353-.51728-.02393.001-.04757.006-.07028.0134l-.4082437.13332v-.43046c.0015-.14835-.119338-.2689-.267683-.26717zm-3.4354513 2.64946c.00001 1.16689.9492546 2.11614 2.1161499 2.11615.9708364-.001 1.8164291-.66299 2.0531041-1.61076.06181-.25519-.226438-.43662-.4232297-.27595-.23615.19354-.530279.30044-.835608.30076-.7337604 0-1.3223998-.59071-1.3223996-1.32447.0002024-.30527.1111944-.61217.2986898-.83561.1484587-.17691.00645-.4079-.2059305-.43175-1.006651.21294-1.6797153 1.09856-1.680776 2.06163zm1.1094929-1.21906c-.032611.13844-.050547.28064-.050643.42478-.0000003 1.01975.8318228 1.85157 1.8515664 1.85157.144876-.00015.287768-.0183.426848-.0512-.294074.35664-.73514.57976-1.2221477.58033-.8798835-.00001-1.5859422-.70555-1.5859498-1.58544.0005291-.48666.2240071-.92655.5803262-1.22008zm-3.2266763 7.83312c-.3450344.008-.3450344.52151 0 .52916h.7927165v1.85157c-.00177.23772.286457.35702.4532022.18759l.8712647-.87127.8712647.87127c.166896.16586.4510442.0477.4511352-.18759v-1.85157h5.5567661c.345035-.008.345035-.52151 0-.52916zm1.3223999.52916h1.5875v1.21492l-.6051309-.6072c-.1034449-.10398-.271726-.10398-.375171 0l-.6071981.6072z" font-variant-ligatures="normal" font-variant-position="normal" font-variant-caps="normal" font-variant-numeric="normal" font-variant-alternates="normal" font-feature-settings="normal" text-indent="0" text-align="start" text-decoration-line="none" text-decoration-style="solid" text-decoration-color="#000000" text-transform="none" text-orientation="mixed" white-space="normal" shape-padding="0" isolation="auto" mix-blend-mode="normal" solid-color="#000000" solid-opacity="1" vector-effect="none"/></g></svg>