<svg xmlns="http://www.w3.org/2000/svg" fill-rule="evenodd" height="512" image-rendering="optimizeQuality" shape-rendering="geometricPrecision" width="512" xmlns:v="https://vecta.io/nano"><path d="M407.371 343.502H251.479a6.5 6.5 0 1 1 0-13h155.892a6.5 6.5 0 1 1 0 13zm77.667 58.136h-68.99l43.393 101.296c.86 2.008.653 4.313-.548 6.138s-3.243 2.921-5.427 2.921h-71.399a6.5 6.5 0 0 1-5.975-3.94l-45.586-106.415H181.5l-45.586 106.415a6.5 6.5 0 0 1-5.975 3.94H58.537c-2.185 0-4.224-1.097-5.425-2.921a6.5 6.5 0 0 1-.549-6.138l43.393-101.296H26.964c-10.563 0-19.156-8.594-19.156-19.156V86.158c0-10.563 8.594-19.155 19.156-19.155h186.428V6.505a6.5 6.5 0 0 1 6.5-6.5h72.221a6.5 6.5 0 0 1 6.5 6.5v60.497h186.426c10.563 0 19.156 8.594 19.156 19.156v296.323c0 10.563-8.594 19.156-19.156 19.156zM226.392 67.002h59.219V13.005h-59.219zM26.963 80.002c-3.395 0-6.157 2.763-6.157 6.156v296.324c0 3.396 2.763 6.156 6.157 6.156l458.074.001c3.396 0 6.157-2.763 6.157-6.157V86.158c0-3.393-2.763-6.156-6.157-6.156H292.195l-.084.001H219.89l-.084-.001H26.962zm41.43 418.993h57.259l41.705-97.355h-57.259zm317.958 0h57.258l-41.705-97.355h-57.258zm40.044-277.875H251.478a6.5 6.5 0 0 1-6.5-6.5 6.5 6.5 0 0 1 6.5-6.5h174.917a6.5 6.5 0 0 1 6.5 6.5 6.5 6.5 0 0 1-6.5 6.5zm-19.025 27.619H251.478a6.5 6.5 0 0 1-6.5-6.5 6.5 6.5 0 0 1 6.5-6.5H407.37a6.5 6.5 0 0 1 6.5 6.5 6.5 6.5 0 0 1-6.5 6.5zm19.025-110.598H251.478a6.5 6.5 0 1 1 0-13l174.917.001a6.5 6.5 0 0 1 6.5 6.5 6.5 6.5 0 0 1-6.5 6.5zm-19.025 27.617H251.478a6.5 6.5 0 0 1-6.5-6.5 6.5 6.5 0 0 1 6.5-6.5H407.37a6.5 6.5 0 0 1 6.5 6.5 6.5 6.5 0 0 1-6.5 6.5zm-264.111 14.325H93.94c-8.18 0-14.833-6.654-14.833-14.834v-39.597c0-8.179 6.653-14.833 14.834-14.833h49.318c8.18 0 14.834 6.653 14.834 14.834v39.597c0 8.179-6.653 14.834-14.834 14.834zM93.94 123.818a1.86 1.86 0 0 0-1.834 1.834v39.597a1.86 1.86 0 0 0 1.834 1.833h49.318a1.86 1.86 0 0 0 1.834-1.833v-39.597a1.86 1.86 0 0 0-1.834-1.833l-49.318-.001zm49.318 139.244H93.94c-8.18 0-14.833-6.654-14.833-14.834v-39.597c0-8.179 6.653-14.835 14.834-14.835h49.318c8.18 0 14.834 6.656 14.834 14.835v39.597c0 8.179-6.653 14.834-14.834 14.834zM93.94 206.797a1.86 1.86 0 0 0-1.834 1.834v39.597a1.86 1.86 0 0 0 1.834 1.833h49.318a1.86 1.86 0 0 0 1.834-1.833v-39.597a1.86 1.86 0 0 0-1.834-1.834zm49.318 151.027H93.94c-8.18 0-14.833-6.654-14.833-14.832v-39.598c0-8.18 6.653-14.834 14.834-14.834h49.318c8.18 0 14.834 6.654 14.834 14.834v39.598c0 8.178-6.653 14.832-14.834 14.832zM93.94 301.561a1.86 1.86 0 0 0-1.834 1.834v39.597a1.86 1.86 0 0 0 1.834 1.833h49.318a1.86 1.86 0 0 0 1.834-1.833v-39.597a1.86 1.86 0 0 0-1.834-1.834zm19.755-142.191a6.48 6.48 0 0 1-4.597-1.904l-5.035-5.035a6.5 6.5 0 1 1 9.193-9.193l.438.439 10.247-10.246a6.5 6.5 0 0 1 9.193 0c2.537 2.539 2.537 6.653 0 9.193l-14.843 14.841c-1.269 1.271-2.933 1.905-4.596 1.905zm0 82.982a6.5 6.5 0 0 1-4.598-1.905l-5.035-5.037a6.5 6.5 0 1 1 9.195-9.19l.438.438 10.245-10.246a6.5 6.5 0 0 1 9.193 9.191l-14.843 14.843a6.49 6.49 0 0 1-4.594 1.906zm0 94.76a6.5 6.5 0 0 1-4.597-1.904l-5.035-5.035a6.5 6.5 0 0 1 9.193-9.19l.438.438 10.247-10.247c2.537-2.537 6.653-2.537 9.191 0a6.5 6.5 0 0 1 0 9.193l-14.843 14.844c-1.218 1.218-2.87 1.902-4.594 1.902zm312.699-21.228H251.478a6.5 6.5 0 1 1 0-13l174.917.001a6.5 6.5 0 0 1 6.5 6.5 6.5 6.5 0 0 1-6.5 6.5z" fill="#333"/><path d="M251.479 315.884c-8.557 0-8.557-13 0-13l174.917.001c8.558 0 8.557 12.999 0 12.999H251.479zm0 14.617h155.892c8.558 0 8.556 13 0 13H251.479c-8.557 0-8.557-13 0-13zM26.964 388.638l458.074.001c3.396 0 6.157-2.763 6.157-6.157V86.158c0-3.393-2.763-6.156-6.157-6.156H26.964c-3.395 0-6.157 2.763-6.157 6.156v296.324c0 3.396 2.763 6.156 6.157 6.156zm380.407-139.9H251.479c-8.557 0-8.557-12.999 0-12.999h155.892c8.558 0 8.556 12.999 0 12.999zm19.025-27.619H251.479c-8.557 0-8.557-12.999 0-12.999h174.917c8.557 0 8.557 12.999 0 12.999zm-19.025-55.362H251.479c-8.557 0-8.557-12.999 0-12.999h155.892c8.557 0 8.557 12.999 0 12.999zm19.025-27.617H251.479c-8.557 0-8.557-13 0-13l174.917.001c8.558 0 8.557 12.999 0 12.999zm-268.302 70.491v39.597c0 8.179-6.653 14.833-14.834 14.833H93.942c-8.18 0-14.833-6.654-14.833-14.834V208.63c0-8.179 6.653-14.835 14.834-14.835h49.318c8.18 0 14.834 6.656 14.834 14.835zm-14.834-28.55H93.942c-8.18 0-14.833-6.654-14.833-14.833v-39.597c0-8.179 6.653-14.833 14.834-14.833h49.318c8.18 0 14.834 6.653 14.834 14.834v39.597c0 8.179-6.653 14.834-14.834 14.834zm14.834 123.312v39.598c0 8.178-6.653 14.832-14.834 14.832H93.942c-8.18 0-14.833-6.654-14.833-14.832v-39.598c0-8.18 6.653-14.834 14.834-14.834h49.318c8.18 0 14.834 6.654 14.834 14.834zm68.298-236.39h59.22V13.005h-59.22z" fill="#4bd381"/><path d="M145.094 165.249v-39.597a1.86 1.86 0 0 0-1.834-1.833l-49.318-.001a1.86 1.86 0 0 0-1.834 1.834v39.597a1.86 1.86 0 0 0 1.834 1.833h49.318a1.86 1.86 0 0 0 1.834-1.833zm-11.959-22.624l-14.843 14.841c-1.269 1.271-2.933 1.905-4.596 1.905-3.767 0-6.317-3.624-9.632-6.939-5.849-5.85 2.715-15.687 9.631-8.753l10.247-10.246c6.052-6.052 15.241 3.142 9.193 9.193zm-.001 82.978l-14.843 14.843a6.49 6.49 0 0 1-4.594 1.906c-3.771 0-6.337-3.646-9.633-6.943-5.839-5.842 2.699-15.686 9.633-8.752l10.245-10.246c6.051-6.052 15.243 3.141 9.193 9.191zm10.126-18.806H93.941a1.86 1.86 0 0 0-1.834 1.834v39.597a1.86 1.86 0 0 0 1.834 1.833h49.318a1.86 1.86 0 0 0 1.834-1.833v-39.597a1.86 1.86 0 0 0-1.834-1.834zm0 94.764H93.942a1.86 1.86 0 0 0-1.834 1.834v39.597a1.86 1.86 0 0 0 1.834 1.833h49.318a1.86 1.86 0 0 0 1.834-1.833v-39.597a1.86 1.86 0 0 0-1.834-1.834zm-19.317 9.613c6.048-6.048 15.244 3.139 9.191 9.193l-14.843 14.844c-1.218 1.218-2.87 1.902-4.594 1.902-3.77 0-6.335-3.643-9.632-6.939-5.842-5.841 2.698-15.685 9.631-8.752l10.247-10.247zm43.414 90.466h-57.259l-41.705 97.355h57.259zm177.29 0l41.705 97.355h57.257l-41.705-97.355z" fill="#ffcf00"/></svg>