<svg xmlns="http://www.w3.org/2000/svg" height="512" viewBox="0 0 55 60" width="512" xmlns:v="https://vecta.io/nano"><path d="M6 5a4 4 0 0 1 4-4h40a4 4 0 0 1 4 4v40L42 57H10a4 4 0 0 1-4-4z" fill="#ffe0b2"/><path d="M50 1h-3a4 4 0 0 1 4 4v40L39 57h3l12-12V5a4 4 0 0 0-4-4z" fill="#dfc49c"/><path d="M42 57v-8a4 4 0 0 1 4-4h8" fill="#91562d"/><path d="M20.832 44l10.246-9.836a3 3 0 0 0-1.243-5.046 3 3 0 0 0-2.913.718L16.5 39.841 6.078 29.836a3 3 0 0 0-4.991 1.446 3 3 0 0 0 .835 2.882L12.168 44 1.922 53.836a3 3 0 1 0 4.156 4.328L16.5 48.159l10.422 10.005a3 3 0 1 0 4.156-4.328z" fill="#e91e63"/><path d="M20.832 44l10.246-9.836a3 3 0 0 0-3.583-4.75 2.96 2.96 0 0 1 .583 4.75L17.832 44l10.246 9.836a3 3 0 0 1 .086 4.242c-.198.2-.423.371-.669.507a3 3 0 0 0 3.583-4.749z" fill="#ad1457"/><path d="M55 5c-.003-2.76-2.24-4.997-5-5H10C7.24.003 5.003 2.24 5 5v19a1 1 0 1 0 2 0V5a3 3 0 0 1 3-3h40a3 3 0 0 1 3 3v39h-7c-2.76.003-4.997 2.24-5 5v7h-4a1 1 0 1 0 0 2h5a1 1 0 0 0 .707-.293l12-12A1 1 0 0 0 55 45zm-9 41h5.586L43 54.586V49a3 3 0 0 1 3-3zM14 6h-2a1 1 0 1 0 0 2h2a1 1 0 1 0 0-2zm34 0H18a1 1 0 1 0 0 2h30a1 1 0 1 0 0-2zm-34 6h-2a1 1 0 1 0 0 2h2a1 1 0 1 0 0-2zm4 2h23a1 1 0 1 0 0-2H18a1 1 0 1 0 0 2zm-4 4h-2a1 1 0 1 0 0 2h2a1 1 0 1 0 0-2zm4 2h16a1 1 0 1 0 0-2H18a1 1 0 1 0 0 2zm33 1a1 1 0 1 0-2 0v14a1 1 0 1 0 2 0zm-1 17a1 1 0 0 0-1 1v2a1 1 0 1 0 2 0v-2a1 1 0 0 0-1-1zM0 55.918a4 4 0 0 0 6.77 2.967l9.73-9.34 9.729 9.34a4 4 0 1 0 5.541-5.77L22.276 44l9.494-9.115A4 4 0 0 0 29.082 28a3.96 3.96 0 0 0-2.852 1.115l-9.73 9.34-9.729-9.34a4 4 0 0 0-5.656.115 4 4 0 0 0 .115 5.655L10.724 44 1.23 53.115C.461 53.847.018 54.857 0 55.918zm2.614-1.361l10.246-9.836a1 1 0 0 0 0-1.442L2.615 33.443A2 2 0 0 1 3.959 30a1.96 1.96 0 0 1 1.426.557l10.423 10.006a1 1 0 0 0 1.384 0l10.423-10.006c.378-.374.894-.575 1.426-.557a2 2 0 0 1 1.344 3.443L20.14 43.279a1 1 0 0 0 0 1.442l10.245 9.836a2 2 0 0 1 .057 2.828 2.05 2.05 0 0 1-2.827.058l-10.423-10a1 1 0 0 0-1.384 0l-10.423 10a2.05 2.05 0 0 1-2.828-.058 2 2 0 0 1 .058-2.828z" fill="#000"/></svg>