<svg xmlns="http://www.w3.org/2000/svg" xmlns:xlink="http://www.w3.org/1999/xlink" viewBox="0 0 512.049 512.049" width="512" height="512" xmlns:v="https://vecta.io/nano"><style><![CDATA[.B{stroke-linejoin:round}.C{stroke-miterlimit:10}.D{stroke-linecap:round}]]></style><path d="M391.554 37.554v436.94c0 16.57-13.46 30-30 30h-137.59c-266.31-159.62-86.55-446.91-52.32-496.94h189.91c16.57 0 30 13.43 30 30z" fill="#fdefcd"/><path d="M237.024 504.494h-96.58c-4.33 0-8.56-.94-12.42-2.7-15.96-54.91-58.33-95.06-110.24-110.24a29.98 29.98 0 0 1-2.7-12.43V37.554c0-16.57 13.43-30 30-30h131.87c-39.34 88.05-113.01 313.82 60.07 496.94z" fill="#f8d787"/><use xlink:href="#B" fill="#f4c856"/><path d="M200.124 272.304l-54.67-139.73c-1.43-3.66-3.8-6.51-6.67-8.51 0 0-18.65 20.95-8.94 55.87l18.64 43.5c.5 1.17-.36 2.47-1.63 2.47h-19.59s-13.09 14.64.82 30.12h22.81c3.77 0 7.2 2.19 8.79 5.6l10.11 21.72c2.45 6.26 8.61 10.12 15.17 10.12 11.26 0 19.17-10.9 15.16-21.16z" fill="#ff8a98"/><path d="M138.784 124.064c-3.8 17.66-6.91 36.38-8.94 55.87l-1.26-2.93c-.61-1.43-2.64-1.43-3.26 0l-19.9 46.43c-.5 1.17.36 2.47 1.64 2.47h20.2c-.07 9.91.19 19.96.82 30.12h-25.06c-3.77 0-7.2 2.19-8.79 5.6l-10.14 21.77c-3.19 8.07-12.55 12.12-20.92 9.04-8.37-3.07-12.57-12.1-9.38-20.17l55.32-140.08c5.19-12.22 20.2-14.73 29.67-8.12z" fill="#fd5c6f"/><path d="M341.191 200.167c-2.293-1.894-2.801-5.161-1.239-7.692 19.45-31.519-5.759-71.981-46.555-71.981H256.16c-13.119 0-23.792 9.835-23.792 21.922v129.403c0 12.113 10.641 21.852 23.788 21.852h45.79c53.729 0 78.415-61.145 39.245-93.504zm-44.761-49.555c16.272 0 24.937 19.818 13.645 31.929-3.424 3.673-8.014 5.718-12.923 5.718h-22.016c-2.828 0-5.121-2.293-5.121-5.121v-27.405c0-2.828 2.293-5.121 5.121-5.121h21.294zm26.857 106.013c-4.66 4.401-10.906 6.826-17.587 6.826l-30.549.084a5.12 5.12 0 0 1-5.136-5.121v-34.916c0-2.828 2.293-5.121 5.121-5.121h29.697c22.086 0 33.789 23.764 18.454 38.248zm2.517 101.329c-17.62 14.68-42.24 14.68-59.86 0-6.52-5.43-14.94-5.43-21.46 0-17.62 14.68-42.24 14.68-59.86 0-6.708-5.594-15.161-5.243-21.46 0-3.96 3.3-8.27 5.85-12.77 7.67-28.59-8.28-9.1-28.86-9.1-28.86 3.391-1.917 13.142-12.365 31.4-12.85 10.95-.3 21.98 3.37 31.13 10.99 6.52 5.43 14.94 5.43 21.46 0 17.62-14.68 42.23-14.68 59.86 0 6.52 5.43 14.94 5.43 21.45 0 6.37-5.3 15.83-4.44 21.13 1.92 5.3 6.37 4.44 15.82-1.92 21.13z" fill="#ff8a98"/><path d="M150.394 365.624c-15.55 6.27-33.43 3.71-47.09-7.67-6.36-5.31-7.22-14.76-1.92-21.13 5.3-6.36 14.76-7.22 21.13-1.92 5.65 4.71 12.74 5.34 18.78 1.86 2.6 9.6 5.63 19.23 9.1 28.86z" fill="#fd5c6f"/><path d="M489.877 488.171h0c-13.691 19.371-41.45 21.927-58.449 5.383l-71.413-69.507 26.075-36.892 89.355 44.122c21.268 10.503 28.123 37.523 14.432 56.894z" fill="#e7896e"/><path d="M343.124 468.794c-199.02-95.94-17.95-220.83-17.95-220.83 48.51 5.64 89.55 42.53 98.24 93.08 9.78 56.947-24.952 111.91-80.29 127.75z" fill="#7fd49d"/><path d="M343.124 468.794c-63.95 18.34-130.87-22.72-142.34-89.5-12.12-70.52 43.61-134.46 115.3-132.02 3.05.11 6.09.34 9.09.69-36.17 42.47-95.45 138.67 17.95 220.83z" fill="#5ec783"/><path d="M299.974 426.944c-84.05-62.49-6.37-132.08-6.37-132.08h.01c38.31-10.91 78.47 13.75 85.35 53.82 7.988 46.472-32.835 86.728-78.99 78.26z" fill="#a4e7ff"/><path d="M299.974 426.944c-27.26-4.94-49.79-26.39-54.75-55.29-5.806-33.768 14.476-67.032 48.38-76.79-18.66 37.22-27.6 85.07 6.37 132.08z" fill="#5ad6ff"/><g fill="#fd9faa"><ellipse transform="matrix(.0022 -1 1 .0022 47.7983 198.3492)" cx="123.291" cy="75.223" rx="23.515" ry="29.529"/><ellipse transform="matrix(.0022 -1 1 .0022 207.1538 358.7543)" cx="283.347" cy="75.573" rx="23.515" ry="29.529"/></g><g fill="none" stroke="#000" stroke-width="15" class="B C"><path d="M391.552 454.69v19.75c0 16.58-13.45 30-30 30h-115.62c-117.626 0-109.927.94-117.91-2.7m263.53-326.141V279.85M136.183 7.5h128.739 96.63c16.57 0 30 13.43 30 30v107.699M17.782 391.5a29.98 29.98 0 0 1-2.7-12.43V37.5c0-16.57 13.43-30 30-30h60.466" class="D"/><use xlink:href="#B" x="0.002" y="-0.05"/><path d="M145.452 132.529c-6.141-15.756-29.57-16.328-36.333-.398L53.797 272.213c-3.186 8.07 1.013 17.103 9.38 20.176s17.733-.977 20.92-9.046l10.135-21.765c1.591-3.418 5.02-5.603 8.79-5.603h47.872c3.771 0 7.2 2.186 8.791 5.605l10.108 21.718c2.451 6.261 8.619 10.12 15.171 10.119 11.268 0 19.176-10.906 15.164-21.159l-54.676-139.729zm-40.022 90.854l19.896-46.425a1.78 1.78 0 0 1 3.263 0l19.896 46.425c.502 1.171-.357 2.474-1.631 2.474h-39.793c-1.274 0-2.133-1.303-1.631-2.474z"/><path d="M296.432 150.563c16.272 0 24.937 19.818 13.645 31.929-3.424 3.673-8.014 5.718-12.923 5.718h-22.016c-2.828 0-5.121-2.293-5.121-5.121v-27.405c0-2.828 2.293-5.121 5.121-5.121h21.294zm-62.77 128.317c-1.886-4.984-1.29-.043-1.29-136.51 0-12.09 10.67-21.92 23.79-21.92h37.24c40.79 0 66 40.46 46.55 71.98-1.56 2.53-1.05 5.79 1.24 7.69 18.79 15.52 22.89 37.67 16.13 56.51m-87.3-1.37v-31.81a5.12 5.12 0 0 1 5.12-5.12h29.69c18.27 0 29.44 16.26 24.06 30.08m-126.64 85.2c-17.611-13.503-41.312-12.902-58.29 1.25-6.52 5.43-14.94 5.43-21.45 0-6.37-5.3-15.83-4.44-21.13 1.92-5.3 6.37-4.44 15.82 1.92 21.13 17.62 14.68 42.24 14.68 59.86 0 6.463-5.383 14.894-5.476 21.46 0 4.52 3.76 9.49 6.56 14.69 8.39m184.63 80.99l47.49 46.21c17 16.55 44.76 13.99 58.45-5.38s6.83-46.39-14.44-56.89l-58.56-28.91" class="D"/><path d="M316.085 247.225c-71.693-2.437-127.417 61.5-115.303 132.018 11.955 69.588 84.124 111.247 150.389 86.872 50.164-18.429 81.612-70.557 72.239-125.117-9.221-53.684-54.933-91.967-107.325-93.773z"/><path d="M287.467 296.889c-29.463 11.435-47.803 42.373-42.246 74.72 5.47 31.841 32.286 54.656 63.242 56.279 43.245 2.382 77.904-36.202 70.508-79.255-7.253-42.219-51.451-67.329-91.504-51.744z"/><path d="M266.214 40.814l-.023 12m-72.739 24.048l11.366 3.145c8.756 2.422 14.853-8.559 8.167-14.71h0c-3.15-2.897-3.139-7.872.023-10.755h0c6.712-6.121.663-17.13-8.103-14.745l-11.379 3.095m-38.909 8.823c.017-7.767-6.265-14.076-14.032-14.094s-14.076 6.265-14.093 14.032" class="D"/></g><defs ><path id="B" d="M128.024 421.554v80.24c-3.24-1.47-6.22-3.52-8.79-6.09l-95.36-95.36c-2.57-2.57-4.62-5.55-6.09-8.79h80.24c16.57 0 30 13.43 30 30z"/></defs></svg>