<svg xmlns="http://www.w3.org/2000/svg" height="512" width="512" xmlns:v="https://vecta.io/nano"><path d="M486.3 136.565c-2.17-2.17-5.43-2.8-8.25-1.6-7.63 3.27-15.76 4.92-24.14 4.92-34 0-61.66-27.66-61.66-61.66 0-8.39 1.65-16.51 4.91-24.15 1.2-2.81.58-6.08-1.59-8.24-2.16-2.17-5.42-2.8-8.24-1.6-28.33 12.06-46.63 39.75-46.63 70.54 0 42.27 34.39 76.66 76.66 76.66 30.79 0 58.48-18.3 70.54-46.63 1.2-2.82.57-6.08-1.6-8.24zm-68.941 39.87c-34 0-61.66-27.66-61.66-61.66 0-18.71 8.39-35.99 22.32-47.51-.52 3.61-.77 7.26-.77 10.96 0 42.27 34.39 76.66 76.66 76.66 3.69 0 7.35-.26 10.95-.77-11.509 13.92-28.799 22.32-47.5 22.32zm37.881 57.41H435.5v-19.75c0-4.14-3.36-7.5-7.5-7.5s-7.5 3.36-7.5 7.5v19.75h-19.75c-4.14 0-7.5 3.36-7.5 7.5s3.36 7.5 7.5 7.5h19.75v19.74a7.5 7.5 0 1 0 15 0v-19.74h19.74a7.5 7.5 0 1 0 0-15zM85.49 99.295H65.75v-19.75c0-4.14-3.36-7.5-7.5-7.5a7.5 7.5 0 0 0-7.5 7.5v19.75H31c-4.14 0-7.5 3.36-7.5 7.5s3.36 7.5 7.5 7.5h19.75v19.74a7.49 7.49 0 0 0 7.5 7.5 7.5 7.5 0 0 0 7.5-7.5v-19.74h19.74c4.14 0 7.5-3.36 7.5-7.5s-3.361-7.5-7.5-7.5zm295.43 362.98l-36.94-40.44c-1.42-1.55-3.43-2.44-5.53-2.44h-40.76c24.03-15.4 30.07-36.93 30.07-54.67v-129.69c0-7.33-.98-14.57-2.91-21.52-9.01-32.67-37.71-56.09-71.11-58.86 11.77-12.52 19-29.36 19-47.86 0-14.66-4.48-28.68-12.95-40.57-13.13-18.42-34.44-29.4-57.01-29.4-38.19 0-69.41 30.87-69.95 68.96l-.01-.01c-.01.23-.01.46-.01.69v.05.01.27c0 35 25.84 64.08 59.44 69.18-9.18 8.5-16.43 19.14-20.87 31.27l-34.92-34.92c-6.06-6.06-14.12-9.4-22.7-9.4s-16.64 3.34-22.69 9.4c-6.07 6.06-9.42 14.12-9.42 22.7a31.88 31.88 0 0 0 9.41 22.7l75.4 75.4v36.03l-81.52 32.67c-.36.14-.72.32-1.06.52-18.25 10.91-29.58 30.88-29.58 52.13 0 33.47 27.23 60.7 60.7 60.7h260.69.02c4.14 0 7.5-3.36 7.5-7.5 0-2.12-.88-4.03-2.29-5.4zm-68.16-105.05h-131.3v-15.49h131.3zm-109.98-305.4c16.1 0 31.39 7.11 41.78 19.25-14.78 22.45-40.05 36.2-67.1 36.2-10.2 0-20.08-1.87-29.42-5.56 2.58-27.93 26.18-49.89 54.74-49.89zm-53.83 66.11c9.17 2.88 18.71 4.34 28.51 4.34 29.82 0 57.83-14.09 75.71-37.44 3 6.86 4.57 14.3 4.57 21.96 0 30.31-24.65 54.97-54.96 54.97-26.49 0-48.66-18.84-53.83-43.83zm-47.28 89.18a16.93 16.93 0 0 1-5.02-12.09 16.95 16.95 0 0 1 5.02-12.09 16.98 16.98 0 0 1 12.09-5.01c4.57 0 8.87 1.78 12.1 5.01l44.03 44.04a7.51 7.51 0 0 0 7.55 1.85c2.67-.84 4.65-3.09 5.14-5.84a53.92 53.92 0 0 1 1.26-5.48c7.81-28.33 33.83-48.12 63.27-48.12 29.45 0 55.47 19.79 63.28 48.14 1.58 5.65 2.37 11.54 2.37 17.51v91.7h-131.3v-31.76l57.96-24.77c3.81-1.63 5.58-6.04 3.95-9.85-1.63-3.8-6.04-5.57-9.85-3.95l-57.84 24.73zM115 460.175c-25.2 0-45.7-20.5-45.7-45.7 0-15.81 8.33-30.68 21.79-38.96l75.37-30.2v19.41a7.5 7.5 0 0 0 7.5 7.5h138.35c-3.03 23.97-21.1 39.44-55 47.17H153.12c-4.14 0-7.5 3.36-7.5 7.5s3.36 7.5 7.5 7.5h182.02l23.54 25.78z"/><path d="M244.56 71.075c-14.78 22.45-40.05 36.2-67.1 36.2-10.2 0-20.08-1.87-29.42-5.56 2.58-27.93 26.18-49.89 54.74-49.89 16.099 0 31.39 7.11 41.78 19.25zm114.12 389.1H115c-25.2 0-45.7-20.5-45.7-45.7 0-15.81 8.33-30.68 21.79-38.96l75.37-30.2v19.41a7.5 7.5 0 0 0 7.5 7.5h138.35c-3.03 23.97-21.1 39.44-55 47.17H153.12c-4.14 0-7.5 3.36-7.5 7.5s3.36 7.5 7.5 7.5h182.02z" fill="#2d9548"/><path d="m312.76 235.035v91.7h-131.3v-31.76l57.96-24.77c3.81-1.63 5.58-6.04 3.95-9.85-1.63-3.8-6.04-5.57-9.85-3.95l-57.84 24.73-74.01-74.02c-3.24-3.22-5.02-7.52-5.02-12.09s1.78-8.86 5.02-12.09c3.23-3.23 7.52-5.01 12.09-5.01s8.87 1.78 12.1 5.01l44.03 44.04c1.98 1.97 4.89 2.69 7.55 1.85 2.67-.84 4.65-3.09 5.14-5.84.33-1.87.75-3.7 1.26-5.48 7.81-28.33 33.83-48.12 63.27-48.12 29.45 0 55.47 19.79 63.28 48.14 1.58 5.65 2.37 11.54 2.37 17.51z" fill="#41b75d"/><path d="m181.46 341.735h131.3v15.49h-131.3z" fill="#2d9548"/><path d="m464.859 154.115c-11.51 13.92-28.8 22.32-47.5 22.32-34 0-61.66-27.66-61.66-61.66 0-18.71 8.39-35.99 22.32-47.51-.52 3.61-.77 7.26-.77 10.96 0 42.27 34.39 76.66 76.66 76.66 3.691 0 7.351-.26 10.95-.77z" fill="#e2ab25"/><path d="m257.74 106.795c0 30.31-24.65 54.97-54.96 54.97-26.49 0-48.66-18.84-53.83-43.83 9.17 2.88 18.71 4.34 28.51 4.34 29.82 0 57.83-14.09 75.71-37.44 3 6.86 4.57 14.3 4.57 21.96z" fill="#f3d2a9"/></svg>