<svg xmlns="http://www.w3.org/2000/svg" xmlns:xlink="http://www.w3.org/1999/xlink" width="512" height="512" xmlns:v="https://vecta.io/nano"><style><![CDATA[.B{stroke-linejoin:round}.C{stroke-miterlimit:10}.D{stroke-linecap:round}]]></style><path d="M256 336.789c0-11.387-6.71-21.757-17.189-26.326-13.652-5.953-35.152-10.07-63.47.833-46.188 17.784-52.555 59.937-53.404 73.178a10.95 10.95 0 0 1-3.07 6.932c-10.637 10.978-44.656 51.688-10.564 93.37 40.535 49.558 83.3-9.576 127.379-12.194h0c11.221 0 20.317-9.054 20.317-20.223v-115.57z" fill="#fe99a0"/><path d="M238.811 310.463c-10.43-4.548-25.446-8.016-44.578-4.541 5.562 1.1 10.434 2.734 14.578 4.541C219.29 315.032 226 325.402 226 336.789V452.36c0 11.169-14.411 10.195-31.847 19.426-16.817 8.903-39.179 22.857-63.691 30.158 33.855 12.872 69.096-27.217 105.22-29.362h0c11.221 0 20.317-9.054 20.317-20.223v-115.57c.001-11.387-6.709-21.757-17.188-26.326z" fill="#fe76a8"/><use xlink:href="#B" fill="#fe99a0"/><path d="M393.133 391.406a10.95 10.95 0 0 1-3.07-6.932c-.849-13.241-7.216-55.394-53.404-73.178-19.722-7.594-36.132-7.898-48.892-5.375 5.91 1.073 12.209 2.801 18.892 5.375 46.188 17.784 52.555 59.937 53.404 73.178a10.95 10.95 0 0 0 3.07 6.932c10.637 10.978 44.656 51.688 10.564 93.37-7.315 8.944-14.704 14.333-22.159 17.168 17.734 5.282 35.143 3.636 52.159-17.168 34.092-41.682.072-82.392-10.564-93.37z" fill="#fe76a8"/><path d="M423.296 83.791c-.994-.233-1.767-.991-2.023-1.977-7.137-27.545-32.184-47.896-62.009-47.896a63.82 63.82 0 0 0-31.882 8.486 2.67 2.67 0 0 1-3.466-.714C308.53 20.949 283.84 7.5 256 7.5s-52.53 13.449-67.917 34.189a2.67 2.67 0 0 1-3.466.714c-9.39-5.392-20.271-8.486-31.882-8.486-29.825 0-54.872 20.351-62.009 47.896-.256.987-1.029 1.744-2.023 1.977-32.345 7.599-56.006 37.668-53.526 72.804 2.427 34.377 30.21 62.027 64.652 64.403 10.197.703 19.955-.805 28.869-4.064 1.287-.47 2.72.117 3.317 1.349 10.359 21.399 32.299 36.165 57.703 36.165 7.683 0 14.606-3.84 21.868-3.84 32.81 0 31.875 40.892 44.413 40.892s11.687-40.892 44.413-40.892c7.261 0 14.185 3.84 21.868 3.84 25.404 0 47.344-14.767 57.703-36.165a2.67 2.67 0 0 1 3.317-1.349c8.914 3.259 18.671 4.768 28.869 4.064 34.442-2.376 62.226-30.026 64.652-64.403 2.481-35.135-21.18-65.204-53.525-72.803z" fill="#f9f3f1"/><path d="M423.297 83.791a2.73 2.73 0 0 1-2.024-1.981c-6.98-26.933-31.086-46.975-60.036-47.85 13.34 7.693 23.647 20.041 28.682 34.827 1.25 3.671 4.158 6.58 7.865 7.718 30.017 9.214 51.402 38.1 49.038 71.59-2.427 34.377-30.21 62.027-64.652 64.403-6.564.453-12.947-.011-19.039-1.268-6.896-1.423-14.076 1.217-18.076 7.012-11.552 16.734-30.876 27.706-52.774 27.706-7.683 0-14.606-3.84-21.868-3.84-18.418 0-26.201 12.952-31.721 24.278C246.018 277.899 248.769 291.5 256 291.5c12.538 0 11.688-40.892 44.413-40.892 7.261 0 14.185 3.84 21.868 3.84 25.404 0 47.343-14.766 57.703-36.164.596-1.23 2.033-1.819 3.317-1.35 8.914 3.259 18.672 4.768 28.869 4.064 34.442-2.376 62.226-30.026 64.652-64.403 2.48-35.136-21.181-65.204-53.525-72.804z" fill="#f3eae6"/><use xlink:href="#C" fill="#62dbfb"/><path d="M96.463 226.487v56h68v-56a4 4 0 0 0-4-4h-60a4 4 0 0 0-4 4z" fill="#f9f3f1"/><path d="M193.291 188.105l-28.828-28.828v119.211a4 4 0 0 1-4 4h30a4 4 0 0 0 4-4v-87.554c-.001-1.061-.422-2.079-1.172-2.829z" fill="#60b7ff"/><path d="M160.463 222.487h-30a4 4 0 0 1 4 4v56h30v-56a4 4 0 0 0-4-4z" fill="#f3eae6"/><use xlink:href="#D" fill="#fee45a"/><path d="M326.081 95.931h-30a4 4 0 0 1 4 4v75.92a4 4 0 0 1-4 4h30a4 4 0 0 0 4-4v-75.92a4 4 0 0 0-4-4z" fill="#fec165"/><path d="M247.081 145.088v34.763h53v-34.763a4 4 0 0 0-4-4h-45a4 4 0 0 0-4 4z" fill="#62dbfb"/><g fill="none" stroke="#000" stroke-width="15" class="B C"><g class="D"><path d="M97.469 424.688c-6.207 17.088-6.858 38.457 10.834 60.088 40.535 49.558 83.3-9.576 127.379-12.194h0c11.221 0 20.317-9.054 20.317-20.223v-115.57c0-11.387-6.71-21.757-17.189-26.326-13.652-5.953-35.152-10.07-63.47.833-46.188 17.784-52.555 59.937-53.404 73.178a10.95 10.95 0 0 1-3.07 6.932 99.16 99.16 0 0 0-3.099 3.353"/><path d="M124.187 382.725c12.482 10.918 28.39 17.897 44.908 19.702m84.552-29.273c-9.256 3.192-19.688 2.869-28.727-.889s-18.9-11.1-20.828-25.271m49.139 77.617c-12.452-1.317-25.26 1.477-36.15 7.609m-43.995 62.617c-.8-9.627-5.104-18.927-11.934-25.789s-16.134-11.232-25.798-12.118m47.135-77.905c-9.06 12.494-12.977 28.586-10.816 43.835m13.68-78.377c11.5 3.855 24.856 1.684 34.526-5.612m-3.847 108.289c-.571-9.728-5.135-19.186-12.392-25.725"/></g><use xlink:href="#B"/><path d="M387.813 382.725c-12.482 10.918-28.39 17.897-44.908 19.702m-84.552-29.273c9.256 3.192 19.688 2.869 28.727-.889s18.9-11.1 20.828-25.271m-49.139 77.617c12.452-1.317 25.26 1.477 36.15 7.609m43.995 62.617c.8-9.627 5.104-18.927 11.934-25.789s16.134-11.232 25.798-12.118m-47.135-77.905c9.06 12.494 12.977 28.586 10.816 43.835m-13.68-78.377c-11.5 3.855-24.856 1.684-34.526-5.612m3.847 108.289c.571-9.728 5.135-19.186 12.392-25.725m69.881-384.663c-5.996-1.855-12.369-2.854-18.977-2.854a63.82 63.82 0 0 0-31.882 8.486 2.67 2.67 0 0 1-3.466-.714C308.53 20.949 283.84 7.5 256 7.5s-52.53 13.449-67.917 34.189a2.67 2.67 0 0 1-3.466.714c-9.39-5.392-20.271-8.486-31.882-8.486-29.825 0-54.872 20.351-62.009 47.896-.256.987-1.029 1.744-2.023 1.977-32.345 7.599-56.006 37.668-53.526 72.804 1.488 21.083 12.514 39.636 28.763 51.38m134.335 45.215c4.48-1.12 8.832-2.581 13.312-2.581 32.81 0 31.875 40.892 44.413 40.892s11.687-40.892 44.413-40.892c7.261 0 14.185 3.84 21.868 3.84 25.404 0 47.344-14.767 57.703-36.165a2.67 2.67 0 0 1 3.317-1.349c8.914 3.259 18.671 4.768 28.869 4.064 34.442-2.376 62.226-30.026 64.652-64.403 2.48-35.136-21.181-65.205-53.526-72.804-.994-.233-1.767-.991-2.023-1.977-2.567-9.905-7.449-18.881-14.038-26.314" class="D"/><use xlink:href="#C"/><path d="M96.463 226.487v56h68v-56a4 4 0 0 0-4-4h-60a4 4 0 0 0-4 4z"/><path d="M137.823 178.179v15m-15.514 53.359h16.308" class="D"/><use xlink:href="#D"/><path d="M247.081 145.088v34.763h53v-34.763a4 4 0 0 0-4-4h-45a4 4 0 0 0-4 4z"/><path d="M361.821 95.129h20.826m-20.826 26.462h44.769m-44.769 26.461h44.769m-44.769 26.462h44.769" class="D"/></g><defs ><path id="B" d="M256 336.789c0-11.387 6.71-21.757 17.189-26.326 13.652-5.953 35.152-10.07 63.47.833 46.188 17.784 52.555 59.937 53.404 73.178a10.95 10.95 0 0 0 3.07 6.932c10.637 10.978 44.656 51.688 10.564 93.37-40.535 49.558-83.3-9.576-127.379-12.194h0c-11.221 0-20.317-9.054-20.317-20.223v-115.57z"/><path id="C" d="M194.462 190.933v87.554a4 4 0 0 1-4 4h-120a4 4 0 0 1-4-4v-120a4 4 0 0 1 4-4h87.554c1.061 0 2.078.421 2.828 1.172l32.446 32.446c.751.75 1.172 1.768 1.172 2.828z"/><path id="D" d="M330.081 99.931v75.92a4 4 0 0 1-4 4h-105a4 4 0 0 1-4-4v-96a4 4 0 0 1 4-4h41.845a4 4 0 0 1 3.196 1.594l12.717 16.892a4 4 0 0 0 3.196 1.594h44.047a4 4 0 0 1 3.999 4z"/></defs></svg>