<svg xmlns="http://www.w3.org/2000/svg" height="512" width="512" fill-rule="evenodd" xmlns:v="https://vecta.io/nano"><path d="m251.505 436.978c-77.383-45.457-219.75-149.785-221.649-253.885-2.115-115.892 128.149-168.452 226.145-68.807 97.982-99.63 228.239-47.105 226.144 68.788-1.88 104.107-144.262 208.444-221.649 253.905-2.852 1.672-6.141 1.672-8.991-.001z" fill="#fe646f"/><path d="M251.506 436.979l-13.268-7.995c79.295-48.898 206.604-147.503 208.382-245.911 1.202-66.44-41.104-112.042-95.883-120.094 70.826-10.017 132.859 39.832 131.408 120.094-1.88 104.107-144.262 208.444-221.649 253.905-2.852 1.673-6.141 1.673-8.99.001z" fill="#fd4755"/><path d="M396.286 262.796l-18.796 18.795-155.312 184.897c-1.682 2.002-3.888 3.089-6.501 3.203s-4.905-.778-6.754-2.627L94.725 352.865c-1.849-1.849-2.741-4.141-2.627-6.754s1.2-4.819 3.202-6.501l184.897-155.313 18.795-18.795z" fill="#8d9ca8"/><g fill="#8192a5"><path d="M396.286 262.796l-18.796 18.795-155.312 184.897c-1.682 2.002-3.888 3.089-6.501 3.203s-4.905-.778-6.754-2.627l-10.765-10.765c1.814 1.718 4.035 2.543 6.555 2.434a8.7 8.7 0 0 0 6.501-3.203l155.313-184.897 18.795-18.795-86.334-86.334.003-.003z"/><path d="m335.898 331.107-89.04 106-110.715-131.806 84.517-70.994z"/></g><path d="m335.898 331.107-89.04 106-10.083-12.005 87.298-103.927z" fill="#65788e"/><path d="M384.372 62.023l13.443-13.443c8.374-8.375 22.075-8.374 30.449.001s8.37 22.079 0 30.448l-.467.467c8.49-5.474 19.998-4.503 27.414 2.913 8.41 8.41 8.544 22.139.293 30.709 6.972-2.376 15.019-.799 20.553 4.736 7.742 7.742 7.741 20.405.002 28.144l-2.285 2.284c5.871-.842 12.062.982 16.551 5.471 7.565 7.565 7.563 19.934.003 27.494l-63.767 63.768c-6.537 6.537-13.608 10.674-22.51 13.168-2.857.801-5.51 2.358-7.769 4.616l-11.839 11.839a9.86 9.86 0 0 1-13.913 0l-83.383-83.383a9.86 9.86 0 0 1 0-13.912l11.84-11.84c10.33-10.33 5.172-25.159 1.801-37.937-3.647-13.829-2.188-27.918 6.991-38.887l24.315-29.055c15.141-15.142 31.885-17.993 47.02-2.858z" fill="#f6dccd"/><path d="M421.24 43.907c2.56 1.047 4.955 2.604 7.025 4.674 8.381 8.381 8.36 22.089 0 30.449l-25.426 25.426c-3.216 3.217-8.48 3.217-11.697 0s-3.217-8.48 0-11.697l25.426-25.426c6.301-6.302 7.86-15.628 4.672-23.426zm34.264 69.211c8.189-8.505 8.18-22.236-.293-30.709a21.75 21.75 0 0 0-7.004-4.7c3.276 7.84 1.826 17.244-4.4 23.711l-25.059 25.059a8.3 8.3 0 0 0 0 11.697 8.3 8.3 0 0 0 11.697 0zm20.556 32.879l-27.13 27.13c-3.216 3.217-8.48 3.217-11.697 0s-3.217-8.481 0-11.697l24.846-24.846 2.284-2.284c5.656-5.657 7.178-13.943 4.565-21.016 2.605.962 5.045 2.485 7.129 4.569 7.851 7.85 7.632 20.515.003 28.144zM371.988 51.014c2.407 1.501 4.786 3.411 7.127 5.753l5.257 5.257-31.062 31.061a8.3 8.3 0 0 1-11.697 0c-3.217-3.217-3.217-8.481 0-11.697zm111.177 98.206c2.452 6.865.941 14.858-4.532 20.33l-63.767 63.768c-6.537 6.537-13.608 10.674-22.51 13.168-2.856.801-5.51 2.358-7.769 4.616l-11.84 11.839a9.86 9.86 0 0 1-13.913-.001l11.697 11.697a9.86 9.86 0 0 0 13.913.001l11.839-11.839c2.259-2.259 4.913-3.815 7.769-4.616 8.902-2.494 15.973-6.631 22.51-13.168l63.767-63.768c7.56-7.56 7.562-19.929-.003-27.494-2.087-2.088-4.541-3.598-7.161-4.533z" fill="#f1cbbc"/><path d="m396.285 262.8-18.796 18.795-21.923-21.923-75.373-75.373 18.796-18.795z" fill="#d1d1d6"/><path d="M365.725 269.906l18.793-18.793 11.695 11.695-18.793 18.793z" fill="#b1b1b5"/><path d="M115.714 262.796l18.795 18.795 155.313 184.897c1.682 2.002 3.888 3.089 6.501 3.203s4.904-.778 6.754-2.627l114.199-114.199c1.849-1.849 2.74-4.141 2.627-6.754a8.7 8.7 0 0 0-3.203-6.501L231.804 184.297l-18.796-18.795z" fill="#9facba"/><path d="M115.714 262.796l18.795 18.795 155.313 184.897c1.682 2.002 3.888 3.089 6.501 3.203s4.904-.778 6.754-2.627l10.765-10.765c-1.814 1.718-4.035 2.543-6.555 2.434a8.7 8.7 0 0 1-6.501-3.203L145.472 270.633l-18.795-18.795 86.334-86.334-.003-.003z" fill="#8d9ca8"/><path d="M127.628 62.023L114.184 48.58c-8.374-8.375-22.075-8.374-30.449.001s-8.37 22.079 0 30.448l.467.467c-8.49-5.474-19.998-4.503-27.414 2.913-8.41 8.41-8.544 22.139-.293 30.709-6.972-2.376-15.019-.799-20.553 4.736-7.742 7.742-7.741 20.405-.002 28.144l2.285 2.284c-5.871-.842-12.062.982-16.551 5.471-7.565 7.565-7.563 19.934-.003 27.494l63.766 63.768c6.537 6.537 13.608 10.674 22.51 13.168 2.856.801 5.51 2.358 7.769 4.616l11.839 11.839a9.86 9.86 0 0 0 13.913 0l83.383-83.383a9.86 9.86 0 0 0 0-13.912l-11.839-11.84c-10.33-10.33-5.172-25.159-1.801-37.937 3.647-13.829 2.188-27.918-6.991-38.887l-24.314-29.055c-15.141-15.142-31.885-17.993-47.02-2.858z" fill="#f6dccd"/><path d="M90.76 43.907c-2.56 1.047-4.955 2.604-7.025 4.674-8.381 8.381-8.36 22.089 0 30.449l25.426 25.426c3.216 3.217 8.48 3.217 11.697 0s3.217-8.48 0-11.697L95.432 67.332c-6.301-6.301-7.86-15.627-4.672-23.425zm-34.264 69.211c-8.189-8.505-8.18-22.236.293-30.709a21.75 21.75 0 0 1 7.004-4.7c-3.276 7.84-1.826 17.244 4.401 23.711l25.059 25.059a8.3 8.3 0 0 1 0 11.697 8.3 8.3 0 0 1-11.697 0zM35.94 145.997l27.13 27.13c3.216 3.217 8.48 3.217 11.697 0s3.217-8.481 0-11.697l-24.846-24.846-2.284-2.284c-5.656-5.657-7.178-13.943-4.565-21.016-2.605.962-5.045 2.485-7.129 4.569-7.85 7.85-7.632 20.515-.003 28.144zm104.072-94.983c-2.407 1.501-4.786 3.411-7.128 5.753l-5.257 5.257 31.062 31.062a8.3 8.3 0 0 0 11.697 0c3.217-3.217 3.217-8.481 0-11.697zM28.836 149.22c-2.452 6.865-.941 14.858 4.532 20.33l63.767 63.768c6.537 6.537 13.608 10.674 22.51 13.168 2.856.801 5.51 2.358 7.769 4.616l11.84 11.839a9.86 9.86 0 0 0 13.913-.001l-11.697 11.697a9.86 9.86 0 0 1-13.913.001L115.716 262.8c-2.259-2.259-4.912-3.815-7.769-4.616-8.902-2.494-15.973-6.631-22.51-13.168l-63.766-63.768c-7.56-7.56-7.562-19.929.003-27.494a19.23 19.23 0 0 1 7.162-4.534z" fill="#f1cbbc"/><path d="m115.715 262.8 18.796 18.795 21.923-21.923 75.373-75.373-18.796-18.795z" fill="#d1d1d6"/><path d="M115.675 262.787l11.695-11.695 18.793 18.793-11.695 11.695z" fill="#b1b1b5"/><path d="M402.802 315.326l-26.406-22.16 7.013-8.308 18.545-18.54v-.009c1.271-1.271 2.683-2.132 4.283-2.57 10.214-2.862 18.451-7.7 25.982-15.212l37.326-37.321c-9.084 32.652-31.442 67.553-66.743 104.12zm-106.14 144.709l115.742-115.747L232.272 193l-86.889 86.917zm-81.288 0L99.632 344.288l46.268-38.86 99.645 118.646zM42.49 211.206c9.037 32.661 31.395 67.553 66.744 104.121l26.359-22.151-6.966-8.317-18.545-18.55c-1.271-1.261-2.73-2.132-4.283-2.57-10.214-2.862-18.498-7.7-26.029-15.212zM27.334 157.27c2.165-2.175 5.036-3.342 8.049-3.342a10.3 10.3 0 0 1 1.695.132c3.436.48 6.778-1.261 8.284-4.345 1.553-3.078.941-6.797-1.459-9.24l-2.307-2.278c-4.612-4.641-4.612-12.191 0-16.832 3.201-3.177 8.002-4.288 12.332-2.82 3.483 1.191 7.342-.169 9.319-3.281 1.977-3.121 1.553-7.178-.988-9.837-5.225-5.432-5.131-14.182.188-19.51 4.612-4.613 11.955-5.38 17.416-1.84 3.436 2.212 8.002 1.483 10.59-1.699 2.542-3.191 2.307-7.799-.612-10.689l-.424-.461c-5.319-5.272-5.319-13.862 0-19.129a13.41 13.41 0 0 1 9.555-3.944c3.624 0 7.013 1.403 9.555 3.944l45.751 45.727a7.98 7.98 0 0 0 11.296 0c3.154-3.121 3.154-8.19 0-11.311l-26.64-26.635c4.425-4.382 16.521-15.34 35.066 3.017l24.1 28.773c8.614 10.327 7.672 22.946 5.366 31.705-.235 1.003-.518 2.01-.8 3.022-2.871 10.572-6.637 24.429-.188 36.168l-87.642 87.642a25.53 25.53 0 0 0-4.707-1.878c-7.578-2.123-13.462-5.554-19.016-11.122l-63.778-63.759c-2.165-2.151-3.342-5.022-3.342-8.091s1.176-5.95 3.341-8.087zM134.51 268.135l-7.484-7.488 85.995-85.98 7.484 7.479zm121.484-147.998c-2.118 0-4.189-.861-5.695-2.391-10.92-11.099-22.405-20.437-34.407-27.959 5.554 10.849 6.684 23.892 3.059 37.669l-.847 3.13c-3.436 12.624-5.225 21.313.565 27.112l18.545 18.559 18.78 15.768 18.78-15.777 18.545-18.54.047-.009c5.789-5.799 3.954-14.502.565-27.112-.329-1.049-.612-2.09-.894-3.13-3.624-13.777-2.495-26.82 3.059-37.669-11.955 7.521-23.487 16.86-34.407 27.959-1.459 1.529-3.53 2.39-5.695 2.39zm121.485 147.998l7.484-7.488-85.948-85.98-7.484 7.479zM268.42 202.479l11.296-9.48 86.936 86.917-2.495 2.961zm69.568-139.582L313.936 91.67c-8.661 10.327-7.719 22.946-5.413 31.705l.847 3.022c2.871 10.572 6.59 24.429.141 36.168l87.642 87.642c1.506-.781 3.106-1.421 4.754-1.878 7.578-2.123 13.415-5.554 19.016-11.122l63.778-63.759c4.424-4.458 4.424-11.72-.047-16.192-2.542-2.556-6.119-3.728-9.743-3.196-3.389.48-6.731-1.261-8.284-4.345-1.553-3.078-.941-6.797 1.506-9.24l2.259-2.278c4.66-4.641 4.66-12.191 0-16.832-3.154-3.177-8.002-4.288-12.285-2.82-3.53 1.191-7.39-.169-9.367-3.281-1.977-3.121-1.553-7.188.988-9.837 5.225-5.432 5.177-14.182-.188-19.51-4.613-4.599-11.909-5.38-17.415-1.84-3.436 2.212-7.955 1.483-10.544-1.699s-2.353-7.79.565-10.68l.471-.471a13.56 13.56 0 0 0 0-19.138c-2.542-2.533-5.931-3.935-9.555-3.935s-7.06 1.403-9.602 3.935l-45.704 45.737c-1.6 1.563-3.624 2.349-5.695 2.349a7.98 7.98 0 0 1-5.648-2.349 8.03 8.03 0 0 1 0-11.311l26.641-26.636c-4.424-4.381-16.521-15.33-35.066 3.018zm158.01 121.861c10.685-10.703 10.685-28.11 0-38.808a27.86 27.86 0 0 0-8.19-5.611 27.95 27.95 0 0 0-6.072-30.294c-3.624-3.61-8.143-6.077-12.944-7.291 2.307-9.8-.376-20.578-7.907-28.147-5.13-5.112-11.767-8.02-18.639-8.609 1.318-8.934-1.459-18.361-8.331-25.219-5.554-5.559-12.944-8.623-20.852-8.623s-15.345 3.064-20.898 8.623l-7.766 7.79c-11.202-10.953-22.169-12.492-29.512-11.842-9.743.87-19.298 5.949-28.43 15.09-.188.169-.329.348-.471.532l-7.013 8.378c-22.405 8.279-43.539 21.769-62.978 40.201-19.392-18.441-40.573-31.932-62.931-40.201l-7.013-8.378c-.141-.184-.329-.363-.471-.532-19.016-19.002-40.667-20.211-57.942-3.248l-7.766-7.79c-11.532-11.513-30.265-11.513-41.797 0-6.872 6.858-9.602 16.286-8.284 25.219-6.872.589-13.556 3.497-18.639 8.609-7.578 7.569-10.214 18.348-7.908 28.147-4.848 1.214-9.32 3.681-12.944 7.291-8.19 8.18-10.214 20.211-6.119 30.294-3.012 1.351-5.789 3.238-8.143 5.611a27.24 27.24 0 0 0-8.049 19.406c0 7.343 2.871 14.229 8.049 19.402l6.449 6.449c4.142 42.131 29.136 87.298 74.463 134.428l-14.31 12.021c-1.694 1.44-2.73 3.53-2.824 5.771s.753 4.42 2.307 6.011l128.074 128.079c1.506 1.502 3.577 2.339 5.695 2.339.094 0 .188 0 .329-.009 2.259-.09 4.33-1.13 5.789-2.838l28.43-33.88c1.836.64 3.672.96 5.554.96s3.766-.32 5.554-.96l28.477 33.88a7.91 7.91 0 0 0 5.742 2.838 5.94 5.94 0 0 0 .376.009 7.99 7.99 0 0 0 5.648-2.339l128.074-128.079c1.6-1.591 2.448-3.77 2.354-6.011s-1.13-4.33-2.871-5.771l-14.262-12.021c45.28-47.13 70.321-92.297 74.463-134.428z"/></svg>