<svg xmlns="http://www.w3.org/2000/svg" viewBox="0 0 96 96" width="512" height="512" xmlns:v="https://vecta.io/nano"><path d="M82.24 34.25a1.08 1.08 0 0 1-.31-.75V14.07H62.5a1.08 1.08 0 0 1-.75-.31L48 0 34.25 13.76a1.08 1.08 0 0 1-.75.31H14.07V33.5a1.08 1.08 0 0 1-.31.75L0 48l13.76 13.75a1.08 1.08 0 0 1 .31.75v19.43H33.5a1.08 1.08 0 0 1 .75.31L48 96l13.75-13.76a1.08 1.08 0 0 1 .75-.31h19.43V62.5a1.08 1.08 0 0 1 .31-.75L96 48zm-6 25.44v15.48a1.07 1.07 0 0 1-1.06 1.06H59.69l-10.94 11a1.09 1.09 0 0 1-1.5 0l-10.94-11H20.83a1.07 1.07 0 0 1-1.06-1.06V59.69L8.82 48.75a1.07 1.07 0 0 1 0-1.5l11-10.94V20.83a1.07 1.07 0 0 1 1.06-1.06h15.43L47.25 8.82a1.07 1.07 0 0 1 1.5 0l10.94 11h15.48a1.07 1.07 0 0 1 1.06 1.06v15.43l11 10.94a1.07 1.07 0 0 1 0 1.5zm-1.81-22.2a1.08 1.08 0 0 1-.31-.75V21.88H59.26a1.08 1.08 0 0 1-.75-.31L48 11.06 37.49 21.57a1.08 1.08 0 0 1-.75.31H21.88v14.86a1.08 1.08 0 0 1-.31.75L11.06 48l10.51 10.51a1.08 1.08 0 0 1 .31.75v14.86h14.86a1.08 1.08 0 0 1 .75.31L48 84.94l10.51-10.51a1.08 1.08 0 0 1 .75-.31h14.86V59.26a1.08 1.08 0 0 1 .31-.75L84.94 48zm-28-5a1.06 1.06 0 0 1 2.11 0v2a.6.6 0 0 0 .61.6h.9V33a1.06 1.06 0 1 1 2.11 0v2h.9a.61.61 0 0 0 .62-.6v-2a1.05 1.05 0 1 1 2.1 0v2a2.71 2.71 0 0 1-2.72 2.71h-3.9a2.71 2.71 0 0 1-2.72-2.71zm18.72 21.36c-3.23.8-9.78 1.36-11.76 3.59a2.67 2.67 0 0 0-.8 2.1 4.33 4.33 0 0 0 1.8 2.53 1 1 0 0 1 .3 1.45l-.35.54a1.07 1.07 0 0 1-1.25.41l-1.83-.7a6.07 6.07 0 0 1-3.89-5l-.57-4.75c-4.46 4.61-10.41 10.35-15.22 6.18-3.83-3.31-1.11-7.32.83-12a1.053 1.053 0 0 1 1.94.82c-2 4.8-3.9 7.44-1.4 9.61 3.32 2.87 8-1.48 13.25-7l.18-.19a51.6 51.6 0 0 0-5-14.36 1.056 1.056 0 1 1 1.86-1c4.7 9 5.41 16 6.17 22.44a4 4 0 0 0 1.44 2.62 4.49 4.49 0 0 1 .92-5.11c1.57-1.77 4.7-2.65 7.71-3.25H50a1.24 1.24 0 0 1-.63-2.3l10.51-6.35-1.3-3a1.86 1.86 0 0 1 2.28-2.51l3.89 1.24a2 2 0 0 1 .41 3.54L62.53 45l.37.86a1 1 0 0 1-.55 1.38 1.07 1.07 0 0 1-1.35-.55l-.25-.6-7.65 4.61h11.66a1.6 1.6 0 0 1 .39 3.15zm-1.36-12.07l-2.1 1.27-.96-2.25 3.06.98z"/></svg>