<svg xmlns="http://www.w3.org/2000/svg" xmlns:xlink="http://www.w3.org/1999/xlink" height="512" viewBox="0 0 64 64" width="512" xmlns:v="https://vecta.io/nano"><path d="M28.365 33.646l5.09 5.09-18.382 18.382-5.09-5.09z" fill="#ffd939"/><path d="M54.019 52.086l-5.09 5.09-18.382-18.382 5.09-5.09z" fill="#f4b322"/><g fill="#21293d"><path d="M15.1 58.1c-.3 0-.5-.1-.7-.3l-5.1-5.1c-.2-.1-.3-.4-.3-.7s.1-.5.3-.7L27.6 33c.4-.4 1-.4 1.4 0l5.1 5.1c.2.2.3.4.3.7s-.1.5-.3.7L15.8 57.9c-.2.1-.5.2-.7.2zM11.4 52l3.7 3.7 17-17-3.7-3.7z"/><path d="M48.9 58.1c-.3 0-.5-.1-.7-.3L29.8 39.5c-.2-.2-.3-.4-.3-.7s.1-.5.3-.7l5.1-5.1c.4-.4 1-.4 1.4 0l18.4 18.4c.2.2.3.4.3.7s-.1.5-.3.7l-5.1 5.1c-.2.1-.4.2-.7.2zM32 38.8l17 17 3.7-3.7-17-17z"/></g><path d="M32 18.2S20.4 7.8 3 10.1v31.2c17.4-2.3 29 8.1 29 8.1S43.6 39 61 41.3V10.1c-17.4-2.3-29 8.1-29 8.1z" fill="#69cc5a"/><path d="M16.6 42c9.6 2.2 15.4 7.4 15.4 7.4S43.6 39 61 41.3V10.1c-2.8-.4-5.5-.4-7.9-.2-3.9 10-13.9 27.8-36.5 32.1z" fill="#449b38"/><g fill="#21293d"><path d="m32 50.4c-.2 0-.5-.1-.7-.3-.1-.1-11.5-10-28.2-7.8-.3 0-.6 0-.8-.2s-.3-.4-.3-.7v-31.3c0-.5.4-.9.9-1 17.6-2.3 29.3 7.9 29.8 8.3.2.2.3.5.3.7v31.2c0 .4-.2.8-.6.9-.1.2-.3.2-.4.2zm-23.9-10.4c11.3 0 19.5 5 22.9 7.4v-28.7c-2-1.6-12.4-9.3-27-7.7v29.2c1.4-.1 2.8-.2 4.1-.2z"/><path d="M32 50.4c-.1 0-.3 0-.4-.1-.4-.2-.6-.5-.6-.9V18.2c0-.3.1-.6.3-.7.5-.5 12.2-10.7 29.8-8.3.5.1.9.5.9 1v31.2c0 .3-.1.6-.3.8s-.5.3-.8.2c-16.7-2.2-28.1 7.7-28.2 7.8-.2.2-.5.2-.7.2zm1-31.7v28.7c3.8-2.7 13.6-8.5 27-7.1V11c-14.7-1.6-25 6.1-27 7.7z"/></g><path d="M32 14.2s-10.1-9-25.3-7v27.2c15.1-2 25.3 7 25.3 7s10.1-9 25.3-7V7.1C42.1 5.1 32 14.2 32 14.2z" fill="#efefef"/><g opacity=".5"><path d="M8.9 10.1c15.1-2 25.3 7 25.3 7S43.4 9 57.3 9.9V7.1c-15.1-2-25.3 7-25.3 7s-10.1-9-25.3-7v27.2c.7-.1 1.5-.2 2.2-.2z" fill="#fff"/></g><path d="M50.3 7c-2.4 8.8-9.6 26.5-28.6 28.8C28.2 38 32 41.4 32 41.4s10.1-9 25.3-7V7.1c-2.5-.3-4.8-.3-7-.1z" fill="#e0e0e0"/><g fill="#21293d"><path d="m32 42.4c-.2 0-.5-.1-.7-.3-.1-.1-10-8.7-24.5-6.8-.3 0-.6 0-.8-.2s-.3-.5-.3-.8v-27.2c0-.5.4-.9.9-1 15.4-2 25.6 6.9 26.1 7.3.2.2.3.5.3.7v27.2c0 .4-.2.8-.6.9-.1.1-.3.2-.4.2zm-20.8-9.3c9.7 0 16.8 4.1 19.8 6.3v-24.8c-1.8-1.4-10.7-7.9-23.3-6.6v25.2c1.2-.1 2.4-.1 3.5-.1z"/><path d="M32 42.4c-.1 0-.3 0-.4-.1-.4-.2-.6-.5-.6-.9V14.2c0-.3.1-.6.3-.7.5-.5 10.7-9.4 26.1-7.3.5.1.9.5.9 1v27.2c0 .3-.1.6-.3.8s-.5.3-.8.2c-14.5-1.9-24.4 6.7-24.5 6.8-.2.1-.5.2-.7.2zm1-27.8v24.7c3.4-2.4 11.8-7.3 23.3-6.1V8C43.7 6.7 34.8 13.2 33 14.6z"/><use xlink:href="#B"/><use xlink:href="#B" y="5.7"/><path d="m36.4 31.5c-.3 0-.7-.2-.8-.5-.3-.5-.1-1.1.3-1.4 3.3-2.1 8.7-4.6 15.5-5 .5 0 1 .4 1 .9 0 .6-.4 1-.9 1-6.3.3-11.4 2.7-14.5 4.7-.2.2-.4.3-.6.3z"/><use xlink:href="#C"/><path d="m27.6 25.7c-.2 0-.4 0-.5-.2-3.1-2-8.2-4.3-14.5-4.7-.6 0-1-.5-.9-1 0-.6.5-1 1-.9 6.7.3 12.1 2.9 15.5 5 .5.3.6.9.3 1.4-.2.3-.6.4-.9.4z"/><use xlink:href="#C" y="11.5"/></g><defs ><path id="B" d="m36.4 20c-.3 0-.7-.2-.8-.5-.3-.5-.1-1.1.3-1.4 3.3-2.1 8.7-4.6 15.5-5 .5 0 1 .4 1 .9 0 .6-.4 1-.9 1-6.3.3-11.4 2.7-14.5 4.7-.2.3-.4.3-.6.3z"/><path id="C" d="m27.6 20c-.2 0-.4 0-.5-.2-3.1-2-8.2-4.3-14.5-4.7-.6 0-1-.5-.9-1 0-.6.5-1 1-.9 6.7.3 12.1 2.9 15.5 5 .5.3.6.9.3 1.4-.2.2-.6.4-.9.4z"/></defs></svg>