<svg enable-background="new 0 0 3873 3873" height="512" viewBox="0 0 3873 3873" width="512" xmlns="http://www.w3.org/2000/svg"><g id="Layer_1"><g><g><g><path clip-rule="evenodd" d="m2710.2 1997.3c-33.5 0-60.4-27.1-60.4-60.5.4-388.7-313.5-705.7-705.8-705.7-33.4 0-60.4-27.1-60.4-60.4 0-32.7 26.1-60.5 61.2-60.5 454.1 0 826.4 367.4 826 826.8-.1 33.3-27.2 60.3-60.6 60.3z" fill-rule="evenodd"/></g><g><path clip-rule="evenodd" d="m3117.9 1997.3c-33.5 0-60.4-27.1-60.4-60.5.4-613.5-495.3-1113.4-1113.4-1113.4-33.4 0-60.4-27.1-60.4-60.4 0-32.6 26.1-60.5 61.1-60.5 684.2 0 1234.1 555.2 1233.7 1234.5-.1 33.3-27.2 60.3-60.6 60.3z" fill-rule="evenodd"/></g><g><path clip-rule="evenodd" d="m3497.6 1997.3c-33.4 0-60.4-27.1-60.4-60.4.4-823.7-665.7-1493.1-1493.1-1493.1-33.4 0-60.4-27.1-60.4-60.4 0-32.6 26-60.4 61-60.4 891.2 0 1613.8 722.1 1613.4 1614.1-.1 33.1-27.2 60.2-60.5 60.2z" fill-rule="evenodd"/></g></g><g><path clip-rule="evenodd" d="m2827.4 3703c-50.8 0-201-10.1-434.7-110.2-439.9-188.4-867.5-558.6-1200.3-904.4-241.5-232.4-444.9-462.5-604.5-684-128.8-178.6-229.7-352.4-299.9-516.3-115.5-269.4-111.1-427.9-109.8-451 7.1-352.8 191.9-629.6 488.7-809.1 145.5-88 334.7-47.5 430.7 92.4l367.4 535c45.1 65.6 64 145.3 53.4 224.2s-50 150.7-110.8 202.1l-117.4 99.2c.1.4.1.9.2 1.3 58.9 372.7 835.4 1149.2 1208.1 1208.1.4.1.9.1 1.3.2l99.2-117.4c106.1-125.7 290.4-150.6 426.3-57.3l535 367.4c139.9 96 180.4 285.2 92.4 430.7-198.9 328.6-497 489.1-825.3 489.1zm-2528.5-2658.3c-.4 6.5-7 150.9 105.8 408.7 106.7 243.9 344.7 641.1 872.3 1148.7 22.1 18.4 564 617.5 1150.4 874 123.1 53.8 277.3 105.6 412.6 105.6 375.3-7 592.9-238 709.4-430.4 54.8-90.7 29.7-208.6-57.4-268.4l-535-367.4c-84.9-58.3-199-43-265.4 35.7l-120.4 142.5c-12.8 15.2-32.3 23.1-51.9 21.2-13-1.3-26.3-3-39.5-5-334.3-53-870-543.4-1131.8-927.9-100.8-148-160.3-276.1-176.9-380.7-2.1-13.2-3.8-26.4-5-39.5-1.9-19.8 6-39.2 21.2-51.9l142.5-120.4c78.6-66.4 94-180.5 35.7-265.4l-367.5-535.2c-59.8-87.1-177.7-112.3-268.4-57.4-192.5 116.5-423.4 334.1-430.4 709.4-.1 1.5-.1 2.3-.3 3.8z" fill-rule="evenodd"/></g><g clip-rule="evenodd" fill-rule="evenodd"><path d="m1329.7 1189.4c78.6-66.4 94-180.5 35.7-265.4l-367.4-535.1c-59.8-87.1-177.7-112.3-268.4-57.4-192.5 116.5-423.4 334.1-430.4 709.4-.1 1.6-.1 2.4-.3 3.9-.4 6.5-7 150.9 105.8 408.7 106.7 243.9 344.7 641.1 872.3 1148.7 22.1 18.4 564 617.5 1150.4 874 123.1 53.8 277.3 105.6 412.6 105.6 375.3-7 592.9-238 709.4-430.4 54.8-90.7 29.7-208.6-57.4-268.4l-535-367.4c-84.9-58.3-199-43-265.4 35.7l-120.4 142.5c-12.8 15.2-32.3 23.1-51.9 21.2-13-1.3-26.3-3-39.5-5-334.3-53-870-543.4-1131.8-927.9-100.8-148-160.3-276.1-176.9-380.7-2.1-13.2-3.8-26.4-5-39.5-1.9-19.8 6-39.2 21.2-51.9z" fill="#ff9801"/><path d="m924.5 462.4 367.3 535.1c46.8 68.1 46.2 154.9 3.6 220.9l34.3-28.9c78.6-66.4 94-180.5 35.7-265.4l-367.4-535.2c-59.8-87.1-177.7-112.3-268.4-57.4-75.7 45.8-157.3 107.2-228.9 187.7 51.3-45.8 104.7-83.5 155.4-114.2 90.7-54.9 208.6-29.8 268.4 57.4z" fill="#cf7b01"/><path d="m1168.9 1336.6-55.2 46.6c-15.2 12.8-23.1 32.2-21.2 51.9 1.2 13.1 2.9 26.3 5 39.5 16.6 104.6 76.1 232.8 176.9 380.7 261.7 384.5 797.5 874.8 1131.8 927.9 13.2 2 26.5 3.7 39.5 5 19.7 1.9 39.2-6 52-21.2l46.6-55.2c-8 2.7-16.5 3.7-25.1 2.9-13-1.3-26.3-3-39.5-5-334.3-53-870-543.4-1131.8-927.9-100.8-148-160.3-276.1-176.9-380.7-2.1-13.2-3.8-26.4-5-39.5-.8-8.5.3-17 2.9-25z" fill="#cf7b01"/><path d="m2957 2515.5c-84.9-58.3-199-43-265.4 35.7l-28.9 34.3c66-42.6 152.8-43.2 220.9 3.6l535 367.4c87.1 59.8 112.3 177.7 57.4 268.4-30.7 50.7-68.4 104.1-114.2 155.4 80.5-71.6 141.9-153.2 187.7-228.8 54.8-90.7 29.7-208.6-57.4-268.4z" fill="#cf7b01"/></g></g></g></svg>