<svg id="Layer_1" viewBox="0 0 48 48" xmlns="http://www.w3.org/2000/svg"><path d="m41 44h-34c-1.105 0-2-.895-2-2v-25h38v25c0 1.105-.895 2-2 2z" fill="#eff3f9"/><path d="m41 41h-34c-1.105 0-2-.895-2-2v3c0 1.105.895 2 2 2h34c1.105 0 2-.895 2-2v-3c0 1.105-.895 2-2 2z" fill="#cfe0f3"/><path d="m21 17c1.681 1.867 3.481 2.418 4.071 2.551h.003c.143.032.284.048.426.048.143 0 .285-.016.431-.048.589-.133 2.39-.684 4.071-2.551h-9.001z" fill="#cfe0f3"/><path d="m26.5 32h-5c-.552 0-1 .448-1 1v11h7v-11c0-.552-.448-1-1-1z" fill="#9eb6d8"/><path d="m20.5 41h7v3h-7z" fill="#7d99bc"/><rect fill="#b6cae5" height="5" rx="1" width="5" x="11" y="22"/><rect fill="#b6cae5" height="5" rx="1" width="5" x="21.5" y="22"/><rect fill="#b6cae5" height="5" rx="1" width="5" x="32" y="22"/><rect fill="#b6cae5" height="5" rx="1" width="5" x="11" y="32"/><rect fill="#b6cae5" height="5" rx="1" width="5" x="32" y="32"/><path d="m42 12h-36v-4c0-.552.448-1 1-1h34c.552 0 1 .448 1 1z" fill="#0d3b8d"/><path d="m33.183 8.942c.071-.598.123-1.227.146-1.902l-.037-.039h-15.585c-.014.015-.023.024-.037.039.031.889.112 1.698.219 2.461h-11.889v2.5h36v-2.5h-8.323c-.301 0-.529-.26-.494-.558z" fill="#00286f"/><rect fill="#0d3b8d" height="5" rx="1" width="42" x="3" y="12"/><path d="m44 14.5h-11.568c-.356 0-.601-.36-.461-.687.235-.55.449-1.15.633-1.813h-14.208c.264.951.59 1.771.949 2.5h-15.345c-.552 0-1-.448-1-1v2.5c0 .552.448 1 1 1h40c.552 0 1-.448 1-1v-2.5c0 .552-.448 1-1 1z" fill="#00286f"/><path d="m23.79 17.976c-1.098-.248-6.153-1.894-6.608-11.271-.03-.623.52-1.147 1.132-1.027.362.071.736.109 1.118.109 1.489 0 2.854-.575 3.872-1.51.4-.368.99-.368 1.39 0 1.018.935 2.383 1.51 3.872 1.51.382 0 .756-.038 1.118-.109.612-.12 1.163.404 1.132 1.027-.455 9.377-5.51 11.024-6.608 11.271-.143.032-.276.032-.419 0z" fill="#ffa221"/><path d="m23.753 14.775c-.947-.507-2.567-1.886-3.266-5.528-.053-.277.142-.538.42-.585 1.005-.172 1.97-.518 2.854-1.024.15-.086.329-.086.479 0 .883.506 1.849.853 2.854 1.024.278.047.473.309.42.585-.698 3.64-2.318 5.02-3.269 5.528-.155.083-.336.083-.491 0z" fill="#ffc343"/><g fill="#08105e"><path d="m44 11h-1v-3c0-1.1-.9-2-2-2h-9.305c-.115-.331-.305-.635-.574-.867-.455-.392-1.05-.552-1.629-.438-1.483.291-3.019-.144-4.121-1.156-.782-.719-1.961-.719-2.743 0-1.104 1.013-2.643 1.447-4.121 1.156-.582-.114-1.175.046-1.629.438-.269.232-.459.536-.574.867h-9.304c-1.1 0-2 .9-2 2v3h-1c-1.1 0-2 .9-2 2v3c0 1.1.9 2 2 2v24c0 1.654 1.346 3 3 3h34c1.654 0 3-1.346 3-3v-24c1.1 0 2-.9 2-2v-3c0-1.1-.9-2-2-2zm-3 0h-9.798c.226-.897.4-1.893.509-3h9.288v3zm-16.981-5.988c1.245 1.144 2.86 1.774 4.548 1.774.437 0 .878-.043 1.252-.13-.421 8.687-4.93 10.141-5.808 10.344-.901-.204-5.408-1.659-5.887-10.342 2.1.409 4.281-.207 5.895-1.646zm-17.019 2.988h9.288c.109 1.107.283 2.103.509 3h-9.797zm-3 5h13.43c.497 1.237 1.097 2.218 1.729 3h-15.159zm22.5 30h-5v-10h5zm15.5-1c0 .552-.449 1-1 1h-12.5v-10c0-1.1-.9-2-2-2h-5c-1.1 0-2 .9-2 2v10h-12.5c-.551 0-1-.448-1-1v-24h15.377c.986.622 1.826.868 2.193.951h.003c.143.032.284.048.426.048.143 0 .285-.016.431-.048.367-.083 1.207-.329 2.193-.951h15.377zm2-26h-15.159c.632-.783 1.233-1.763 1.729-3h13.43z"/><path d="m15 21h-3c-1.103 0-2 .897-2 2v3c0 1.103.897 2 2 2h3c1.103 0 2-.897 2-2v-3c0-1.103-.897-2-2-2zm-3 5v-3h3v3s-3 0-3 0z"/><path d="m25.5 21h-3c-1.103 0-2 .897-2 2v3c0 1.103.897 2 2 2h3c1.103 0 2-.897 2-2v-3c0-1.103-.897-2-2-2zm-3 5v-3h3v3s-3 0-3 0z"/><path d="m33 28h3c1.103 0 2-.897 2-2v-3c0-1.103-.897-2-2-2h-3c-1.103 0-2 .897-2 2v3c0 1.103.897 2 2 2zm0-5h3v3s-3 0-3 0z"/><path d="m15 31h-3c-1.103 0-2 .897-2 2v3c0 1.103.897 2 2 2h3c1.103 0 2-.897 2-2v-3c0-1.103-.897-2-2-2zm-3 5v-3h3v3s-3 0-3 0z"/><path d="m33 38h3c1.103 0 2-.897 2-2v-3c0-1.103-.897-2-2-2h-3c-1.103 0-2 .897-2 2v3c0 1.103.897 2 2 2zm0-5h3v3s-3 0-3 0z"/></g></svg>