<?xml version="1.0" encoding="iso-8859-1"?>
<!-- Generator: Adobe Illustrator 19.0.0, SVG Export Plug-In . SVG Version: 6.00 Build 0)  -->
<svg version="1.1" id="Capa_1" xmlns="http://www.w3.org/2000/svg" xmlns:xlink="http://www.w3.org/1999/xlink" x="0px" y="0px"
	 viewBox="0 0 511.998 511.998" style="enable-background:new 0 0 511.998 511.998;" xml:space="preserve">
<path style="fill:#FFCE1C;" d="M427.625,328.39v50.918c0,13.748-6.833,26.63-18.29,34.237c-25.907,17.21-78.608,44.34-153.335,44.34
	s-127.428-27.129-153.335-44.34c-11.457-7.607-18.29-20.49-18.29-34.237V328.39H427.625z"/>
<path style="fill:#465759;" d="M427.625,225.138V328.39c0,13.748-6.833,26.63-18.29,34.237
	c-25.907,17.21-78.608,44.34-153.335,44.34s-127.428-27.129-153.335-44.34c-11.457-7.607-18.29-20.49-18.29-34.237V225.138H427.625z
	"/>
<polygon style="fill:#313D40;" points="361.552,181.075 256,281.348 228.268,302.38 256,342.45 504.5,224.688 504.5,163.586 "/>
<polygon style="fill:#3A484A;" points="150.449,181.075 7.5,163.586 7.5,224.688 256,342.45 256,281.348 "/>
<path style="fill:#465759;" d="M289.301,61.605c-21.077-9.988-45.525-9.988-66.602,0L7.5,163.586L256,281.348l248.5-117.762
	L289.301,61.605z"/>
<path style="fill:#ECB000;" d="M501.555,347.531c-1.28-34.798-8.642-49.925-8.642-49.925h-33.82c0,0-7.362,15.127-8.642,49.925
	c-0.258,7.021,3.551,13.577,9.824,16.741c4.632,2.337,10.301,4.434,15.729,4.434s11.097-2.097,15.729-4.434
	C498.004,361.108,501.813,354.552,501.555,347.531z"/>
<g>
	<circle style="fill:#FFCE1C;" cx="476" cy="292.669" r="17.616"/>
	<ellipse style="fill:#FFCE1C;" cx="256" cy="163.589" rx="27.28" ry="19.779"/>
</g>
<path d="M495.11,370.968c8.834-4.458,14.306-13.766,13.939-23.713c-1.041-28.285-6.049-44.393-8.302-50.315
	c0.239-1.389,0.371-2.815,0.371-4.272c0-11.238-7.419-20.775-17.617-23.972v-25.759l24.209-11.473
	c2.619-1.241,4.288-3.879,4.288-6.777c0,0,0-61.095,0-61.102c0-2.911-1.757-5.511-4.33-6.797L292.514,54.827
	c-11.339-5.374-23.965-8.214-36.513-8.214s-25.174,2.84-36.513,8.214c0,0-215.156,101.96-215.162,101.963l-0.037,0.018
	C1.735,158.022,0,160.755,0,163.586v61.102c0,2.898,1.669,5.537,4.288,6.777l72.587,34.398v113.444
	c0,16.354,8.09,31.488,21.64,40.484c25.631,17.027,80.173,45.593,157.485,45.593c77.313,0,131.855-28.565,157.485-45.592
	c13.551-8.998,21.641-24.133,21.641-40.485V265.863l33.376-15.817v18.651c-10.197,3.197-17.616,12.734-17.616,23.972
	c0,1.456,0.132,2.882,0.371,4.271c-2.252,5.922-7.261,22.03-8.302,50.317c-0.365,9.948,5.107,19.256,13.941,23.712
	c6.889,3.476,13.317,5.238,19.107,5.238S488.221,374.445,495.11,370.968z M482.215,226.949
	c-2.644-13.727-9.251-26.036-18.653-35.663L497,175.44v44.502L482.215,226.949z M263.5,330.596v-44.502l185.476-87.896
	c10.379,8.776,17.379,21.298,19.1,35.452L263.5,330.596z M225.911,68.382c9.344-4.428,19.749-6.769,30.089-6.769
	s20.745,2.34,30.089,6.769l200.897,95.204l-36.393,17.246c-9.008-5.629-19.434-9.291-30.726-10.372l-129.776-12.414
	c-3.179-12.553-17.015-21.74-34.091-21.74c-19.503,0-34.781,11.982-34.781,27.279s15.277,27.278,34.781,27.278
	c15.271,0,27.95-7.347,32.734-17.879l129.705,12.407c5.275,0.505,10.308,1.729,15.011,3.564L256,273.048L25.014,163.586
	L225.911,68.382z M256,175.864c-10.538,0-19.781-5.737-19.781-12.278c0-6.541,9.243-12.279,19.781-12.279
	c10.537,0,19.78,5.738,19.78,12.279C275.78,170.127,266.538,175.864,256,175.864z M15,175.439l233.5,110.654v44.502L15,219.942
	V175.439z M420.126,379.308c0,11.315-5.584,21.778-14.94,27.99c-24.223,16.091-75.813,43.087-149.186,43.087
	c-73.372,0-124.962-26.996-149.187-43.088c-9.354-6.211-14.938-16.674-14.938-27.989v-15.734c0.559,0.533,1.135,1.05,1.721,1.558
	c1.556,1.347,3.204,2.605,4.919,3.743c25.631,17.027,80.175,45.593,157.485,45.593c77.311,0,131.854-28.565,157.485-45.592
	c2.356-1.565,4.594-3.35,6.641-5.302L420.126,379.308L420.126,379.308z M420.126,272.971c0,0,0,55.417,0,55.418
	c0,11.149-5.641,21.815-14.94,27.99C380.963,372.47,329.371,399.466,256,399.466c-73.37,0-124.962-26.996-149.186-43.088
	c-9.354-6.211-14.939-16.674-14.939-27.989v-55.418c0,0,160.888,76.243,160.913,76.255c1.976,0.936,4.449,0.935,6.424,0
	L420.126,272.971z M476.002,282.552c5.579,0,10.117,4.538,10.117,10.116c0,5.45-4.673,10.121-10.119,10.117
	c-5.465-0.004-10.114-4.653-10.114-10.117C465.886,287.091,470.424,282.552,476.002,282.552z M457.945,347.807
	c0.563-15.303,2.35-26.606,4.082-34.281c3.462,2.328,7.535,3.81,11.921,4.167c1.367,0.111,2.745,0.116,4.112,0
	c4.386-0.358,8.458-1.841,11.921-4.168c1.73,7.672,3.516,18.975,4.079,34.282c0.152,4.108-2.088,7.943-5.707,9.769
	c-4.707,2.375-8.978,3.63-12.35,3.63s-7.643-1.255-12.35-3.63C460.035,355.751,457.794,351.916,457.945,347.807z"/>
<g>
</g>
<g>
</g>
<g>
</g>
<g>
</g>
<g>
</g>
<g>
</g>
<g>
</g>
<g>
</g>
<g>
</g>
<g>
</g>
<g>
</g>
<g>
</g>
<g>
</g>
<g>
</g>
<g>
</g>
</svg>
