<svg height="512" viewBox="0 0 24 24" width="512" xmlns="http://www.w3.org/2000/svg"><g id="Layer_2" data-name="Layer 2"><rect fill="#0db561" height="17.5" rx="1.5" width="19.5" x="1.25" y="2.75"/><circle cx="17.5" cy="17.5" fill="#ffcb27" r="5.25"/><path d="m6 4.75a.76.76 0 0 1 -.75-.75v-2a.75.75 0 0 1 1.5 0v2a.76.76 0 0 1 -.75.75z" fill="#1c5e3f"/><path d="m11 4.75a.76.76 0 0 1 -.75-.75v-2a.75.75 0 0 1 1.5 0v2a.76.76 0 0 1 -.75.75z" fill="#1c5e3f"/><path d="m16 4.75a.76.76 0 0 1 -.75-.75v-2a.75.75 0 0 1 1.5 0v2a.76.76 0 0 1 -.75.75z" fill="#1c5e3f"/><g fill="#fff"><circle cx="6" cy="8.5" r="1"/><circle cx="6" cy="12" r="1"/><circle cx="6" cy="15.5" r="1"/><circle cx="11" cy="8.5" r="1"/><circle cx="11" cy="12" r="1"/><circle cx="11" cy="15.5" r="1"/><circle cx="16" cy="8.5" r="1"/><path d="m18.5 20a.75.75 0 0 1 -.61-.32l-1-1.39a.77.77 0 0 1 -.14-.44v-2a.75.75 0 1 1 1.5 0v1.76l.86 1.2a.75.75 0 0 1 -.17 1 .73.73 0 0 1 -.44.19z"/></g></g></svg>