<svg id="Filled_Line" viewBox="0 0 64 64" xmlns="http://www.w3.org/2000/svg"><path d="m22 6h35c.55 0 1 .45 1 1v50c0 .55-.45 1-1 1h-35c-2.21 0-4-1.79-4-4v-44c0-2.21 1.79-4 4-4z" fill="#fcbf49"/><path d="m22 50h36v7c0 .55-.45 1-1 1h-35c-2.21 0-4-1.79-4-4s1.79-4 4-4z" fill="#e89236"/><path d="m46 6v10l3-2 3 2v-10z" fill="#e63946"/><circle cx="23" cy="28" fill="#e63946" r="17"/><path d="m30.93 27.13-11.93-6.89c-.67-.38-1.5.1-1.5.87v13.78c0 .77.83 1.25 1.5.87l11.93-6.89c.67-.38.67-1.35 0-1.73z" fill="#edebea"/><path d="m57 5.25h-35c-2.62 0-4.75 2.13-4.75 4.75v1.22c-6.97 2.4-12 9-12 16.78s5.03 14.38 12 16.78v9.22c0 2.62 2.13 4.75 4.75 4.75h35c.96 0 1.75-.79 1.75-1.75v-50c0-.96-.79-1.75-1.75-1.75zm-5.75 1.5v7.85l-1.83-1.22c-.13-.08-.27-.13-.42-.13s-.29.04-.42.13l-1.83 1.22v-7.85zm-44.5 21.25c0-8.96 7.29-16.25 16.25-16.25s16.25 7.29 16.25 16.25-7.29 16.25-16.25 16.25-16.25-7.29-16.25-16.25zm16.25 17.75c9.79 0 17.75-7.96 17.75-17.75s-7.96-17.75-17.75-17.75c-1.47 0-2.89.2-4.25.54v-.79c0-1.79 1.46-3.25 3.25-3.25h23.25v9.25c0 .28.15.53.4.66.24.13.54.12.77-.04l2.58-1.72 2.58 1.72c.13.08.27.13.42.13.12 0 .24-.03.35-.09.24-.13.4-.38.4-.66v-9.25h4.25c.14 0 .25.11.25.25v42.25h-35.25c-1.26 0-2.4.5-3.25 1.3v-5.34c1.36.34 2.78.54 4.25.54zm34 11.5h-35c-1.79 0-3.25-1.46-3.25-3.25s1.46-3.25 3.25-3.25h35.25v6.25c0 .14-.11.25-.25.25zm-24.82-29.25c0-.63-.33-1.2-.88-1.52l-11.93-6.89c-.55-.32-1.2-.32-1.75 0s-.88.88-.88 1.52v13.78c0 .63.33 1.2.88 1.52.27.16.57.24.88.24s.6-.08.87-.24l11.93-6.89c.55-.32.88-.88.88-1.52zm-1.62.22-11.93 6.89c-.11.06-.2.03-.25 0s-.12-.09-.12-.22v-13.78c0-.13.08-.19.12-.22.03-.02.07-.04.13-.04.04 0 .08 0 .12.04l11.93 6.89c.11.06.12.16.12.22s-.02.15-.12.22z" fill="#050819"/></svg>