<svg id="Layer_1" enable-background="new 0 0 68 68" viewBox="0 0 68 68" xmlns="http://www.w3.org/2000/svg"><g><g><path d="m52.35 21.33v22.2c0 4.44-3.6 8.04-8.04 8.04h-17.72c-.31 0-.62.1-.88.28l-11.66 7.98c-1.04.71-2.45-.03-2.45-1.29v-5.41c0-.87-.7-1.56-1.56-1.56-2.22 0-4.22-.9-5.68-2.36-1.46-1.45-2.36-3.45-2.36-5.67v-22.2c0-4.45 3.6-8.04 8.04-8.04h34.28c4.44 0 8.03 3.59 8.03 8.03z" fill="#26c666"/><path d="m13.16 60.61c-.33 0-.66-.08-.96-.24-.68-.36-1.1-1.06-1.1-1.83v-5.41c0-.59-.48-1.06-1.06-1.06-2.27 0-4.42-.89-6.03-2.5s-2.5-3.76-2.5-6.03v-22.2c0-4.71 3.83-8.54 8.54-8.54h34.28c4.71 0 8.54 3.83 8.54 8.54v22.2c0 4.71-3.83 8.54-8.54 8.54h-17.74c-.21 0-.42.07-.6.19l-11.66 7.98c-.35.23-.76.36-1.17.36zm-3.13-46.81c-4.16 0-7.54 3.38-7.54 7.54v22.2c0 2.01.79 3.9 2.21 5.33 1.43 1.43 3.32 2.21 5.32 2.21 1.14 0 2.06.92 2.06 2.06v5.41c0 .4.21.75.57.94.35.19.76.16 1.09-.07l11.66-7.98c.34-.23.75-.36 1.17-.36h17.73c4.16 0 7.54-3.38 7.54-7.54v-22.2c0-4.16-3.38-7.54-7.54-7.54z" fill="#000100"/></g><g><path d="m56.35 25.33v22.2c0 4.44-3.6 8.04-8.04 8.04h-17.72c-.31 0-.62.1-.88.28l-11.66 7.98c-1.04.71-2.45-.03-2.45-1.29v-5.41c0-.87-.7-1.56-1.56-1.56-2.22 0-4.22-.9-5.68-2.36-1.46-1.45-2.36-3.45-2.36-5.67v-22.2c0-4.45 3.6-8.04 8.04-8.04h34.28c4.44 0 8.03 3.59 8.03 8.03z" fill="#54e28e"/><path d="m17.16 64.61c-.33 0-.66-.08-.96-.24-.68-.36-1.1-1.06-1.1-1.83v-5.41c0-.59-.48-1.06-1.06-1.06-2.27 0-4.42-.89-6.03-2.5s-2.5-3.76-2.5-6.03v-22.2c0-4.71 3.83-8.54 8.54-8.54h34.28c4.71 0 8.54 3.83 8.54 8.54v22.2c0 4.71-3.83 8.54-8.54 8.54h-17.74c-.21 0-.42.07-.6.19l-11.66 7.98c-.35.23-.76.36-1.17.36zm-3.13-46.81c-4.16 0-7.54 3.38-7.54 7.54v22.2c0 2.01.79 3.9 2.21 5.33 1.43 1.43 3.32 2.21 5.32 2.21 1.14 0 2.06.92 2.06 2.06v5.41c0 .4.21.75.57.94.35.19.76.16 1.09-.07l11.66-7.98c.34-.23.75-.36 1.17-.36h17.73c4.16 0 7.54-3.38 7.54-7.54v-22.2c0-4.16-3.38-7.54-7.54-7.54z" fill="#000100"/></g><g><g><g><g><circle cx="31.18" cy="36.81" fill="#efefed" r="11.89"/><path d="m31.18 49.2c-6.83 0-12.39-5.56-12.39-12.39s5.56-12.39 12.39-12.39 12.39 5.56 12.39 12.39-5.56 12.39-12.39 12.39zm0-23.78c-6.28 0-11.39 5.11-11.39 11.39s5.11 11.39 11.39 11.39 11.39-5.11 11.39-11.39-5.11-11.39-11.39-11.39z" fill="#000100"/></g></g></g><g><path d="m35.46 38.3-5.3 3.61c-1.19.82-2.82-.04-2.82-1.49v-7.22c0-1.45 1.62-2.31 2.82-1.49l5.3 3.61c1.05.71 1.05 2.27 0 2.98z" fill="#54e28e"/><path d="m29.15 42.73c-.37 0-.74-.09-1.07-.27-.76-.4-1.23-1.18-1.23-2.04v-7.22c0-.86.47-1.64 1.23-2.04s1.67-.35 2.37.14l5.29 3.61c.63.43 1.01 1.14 1.01 1.91s-.38 1.48-1.01 1.91l-5.3 3.61c-.39.25-.84.39-1.29.39zm0-10.84c-.21 0-.41.05-.61.15-.44.23-.7.66-.7 1.16v7.22c0 .5.26.93.7 1.16.43.23.93.2 1.34-.08l5.3-3.61c.36-.25.57-.64.57-1.08s-.21-.83-.57-1.08l-5.3-3.61c-.22-.15-.48-.23-.73-.23z" fill="#000100"/></g></g><g><g><g><g><g><g><path d="m35.69 7.71-3.1 12.16c-.91 3.58 23.82 9.89 24.74 6.31l3.1-12.16z" fill="#495e66"/><path d="m54.03 27.74c-3.55 0-8.5-1.2-9.88-1.55-2.15-.55-12.81-3.43-12.04-6.45l3.1-12.16c.07-.27.34-.43.61-.36l24.74 6.31c.27.07.43.34.36.61l-3.1 12.16c-.28 1.08-1.82 1.44-3.79 1.44zm-17.98-19.42-2.98 11.67c-.24.92 3.57 3.26 11.32 5.23 3.21.82 6.26 1.35 8.58 1.48 2.7.16 3.76-.25 3.87-.65l2.98-11.67z" fill="#000100"/></g><g><path d="m64.79 16.08-18.04 1.76c-.31.03-.63-.05-.89-.23l-14.98-10.18c-1.06-.72-.61-2.37.67-2.45l17.86-1.08c.28-.02.56.05.8.2l15.16 9.51c1.08.68.69 2.35-.58 2.47z" fill="#3c5056"/><path d="m46.63 18.34c-.37 0-.74-.11-1.04-.32l-14.99-10.18c-.66-.45-.95-1.24-.74-2.01s.87-1.3 1.66-1.35l17.86-1.08c.38-.02.77.08 1.09.28l15.16 9.51c.68.43 1 1.21.81 1.99-.18.78-.82 1.33-1.61 1.41l-18.03 1.75c-.06 0-.11 0-.17 0zm2.87-13.95c-.02 0-.03 0-.05 0l-17.87 1.09c-.44.03-.68.34-.76.62s-.03.67.34.92l14.99 10.18c.16.11.36.17.56.14l18.03-1.76c.44-.04.67-.36.74-.64s0-.67-.37-.91l-15.17-9.51c-.13-.08-.29-.13-.44-.13z" fill="#000100"/></g><g><path d="m65.83 15.4-1.99 7.8" fill="#495e66"/><path d="m63.84 23.7c-.04 0-.08 0-.12-.02-.27-.07-.43-.34-.36-.61l1.99-7.8c.07-.27.34-.43.61-.36s.43.34.36.61l-1.99 7.8c-.07.23-.27.38-.49.38z" fill="#000100"/></g><g><circle cx="63.59" cy="24.37" fill="#fbe063" r="2.16"/><path d="m63.59 27.03c-.22 0-.44-.03-.66-.08-.69-.18-1.27-.61-1.63-1.22s-.47-1.33-.29-2.02.61-1.27 1.22-1.63 1.32-.47 2.02-.29c.69.18 1.27.61 1.63 1.22s.47 1.33.29 2.02c-.18.69-.61 1.27-1.22 1.63-.42.25-.89.37-1.36.37zm-.01-4.32c-.29 0-.59.08-.85.23-.38.23-.65.59-.76 1.02s-.05.88.18 1.26.59.65 1.02.76.88.05 1.26-.18.65-.59.76-1.02c.11-.43.05-.88-.18-1.26s-.59-.65-1.02-.76c-.13-.04-.27-.05-.41-.05z" fill="#000100"/></g></g><g><ellipse cx="48.06" cy="10.87" fill="#fbe063" rx="1.63" ry="2.81" transform="matrix(.247 -.969 .969 .247 25.646 54.749)"/><path d="m48.79 13.09c-.4 0-.83-.05-1.25-.16-.81-.21-1.53-.59-2.03-1.08-.57-.56-.8-1.2-.65-1.8s.66-1.05 1.43-1.27c.67-.19 1.49-.18 2.3.03s1.53.59 2.03 1.08c.57.56.8 1.2.65 1.8s-.66 1.05-1.43 1.27c-.33.09-.68.13-1.05.13zm-1.46-3.45c-.28 0-.54.03-.78.1-.41.12-.67.32-.73.56s.08.54.38.84c.37.36.95.67 1.58.83s1.28.17 1.78.03c.41-.12.67-.32.73-.56.06-.24-.08-.54-.38-.84-.37-.36-.95-.67-1.58-.83-.33-.08-.67-.13-1-.13z" fill="#000100"/></g></g></g></g></g></g></svg>