<svg id="Layer_1" viewBox="0 0 512 512" xmlns="http://www.w3.org/2000/svg" data-name="Layer 1"><path d="m479.562 462.668c0-4.847-3.997-8.787-8.816-8.787h-428.117c-4.847 0-8.787 3.94-8.787 8.787v24.605h445.72z" fill="#5b728c"/><path d="m136.91 375.842h.057c19.304-.028 34.979-15.704 34.979-35.008s-15.704-35.008-35.008-35.008-35.008 15.704-35.008 35.008 15.704 34.979 34.979 35.008z" fill="#faefe8"/><path d="m294.544 437.893c3.458-12.387 9.581-23.556 17.745-32.882-12.983-17.688-33.335-28.12-55.559-28.12h-.085c-22.252 0-42.633 10.432-55.587 28.176 8.107 9.298 14.258 20.438 17.717 32.825h75.77z" fill="#0baa79"/><path d="m258.176 132.8h92.665c4.45 0 8.05 3.572 8.05 7.994s-3.6 7.994-8.05 7.994h-92.665c-4.422 0-7.994-3.571-7.994-7.994s3.572-7.994 7.994-7.994zm10.914-43.738h144.482c4.365 0 7.965 3.6 7.965 8.022s-3.6 7.994-7.965 7.994h-144.482c-4.422 0-7.994-3.572-7.994-7.994s3.572-8.022 7.994-8.022zm4.422-43.71h72.879c4.394 0 7.994 3.6 7.994 8.022 0 4.394-3.6 7.994-7.994 7.994h-72.879c-4.422 0-8.022-3.6-8.022-7.994 0-4.422 3.6-8.022 8.022-8.022zm109.162 0h31.748c4.45 0 8.022 3.6 8.022 7.994 0 4.422-3.572 8.022-8.022 8.022h-31.748c-4.394 0-7.965-3.6-7.965-8.022 0-4.394 3.572-7.994 7.965-7.994zm-6.35 95.442c0-4.422 3.6-7.994 7.965-7.994h29.282c4.365 0 7.965 3.572 7.965 7.994s-3.6 7.994-7.965 7.994h-29.282c-4.365 0-7.965-3.571-7.965-7.994zm38.098 51.732h-111.997c-4.422 0-7.994-3.6-7.994-7.994 0-4.422 3.572-8.022 7.994-8.022h111.997c4.45 0 8.022 3.6 8.022 8.022 0 4.394-3.572 7.994-8.022 7.994zm-147.288 0h-30.841c-4.422 0-7.994-3.6-7.994-7.994 0-4.422 3.572-8.022 7.994-8.022h30.841c4.394 0 7.994 3.6 7.994 8.022 0 4.394-3.6 7.994-7.994 7.994zm-78.576-78.151 47.565-55.587c2.863-3.373 7.909-3.77 11.282-.878 3.345 2.863 3.742 7.909.879 11.282l-51.335 59.981c2.24 10.375-1.417 22.025-13.833 28.46l-17.093 8.844v17.631c0 16.81 13.663 30.473 30.472 30.473h252.567c16.781 0 30.501-13.663 30.501-30.473v-130.366c0-16.781-13.72-30.444-30.501-30.444h-252.568c-16.809 0-30.472 13.663-30.472 30.444v54.085c8.759-1.814 16.81 1.247 22.535 6.548z" fill="#f7cb7f"/><path d="m73.555 92.633c17.235 0 31.238-14.031 31.238-31.238s-14.003-31.209-31.238-31.209-31.209 14.003-31.209 31.209 14.003 31.238 31.209 31.238z" fill="#faefe8"/><path d="m256.645 360.876h.085c19.304-.028 34.979-15.732 34.979-35.008s-15.704-35.036-35.008-35.036-35.036 15.704-35.036 35.036 15.676 34.979 34.979 35.008z" fill="#faefe8"/><path d="m333.663 437.893h107.802c-9.524-27.184-35.461-46.063-64.999-46.091h-.085c-29.594.028-55.531 18.907-65.055 46.091z" fill="#f7cb7f"/><path d="m376.381 375.814h.085c19.276-.028 34.951-15.732 34.951-35.036s-15.676-35.008-35.036-35.008-35.008 15.704-35.008 35.008 15.676 35.008 35.008 35.036z" fill="#faefe8"/><path d="m36.875 271.074h73.389c1.644 0 3.033-1.36 3.033-3.004v-74.24l-12.104 6.265c-3.742 1.928-7.937 2.92-12.16 2.92-2.806 0-5.641-.425-8.362-1.304-6.775-2.211-12.217-6.86-15.335-13.067-2.778-5.556-3.6-11.849-2.296-17.745.936-4.309 5.188-7.058 9.524-6.123 4.309.936 7.03 5.216 6.094 9.524-.51 2.381-.17 4.876.992 7.172 1.191 2.381 3.288 4.139 5.953 5.018 2.778.878 5.782.68 8.22-.596l19.474-10.091 62.447-32.372c8.787-4.563 5.244-12.472 4.45-14.031-.51-.964-5.188-9.383-14.173-4.734l-4.167 2.183h-.028l-47.225 24.491-2.041-10.517c-3.6-18.652-20.012-32.202-39.005-32.202-21.912 0-39.713 17.83-39.713 39.742v119.707c0 1.644 1.389 3.004 3.033 3.004z" fill="#60b7ff"/><path d="m201.993 437.893c-9.553-27.184-35.49-46.035-65.027-46.063h-.057c-29.537.028-55.474 18.879-65.027 46.063z" fill="#ff7577"/><g fill="#030403"><path d="m269.089 105.077h144.482c4.365 0 7.965-3.572 7.965-7.994s-3.6-8.022-7.965-8.022h-144.482c-4.422 0-7.994 3.6-7.994 8.022s3.572 7.994 7.994 7.994z"/><path d="m33.842 462.668c0-4.847 3.94-8.787 8.787-8.787h428.117c4.819 0 8.816 3.94 8.816 8.787v24.605h-445.72zm103.068-70.838h.057c29.537.028 55.474 18.879 65.027 46.063h-130.111c9.553-27.184 35.49-46.035 65.027-46.063zm-34.979-50.995c0-19.304 15.704-35.008 35.008-35.008s35.008 15.704 35.008 35.008-15.676 34.979-34.979 35.008h-.057c-19.275-.028-34.979-15.704-34.979-35.008zm154.715 36.057h.085c22.224 0 42.576 10.432 55.559 28.12-8.164 9.326-14.287 20.495-17.745 32.882h-75.77c-3.458-12.387-9.61-23.527-17.717-32.825 12.954-17.745 33.335-28.176 55.587-28.176zm-34.979-51.023c0-19.333 15.704-35.036 35.036-35.036s35.008 15.704 35.008 35.036-15.676 34.979-34.979 35.008h-.085c-19.304-.028-34.979-15.732-34.979-35.008zm154.715 65.934h.085c29.537.028 55.474 18.907 64.999 46.091h-130.139c9.524-27.184 35.461-46.063 65.055-46.091zm-35.008-51.023c0-19.304 15.676-35.008 35.008-35.008s35.036 15.704 35.036 35.008-15.676 35.008-34.951 35.036h-.085c-19.332-.028-35.008-15.732-35.008-35.036zm-308.864 162.508h448.356c8.107 0 14.712-6.577 14.712-14.684v-25.937c0-13.663-11.168-24.775-24.831-24.775h-12.473c-7.342-26.164-26.674-46.8-51.25-56.324 12.359-9.326 20.409-24.151 20.409-40.791 0-28.12-22.876-51.023-51.052-51.023s-51.024 22.904-51.024 51.023c0 16.639 8.051 31.464 20.381 40.791-7.823 3.033-15.222 7.229-21.742 12.387-9.609-12.5-22.252-21.883-36.567-27.382 12.302-9.326 20.296-24.095 20.296-40.706 0-28.148-22.904-51.052-51.024-51.052s-51.052 22.904-51.052 51.052c0 16.611 7.994 31.379 20.296 40.706-14.343 5.527-27.014 14.91-36.595 27.411-6.576-5.159-13.89-9.354-21.77-12.387 12.359-9.326 20.353-24.123 20.353-40.762 0-28.12-22.875-50.995-50.995-50.995s-50.995 22.875-50.995 50.995c0 16.639 7.994 31.436 20.353 40.762-24.52 9.524-43.88 30.161-51.166 56.296h-12.501c-13.663 0-24.803 11.112-24.803 24.775v25.937c0 8.107 6.576 14.684 14.683 14.684z"/><path d="m33.842 148.362c0-21.912 17.802-39.742 39.713-39.742 18.992 0 35.405 13.55 39.005 32.202l2.041 10.517 47.225-24.491h.028l4.167-2.183c8.986-4.649 13.663 3.77 14.173 4.734.794 1.559 4.337 9.468-4.45 14.031l-62.447 32.372-19.474 10.091c-2.438 1.276-5.443 1.474-8.22.596-2.665-.879-4.762-2.636-5.953-5.018-1.162-2.296-1.502-4.791-.992-7.172.936-4.309-1.786-8.589-6.094-9.524-4.337-.935-8.589 1.814-9.524 6.123-1.304 5.896-.482 12.189 2.296 17.745 3.118 6.208 8.561 10.856 15.335 13.067 2.721.879 5.556 1.304 8.362 1.304 4.223 0 8.419-.992 12.16-2.92l12.104-6.265v74.24c0 1.644-1.389 3.004-3.033 3.004h-73.389c-1.644 0-3.033-1.36-3.033-3.004zm8.504-86.967c0-17.206 14.003-31.209 31.209-31.209s31.238 14.003 31.238 31.209-14.003 31.238-31.238 31.238-31.209-14.031-31.209-31.238zm123.676-7.653c0-16.781 13.663-30.444 30.472-30.444h252.567c16.781 0 30.501 13.663 30.501 30.444v130.365c0 16.81-13.72 30.473-30.501 30.473h-252.567c-16.809 0-30.472-13.663-30.472-30.473v-17.631l17.093-8.844c12.416-6.435 16.073-18.085 13.833-28.46l51.335-59.981c2.863-3.373 2.466-8.419-.879-11.282-3.373-2.892-8.419-2.495-11.282.878l-47.565 55.587c-5.726-5.301-13.776-8.362-22.535-6.548zm-129.147 233.348h73.389c10.516 0 19.021-8.533 19.021-19.021v-82.545l20.75-10.744v9.326c0 25.625 20.835 46.488 46.46 46.488h252.567c25.597 0 46.516-20.863 46.516-46.488v-130.364c0-25.597-20.92-46.46-46.516-46.46h-252.568c-25.625 0-46.46 20.863-46.46 46.46v61.2l-24.69 12.813c-4.762-11.962-13.493-21.742-24.406-27.921 11.991-8.561 19.843-22.592 19.843-38.438 0-26.022-21.175-47.225-47.225-47.225s-47.197 21.202-47.197 47.224c0 15.846 7.823 29.877 19.814 38.438-16.895 9.581-28.346 27.751-28.346 48.529v119.707c0 10.488 8.561 19.021 19.049 19.021z"/><path d="m258.176 148.787h92.665c4.45 0 8.05-3.571 8.05-7.994s-3.6-7.994-8.05-7.994h-92.665c-4.422 0-7.994 3.572-7.994 7.994s3.572 7.994 7.994 7.994z"/><path d="m273.511 61.367h72.879c4.394 0 7.994-3.6 7.994-7.994 0-4.422-3.6-8.022-7.994-8.022h-72.879c-4.422 0-8.022 3.6-8.022 8.022 0 4.394 3.6 7.994 8.022 7.994z"/><path d="m414.422 176.51h-111.997c-4.422 0-7.994 3.6-7.994 8.022 0 4.394 3.572 7.994 7.994 7.994h111.997c4.45 0 8.022-3.6 8.022-7.994 0-4.422-3.572-8.022-8.022-8.022z"/><path d="m382.674 61.367h31.748c4.45 0 8.022-3.6 8.022-8.022 0-4.394-3.572-7.994-8.022-7.994h-31.748c-4.394 0-7.965 3.6-7.965 7.994 0 4.422 3.572 8.022 7.965 8.022z"/><path d="m267.133 176.51h-30.841c-4.422 0-7.994 3.6-7.994 8.022 0 4.394 3.572 7.994 7.994 7.994h30.841c4.394 0 7.994-3.6 7.994-7.994 0-4.422-3.6-8.022-7.994-8.022z"/><path d="m413.571 148.787c4.365 0 7.965-3.571 7.965-7.994s-3.6-7.994-7.965-7.994h-29.282c-4.365 0-7.965 3.572-7.965 7.994s3.6 7.994 7.965 7.994z"/></g></svg>