<svg id="Layer_1" enable-background="new 0 0 512 512" viewBox="0 0 512 512" xmlns="http://www.w3.org/2000/svg"><g><g><path d="m166.216 467.5v-137.178c0-80.946 65.62-146.566 146.566-146.566 80.946 0 144.141 62.142 144.141 143.088v140.656z" fill="#b6e6fa"/><path d="m224.669 282.686c4.375-10.246 6.803-21.515 6.803-33.342v-19.897c24.02-25.302 93.811-45.155 93.811-45.155-4.121-.348-8.288-.536-12.5-.536-80.946 0-146.566 65.62-146.566 146.566v137.178h114.819v-74.375c-.001-45.35-22.234-85.599-56.367-110.439z" fill="#54c9f3"/><path d="m33 497.5v-104.375c0-61.589 49.928-111.517 111.517-111.517 61.589 0 111.517 49.928 111.517 111.517v104.375z" fill="#fbb9d7"/><path d="m157.018 282.309c-4.104-.458-8.273-.701-12.5-.701-61.59 0-111.518 49.928-111.518 111.517v104.375h25v-104.375c0-57.363 43.313-104.602 99.018-110.816z" fill="#f072ae"/><path d="m256 383.44-201.581-56.779-32.419 32.419v.004l234 65.916 233.348-65.732-32.424-32.424z" fill="#fff"/><path d="m7.5 512v-157l248.5 70 248.5-70v157z" fill="#ffaa81"/><path d="m32.5 362.042-25-7.042v157h25z" fill="#fe7732"/><path d="m54.419 326.661-32.419 32.419v.004l23.403 6.593 32.423-32.423z" fill="#dededf"/><path d="m82.563 209.454v38.12c0 34.216 27.738 61.954 61.954 61.954 34.216 0 61.954-27.738 61.954-61.954v-38.12z" fill="#ffdaaa"/><path d="m144.518 147.5c-34.216 0-61.954 27.738-61.954 61.954h123.908c0-34.216-27.738-61.954-61.954-61.954z" fill="#8ca3b7"/><path d="m107.563 247.574v-38.12h-25v38.12c0 34.216 27.738 61.954 61.954 61.954 4.282 0 8.462-.435 12.5-1.262-28.224-5.782-49.454-30.757-49.454-60.692z" fill="#ffb680"/><path d="m157.018 148.762c-4.037-.827-8.218-1.262-12.5-1.262-34.216 0-61.954 27.738-61.954 61.954h25c-.001-29.934 21.229-54.91 49.454-60.692z" fill="#57758d"/><path d="m231.357 110.149v28.877c0 44.97 36.455 81.425 81.425 81.425 44.97 0 81.425-36.455 81.425-81.425v-36.154l-48.527-37.277z" fill="#ffdaaa"/><path d="m312.782 7.5c-44.97 0-81.426 36.455-81.426 81.425v21.224l114.324-44.553 48.527 37.277v-13.948c.001-44.97-36.455-81.425-81.425-81.425z" fill="#8ca3b7"/><path d="m256.357 139.026v-38.62l-25 9.743v28.877c0 44.97 36.455 81.425 81.425 81.425 4.251 0 8.425-.328 12.5-.956-39.035-6.014-68.925-39.75-68.925-80.469z" fill="#ffb680"/><path d="m256.357 88.925c0-40.719 29.89-74.455 68.925-80.469-4.075-.628-8.249-.956-12.5-.956-44.97 0-81.425 36.455-81.425 81.425v21.224l25-9.743z" fill="#57758d"/></g><g><path d="m304.07 254.713h15v15h-15z"/><path d="m304.07 284.713h15v15h-15z"/></g><g><path d="m497 447.72h15v64.28h-15z"/><path d="m0 447.72h15v64.28h-15z"/><path d="m491.544 350.857-27.175-27.175c-.968-40.546-15.301-74.951-42.644-102.294-11.389-11.398-24.316-20.826-38.524-28.126 11.596-15.021 18.506-33.836 18.506-54.237v-50.1c.001-49.033-39.891-88.925-88.925-88.925s-88.925 39.892-88.925 88.925v50.101c0 20.403 6.912 39.22 18.51 54.242-10.16 5.219-19.651 11.522-28.395 18.855v-2.669c0-38.297-31.157-69.454-69.454-69.454s-69.454 31.157-69.454 69.454v38.12c0 15.18 4.909 29.229 13.204 40.669-14.328 7.697-26.999 18.284-37.136 31.098l-31.328 31.332-19.804-5.578v87.625h15v-67.816l233.5 65.775v81.321h15v-81.321l233.5-65.775v67.816h15v-87.625zm-252.687-261.932c0-40.762 33.163-73.925 73.925-73.925 40.328 0 73.195 32.464 73.892 72.629l-39.778-30.556-108.04 42.104v-10.252zm0 50.101v-23.75l105.608-41.156 42.243 32.449v32.457c0 40.763-33.163 73.926-73.925 73.926s-73.926-33.163-73.926-73.926zm-94.339 15.974c27.48 0 50.258 20.466 53.925 46.954h-107.851c3.667-26.488 26.445-46.954 53.926-46.954zm-54.455 61.954h108.908v30.62c0 30.026-24.428 54.454-54.454 54.454s-54.454-24.428-54.454-54.454zm8.662 82.775c12.235 10.756 28.26 17.3 45.792 17.3 17.543 0 33.576-6.551 45.814-17.318 10.264 5.031 19.58 11.698 27.745 19.863 14.639 14.639 24.512 33.301 28.472 53.413l-178.556-50.295c8.735-9.484 19.166-17.284 30.733-22.963zm149.775 115.366-212.148-59.76 20.264-20.263 191.884 54.047zm13.481-41.132c-3.98-24.494-15.612-47.311-33.297-64.997-8.309-8.309-17.666-15.255-27.901-20.744 8.286-11.437 13.19-25.478 13.19-40.649v-15.081c11.378-11.509 24.464-20.813 38.984-27.732 15.808 14.4 36.81 23.191 59.827 23.191 23.018 0 44.021-8.792 59.829-23.193 14.296 6.814 27.234 15.954 38.505 27.234 23.882 23.882 36.699 53.875 38.161 89.212l-27.756 7.818v-34.525h-15v38.75zm1.519 41.132v-25.976l191.228-53.865 20.266 20.265z"/></g></g><g/><g/><g/><g/><g/><g/><g/><g/><g/><g/><g/><g/><g/><g/><g/></svg>