<?xml version="1.0" encoding="UTF-8"?>
<svg xmlns="http://www.w3.org/2000/svg" xmlns:xlink="http://www.w3.org/1999/xlink" version="1.1" id="Capa_1" x="0px" y="0px" viewBox="0 0 512 512" style="enable-background:new 0 0 512 512;" xml:space="preserve" width="512" height="512">
<g>
	<g>
		<circle style="fill:#01D0FB;" cx="256" cy="256" r="248.5"/>
		<circle style="fill:#FAF3F1;" cx="256" cy="256" r="207.132"/>
		<path style="fill:#F3E6DF;" d="M259.586,51.593C358.007,67.643,433.132,153.041,433.132,256&#10;&#9;&#9;&#9;c0,114.396-92.736,207.132-207.132,207.132c-2.078,0-4.147-0.04-6.21-0.101c10.933,1.783,22.149,2.725,33.586,2.725&#10;&#9;&#9;&#9;c114.396,0,207.132-92.736,207.132-207.132C460.508,146.307,371.108,54.878,259.586,51.593z"/>
		<path style="fill:#FDD602;" d="M256,256L109.304,109.767C148.152,70.796,200.973,48.868,256,48.868&#10;&#9;&#9;&#9;c113.629,0,207.132,93.503,207.132,207.132H256z"/>
		<path style="fill:#FDC102;" d="M256,48.868c-5.038,0-10.057,0.188-15.048,0.552c106.764,7.769,192.18,97.977,192.18,206.58h30&#10;&#9;&#9;&#9;C463.132,142.371,369.629,48.868,256,48.868z"/>
		<circle style="fill:#FD6930;" cx="256" cy="256" r="23.176"/>
	</g>
	<g>
		<path style="fill:none;stroke:#000000;stroke-width:15;stroke-linecap:round;stroke-linejoin:round;stroke-miterlimit:10;" d="&#10;&#9;&#9;&#9;M460.858,396.702C416.053,461.812,341.012,504.5,256,504.5C118.757,504.5,7.5,393.243,7.5,256S118.757,7.5,256,7.5&#10;&#9;&#9;&#9;S504.5,118.757,504.5,256c0,37.534-8.322,73.125-23.22,105.028"/>
		
			<line style="fill:none;stroke:#000000;stroke-width:15;stroke-linecap:round;stroke-linejoin:round;stroke-miterlimit:10;" x1="238.466" y1="238.522" x2="109.304" y2="109.767"/>
		
			<line style="fill:none;stroke:#000000;stroke-width:15;stroke-linecap:round;stroke-linejoin:round;stroke-miterlimit:10;" x1="463.132" y1="256" x2="282.84" y2="256"/>
		<path style="fill:none;stroke:#000000;stroke-width:15;stroke-linecap:round;stroke-linejoin:round;stroke-miterlimit:10;" d="&#10;&#9;&#9;&#9;M78.411,149.329C114.646,89.133,180.621,48.868,256,48.868c114.396,0,207.132,92.736,207.132,207.132S370.396,463.132,256,463.132&#10;&#9;&#9;&#9;S48.868,370.396,48.868,256c0-26.127,4.837-51.124,13.665-74.144"/>
		
			<line style="fill:none;stroke:#000000;stroke-width:15;stroke-linecap:round;stroke-linejoin:round;stroke-miterlimit:10;" x1="256" y1="77.331" x2="256" y2="88.671"/>
		
			<line style="fill:none;stroke:#000000;stroke-width:15;stroke-linecap:round;stroke-linejoin:round;stroke-miterlimit:10;" x1="382.338" y1="129.662" x2="374.319" y2="137.681"/>
		
			<line style="fill:none;stroke:#000000;stroke-width:15;stroke-linecap:round;stroke-linejoin:round;stroke-miterlimit:10;" x1="434.669" y1="256" x2="423.329" y2="256"/>
		
			<line style="fill:none;stroke:#000000;stroke-width:15;stroke-linecap:round;stroke-linejoin:round;stroke-miterlimit:10;" x1="382.338" y1="382.338" x2="374.319" y2="374.319"/>
		
			<line style="fill:none;stroke:#000000;stroke-width:15;stroke-linecap:round;stroke-linejoin:round;stroke-miterlimit:10;" x1="256" y1="434.669" x2="256" y2="423.329"/>
		
			<line style="fill:none;stroke:#000000;stroke-width:15;stroke-linecap:round;stroke-linejoin:round;stroke-miterlimit:10;" x1="129.662" y1="382.338" x2="137.681" y2="374.319"/>
		
			<line style="fill:none;stroke:#000000;stroke-width:15;stroke-linecap:round;stroke-linejoin:round;stroke-miterlimit:10;" x1="77.331" y1="256" x2="88.671" y2="256"/>
		
			<line style="fill:none;stroke:#000000;stroke-width:15;stroke-linecap:round;stroke-linejoin:round;stroke-miterlimit:10;" x1="129.662" y1="129.662" x2="137.681" y2="137.681"/>
		
			<circle style="fill:none;stroke:#000000;stroke-width:15;stroke-linecap:round;stroke-linejoin:round;stroke-miterlimit:10;" cx="256" cy="256" r="23.176"/>
	</g>
</g>















</svg>
