<svg clip-rule="evenodd" fill-rule="evenodd" stroke-linejoin="round" stroke-miterlimit="2" viewBox="0 0 64 64" xmlns="http://www.w3.org/2000/svg"><g transform="translate(-588 -168)"><g><path d="m652 191c0-3.866-3.134-7-7-7-11.853 0-38.147 0-50 0-3.866 0-7 3.134-7 7v18c0 3.866 3.134 7 7 7h50c3.866 0 7-3.134 7-7 0-5.228 0-12.772 0-18z" fill="#f51e1e"/></g><g><path d="m597.929 207.071c-3.903-3.903-3.903-10.239 0-14.142.39-.39.39-1.024 0-1.414-.39-.391-1.024-.391-1.414 0-4.683 4.683-4.683 12.287 0 16.97.39.391 1.024.391 1.414 0 .39-.39.39-1.024 0-1.414z" fill="#fff"/></g><g><path d="m612.071 192.929c3.903 3.903 3.903 10.239 0 14.142-.39.39-.39 1.024 0 1.414.39.391 1.024.391 1.414 0 4.683-4.683 4.683-12.287 0-16.97-.39-.391-1.024-.391-1.414 0-.39.39-.39 1.024 0 1.414z" fill="#fff"/></g><g><path d="m600.757 204.243c-2.341-2.342-2.341-6.144 0-8.486.391-.39.391-1.024 0-1.414-.39-.39-1.024-.39-1.414 0-3.122 3.122-3.122 8.192 0 11.314.39.39 1.024.39 1.414 0 .391-.39.391-1.024 0-1.414z" fill="#fff"/></g><g><path d="m609.243 195.757c2.341 2.342 2.341 6.144 0 8.486-.391.39-.391 1.024 0 1.414.39.39 1.024.39 1.414 0 3.122-3.122 3.122-8.192 0-11.314-.39-.39-1.024-.39-1.414 0-.391.39-.391 1.024 0 1.414z" fill="#fff"/></g><g><path d="m643 199v-2h2c.552 0 1-.448 1-1s-.448-1-1-1h-3c-.552 0-1 .448-1 1v8c0 .552.448 1 1 1h3c.552 0 1-.448 1-1s-.448-1-1-1h-2v-2h2c.552 0 1-.448 1-1s-.448-1-1-1z" fill="#fff"/></g><g><path d="m637.03 195.757-1.03 4.12s-1.03-4.12-1.03-4.12c-.134-.535-.677-.861-1.213-.727-.535.134-.861.677-.727 1.213l2 8c.111.445.511.757.97.757s.859-.312.97-.757l2-8c.134-.536-.192-1.079-.727-1.213-.536-.134-1.079.192-1.213.727z" fill="#fff"/></g><g><path d="m631 204v-8c0-.552-.448-1-1-1s-1 .448-1 1v8c0 .552.448 1 1 1s1-.448 1-1z" fill="#fff"/></g><g><path d="m622 196v8c0 .552.448 1 1 1h3c.552 0 1-.448 1-1s-.448-1-1-1h-2v-7c0-.552-.448-1-1-1s-1 .448-1 1z" fill="#fff"/></g><g><circle cx="605" cy="200" fill="#fff" r="3"/></g></g></svg>