<svg id="Layer_1" enable-background="new 0 0 68 68" viewBox="0 0 68 68" xmlns="http://www.w3.org/2000/svg"><g><g><g><g><path d="m46.84 16.14v8.57h-25.69v-8.57c0-3.87 3.14-7.01 7.01-7.01h11.66c3.88 0 7.02 3.14 7.02 7.01z" fill="#495e66"/><path d="m46.84 25.21h-25.69c-.28 0-.5-.22-.5-.5v-8.57c0-4.14 3.37-7.51 7.52-7.51h11.67c4.14 0 7.51 3.37 7.51 7.51v8.57c-.01.28-.23.5-.51.5zm-25.19-1h24.69v-8.07c0-3.59-2.92-6.51-6.51-6.51h-11.66c-3.59 0-6.52 2.92-6.52 6.51z" fill="#000100"/></g><g><path d="m54.12 65.88h-40.23c-2.77 0-4.87-2.52-4.36-5.24l1.28-6.91c1.03-5.54 5.86-9.55 11.49-9.55h23.41c5.63 0 10.46 4.01 11.49 9.55l1.28 6.91c.5 2.72-1.59 5.24-4.36 5.24z" fill="#54e28e"/><path d="m54.12 66.38h-40.23c-1.47 0-2.86-.65-3.8-1.79-.94-1.13-1.32-2.61-1.05-4.05l1.28-6.91c1.07-5.77 6.11-9.96 11.98-9.96h23.41c5.87 0 10.91 4.19 11.98 9.96l1.28 6.91c.27 1.44-.12 2.92-1.06 4.05-.94 1.14-2.32 1.79-3.79 1.79zm-31.82-21.7c-5.39 0-10.01 3.84-11 9.14l-1.28 6.91c-.22 1.15.09 2.32.83 3.23.75.91 1.86 1.42 3.03 1.42h40.23c1.17 0 2.27-.52 3.02-1.42s1.06-2.08.84-3.23l-1.28-6.91c-.98-5.3-5.61-9.14-11-9.14z" fill="#000100"/></g><g><path d="m27.81 37.03h12.38v9.15h-12.38z" fill="#ffaecd"/><path d="m40.19 46.68h-12.38c-.28 0-.5-.22-.5-.5v-9.15c0-.28.22-.5.5-.5h12.37c.28 0 .5.22.5.5v9.15c.01.27-.22.5-.49.5zm-11.88-1h11.37v-8.15h-11.37z" fill="#000100"/></g><g><path d="m38.97 65.88h-9.94l3.07-18.38c1.27-1.33 2.54-1.33 3.8 0z" fill="#fbe063"/><path d="m38.97 66.38h-9.94c-.15 0-.29-.06-.38-.18-.09-.11-.14-.26-.11-.41l3.07-18.38c.02-.1.06-.19.13-.26.73-.76 1.49-1.15 2.26-1.15.77 0 1.53.39 2.26 1.16.07.07.11.16.13.26l3.07 18.38c.02.14-.02.29-.11.41-.1.11-.23.17-.38.17zm-9.35-1h8.76l-2.94-17.64c-.5-.49-.98-.74-1.44-.74-.46 0-.94.25-1.44.74z" fill="#000100"/></g><g><g><path d="m33.69 47.5-3.1 4.5c-.7 1.02-2.21 1.03-2.92.01l-4.76-6.8c-.43-.62-.42-1.44.01-2.05l1.5-2.11c.56-.79 1.66-.99 2.46-.43l6.36 4.41c.8.56 1 1.66.45 2.47z" fill="#efefed"/><path d="m29.13 53.27c-.74 0-1.44-.36-1.87-.97l-4.76-6.8c-.55-.79-.54-1.84.01-2.62l1.5-2.11c.72-1.01 2.14-1.26 3.15-.55l6.36 4.41c1.03.71 1.28 2.13.57 3.16l-3.09 4.5c-.42.61-1.12.98-1.86.99 0-.01-.01-.01-.01-.01zm-3.26-12.46c-.4 0-.8.19-1.04.54l-1.5 2.11c-.31.44-.31 1.03-.01 1.47l4.76 6.8c.25.35.63.55 1.05.55h.01c.42 0 .8-.2 1.04-.55l3.09-4.5c.4-.58.26-1.38-.32-1.77l-6.36-4.41c-.22-.17-.47-.24-.72-.24z" fill="#000100"/></g><g><path d="m34.31 47.5 3.09 4.5c.7 1.02 2.21 1.03 2.92.01l4.76-6.8c.43-.62.42-1.44-.01-2.05l-1.5-2.11c-.56-.79-1.66-.99-2.46-.43l-6.36 4.41c-.79.56-.99 1.66-.44 2.47z" fill="#efefed"/><path d="m38.87 53.27h-.01c-.75 0-1.44-.37-1.86-.99l-3.09-4.5c-.71-1.03-.45-2.45.57-3.16l6.36-4.41c1.02-.71 2.43-.46 3.15.55l1.5 2.11c.56.79.56 1.84.01 2.62l-4.76 6.8c-.43.62-1.13.98-1.87.98zm3.26-12.46c-.25 0-.5.07-.72.23l-6.36 4.41c-.58.4-.72 1.19-.32 1.77l3.09 4.5c.24.35.62.55 1.04.55.41.04.81-.2 1.06-.55l4.76-6.8c.31-.44.3-1.03-.01-1.47l-1.5-2.11c-.24-.35-.64-.53-1.04-.53z" fill="#000100"/></g></g><g><g><ellipse cx="22.67" cy="25.6" fill="#ffaecd" rx="3.07" ry="3.75"/><path d="m22.67 29.85c-1.97 0-3.57-1.91-3.57-4.25s1.6-4.25 3.57-4.25 3.57 1.91 3.57 4.25-1.6 4.25-3.57 4.25zm0-7.49c-1.42 0-2.57 1.46-2.57 3.25s1.15 3.25 2.57 3.25 2.57-1.46 2.57-3.25-1.15-3.25-2.57-3.25z" fill="#000100"/></g><g><ellipse cx="45.33" cy="25.6" fill="#ffaecd" rx="3.07" ry="3.75"/><path d="m45.33 29.85c-1.97 0-3.57-1.91-3.57-4.25s1.6-4.25 3.57-4.25 3.57 1.91 3.57 4.25-1.6 4.25-3.57 4.25zm0-7.49c-1.42 0-2.57 1.46-2.57 3.25s1.15 3.25 2.57 3.25 2.57-1.46 2.57-3.25-1.15-3.25-2.57-3.25z" fill="#000100"/></g><g><path d="m45.33 21.85v7.12c0 6.25-5.08 11.33-11.33 11.33-6.25 0-11.33-5.08-11.33-11.33v-7.12l3.13-2.01c.5-.33 1.14-.36 1.68-.09l1.42.72c.49.25 1.06.24 1.54-.01l2.77-1.43c.22-.11.46-.18.71-.2 4.48-.21 8.25.85 11.41 3.02z" fill="#ffc6cd"/><path d="m34.01 40.8c-6.53 0-11.84-5.31-11.84-11.83v-7.12c0-.17.09-.33.23-.42l3.13-2.01c.65-.42 1.49-.47 2.18-.11l1.42.72c.34.17.75.17 1.09-.01l2.77-1.43c.3-.15.6-.23.9-.25 4.46-.22 8.42.82 11.74 3.1.14.09.22.25.22.41v7.12c-.02 6.53-5.32 11.83-11.84 11.83zm-10.84-18.67v6.85c0 5.97 4.86 10.83 10.83 10.83 5.98 0 10.84-4.86 10.84-10.83v-6.86c-3.09-2.05-6.75-2.98-10.89-2.78-.16.01-.34.06-.52.15l-2.76 1.42c-.62.32-1.37.33-2 .01l-1.42-.72c-.38-.2-.83-.17-1.18.06z" fill="#000100"/></g></g><g><g><path d="m29.86 27.14h-1.91c-.28 0-.5-.22-.5-.5s.22-.5.5-.5h1.91c.28 0 .5.22.5.5s-.23.5-.5.5z" fill="#000100"/></g><g><path d="m40.06 27.14h-1.91c-.28 0-.5-.22-.5-.5s.22-.5.5-.5h1.91c.28 0 .5.22.5.5s-.23.5-.5.5z" fill="#000100"/></g></g><g><path d="m34 36.58c-2.29 0-4.15-1.4-4.15-3.12 0-.28.22-.5.5-.5s.5.22.5.5c0 1.15 1.44 2.12 3.15 2.12s3.15-.97 3.15-2.12c0-.28.22-.5.5-.5s.5.22.5.5c0 1.73-1.86 3.12-4.15 3.12z" fill="#000100"/></g></g></g><g><path d="m52.81 17.75c-.28 0-.5-.22-.5-.5v-8.25c0-.28.22-.5.5-.5s.5.22.5.5v8.25c0 .28-.22.5-.5.5z" fill="#000100"/></g><g><circle cx="52.86" cy="18.48" fill="#fbe063" r="2.22"/><path d="m52.86 21.2c-1.5 0-2.72-1.22-2.72-2.72s1.22-2.72 2.72-2.72 2.72 1.22 2.72 2.72-1.23 2.72-2.72 2.72zm0-4.44c-.95 0-1.72.77-1.72 1.72s.77 1.72 1.72 1.72 1.72-.77 1.72-1.72-.78-1.72-1.72-1.72z" fill="#000100"/></g><g><g><path d="m20.91 9.46v12.89c8.6 1.33 17.34 1.29 26.19 0v-12.89z" fill="#495e66"/><path d="m33.82 23.82c-4.4 0-8.74-.33-12.99-.98-.24-.04-.42-.25-.42-.49v-12.89c0-.28.22-.5.5-.5h26.19c.28 0 .5.22.5.5v12.89c0 .25-.18.46-.43.5-4.49.64-8.95.97-13.35.97zm-12.41-1.91c8.13 1.21 16.6 1.21 25.19 0v-11.95h-25.19z" fill="#000100"/></g><g><path d="m51.95 10.4-17.48 6.32c-.3.11-.63.11-.94 0l-17.47-6.32c-1.23-.45-1.2-2.2.05-2.6l17.47-5.61c.27-.09.57-.09.84 0l17.48 5.6c1.25.41 1.28 2.16.05 2.61z" fill="#3c5056"/><path d="m34 17.3c-.21 0-.43-.04-.63-.11l-17.48-6.32c-.77-.28-1.25-.98-1.24-1.8s.53-1.5 1.3-1.75l17.47-5.61c.37-.12.78-.12 1.15 0l17.48 5.61c.78.25 1.29.94 1.3 1.75s-.47 1.52-1.24 1.8l-17.48 6.32c-.2.07-.42.11-.63.11zm0-14.68c-.09 0-.18.01-.26.04l-17.48 5.61c-.44.14-.6.52-.61.82s.14.68.58.84l17.47 6.32c.19.07.41.07.6 0l17.48-6.32c.43-.16.58-.54.58-.84-.01-.3-.17-.68-.61-.82l-17.48-5.61c-.09-.03-.18-.04-.27-.04z" fill="#000100"/></g><g><ellipse cx="34" cy="9.46" fill="#fbe063" rx="2.88" ry="1.67"/><path d="m34 11.63c-1.9 0-3.38-.95-3.38-2.17s1.49-2.17 3.38-2.17 3.38.95 3.38 2.17-1.48 2.17-3.38 2.17zm0-3.34c-1.36 0-2.38.62-2.38 1.17s1.02 1.17 2.38 1.17 2.38-.62 2.38-1.17-1.02-1.17-2.38-1.17z" fill="#000100"/></g></g></g></svg>