<?xml version="1.0" encoding="UTF-8" standalone="no"?>
<!-- Created with Inkscape (http://www.inkscape.org/) -->

<svg
   version="1.1"
   id="svg2952"
   xml:space="preserve"
   width="682.66669"
   height="682.66669"
   viewBox="0 0 682.66669 682.66669"
   xmlns="http://www.w3.org/2000/svg"
   xmlns:svg="http://www.w3.org/2000/svg"><defs
     id="defs2956"><clipPath
       clipPathUnits="userSpaceOnUse"
       id="clipPath2966"><path
         d="M 0,512 H 512 V 0 H 0 Z"
         id="path2964" /></clipPath></defs><g
     id="g2958"
     transform="matrix(1.3333333,0,0,-1.3333333,0,682.66667)"><g
       id="g2960"><g
         id="g2962"
         clip-path="url(#clipPath2966)"><g
           id="g2968"
           transform="translate(389.5898,450.9243)"><path
             d="m 0,0 h -355.583 c -13.259,0 -24.007,-10.749 -24.007,-24.007 v -256.451 c 0,-13.258 10.748,-24.006 24.007,-24.006 H 88.403 c 13.259,0 24.007,10.748 24.007,24.006 V -24.007 C 112.41,-10.749 101.662,0 88.403,0"
             style="fill:#daecff;fill-opacity:1;fill-rule:nonzero;stroke:#000000;stroke-width:20;stroke-linecap:round;stroke-linejoin:round;stroke-miterlimit:10;stroke-dasharray:none;stroke-opacity:1"
             id="path2970" /></g><g
           id="g2972"
           transform="translate(502,170.4658)"><path
             d="m 0,0 v -77.388 c 0,-17.674 -14.328,-32.002 -32.002,-32.002 h -427.996 c -17.674,0 -32.002,14.328 -32.002,32.002 V 0 c 0,-13.26 10.75,-24.01 24.01,-24.01 H -24.01 C -10.75,-24.01 0,-13.26 0,0"
             style="fill:#ffa868;fill-opacity:1;fill-rule:nonzero;stroke:none"
             id="path2974" /></g><g
           id="g2976"
           transform="translate(502,170.4658)"><path
             d="m 0,0 v -77.388 c 0,-17.674 -14.328,-32.002 -32.002,-32.002 h -427.996 c -17.674,0 -32.002,14.328 -32.002,32.002 V 0 c 0,-13.26 10.75,-24.01 24.01,-24.01 H -24.01 C -10.75,-24.01 0,-13.26 0,0 Z"
             style="fill:none;stroke:#000000;stroke-width:20;stroke-linecap:round;stroke-linejoin:round;stroke-miterlimit:10;stroke-dasharray:none;stroke-opacity:1"
             id="path2978" /></g><g
           id="g2980"
           transform="translate(54,103.0757)"><path
             d="M 0,0 H 410"
             style="fill:none;stroke:#000000;stroke-width:20;stroke-linecap:round;stroke-linejoin:round;stroke-miterlimit:10;stroke-dasharray:none;stroke-opacity:1"
             id="path2982" /></g><g
           id="g2984"
           transform="translate(71.7646,115.771)"><path
             d="M 0,0 V -25.229"
             style="fill:none;stroke:#000000;stroke-width:20;stroke-linecap:round;stroke-linejoin:round;stroke-miterlimit:10;stroke-dasharray:none;stroke-opacity:1"
             id="path2986" /></g><g
           id="g2988"
           transform="translate(364.1621,298.6919)"><path
             d="m 0,0 c 0,-59.736 -48.426,-108.162 -108.162,-108.162 -59.736,0 -108.162,48.426 -108.162,108.162 0,59.736 48.426,108.162 108.162,108.162 C -48.426,108.162 0,59.736 0,0"
             style="fill:#ff5859;fill-opacity:1;fill-rule:nonzero;stroke:none"
             id="path2990" /></g><g
           id="g2992"
           transform="translate(364.1621,298.6919)"><path
             d="m 0,0 c 0,-59.736 -48.426,-108.162 -108.162,-108.162 -59.736,0 -108.162,48.426 -108.162,108.162 0,59.736 48.426,108.162 108.162,108.162 C -48.426,108.162 0,59.736 0,0 Z"
             style="fill:none;stroke:#000000;stroke-width:20;stroke-linecap:round;stroke-linejoin:round;stroke-miterlimit:10;stroke-dasharray:none;stroke-opacity:1"
             id="path2994" /></g><g
           id="g2996"
           transform="translate(229.6826,340.9199)"><path
             d="m 0,0 v -84.456 l 69.119,43.677 z"
             style="fill:#f9f5f3;fill-opacity:1;fill-rule:nonzero;stroke:none"
             id="path2998" /></g><g
           id="g3000"
           transform="translate(229.6826,340.9199)"><path
             d="m 0,0 v -84.456 l 69.119,43.677 z"
             style="fill:none;stroke:#000000;stroke-width:20;stroke-linecap:round;stroke-linejoin:round;stroke-miterlimit:10;stroke-dasharray:none;stroke-opacity:1"
             id="path3002" /></g><g
           id="g3004"
           transform="translate(434.2197,450.9243)"><path
             d="M 0,0 V 0"
             style="fill:none;stroke:#000000;stroke-width:20;stroke-linecap:round;stroke-linejoin:round;stroke-miterlimit:10;stroke-dasharray:none;stroke-opacity:1"
             id="path3006" /></g></g></g></g></svg>
